ISO-10303-21;
HEADER;
/* Generated by software containing ST-Developer
 * from STEP Tools, Inc. (www.steptools.com) 
 */
/* OPTION: using custom renumber hook */

FILE_DESCRIPTION(
/* description */ ('STEP AP242 Edition 2',
'CAx-IF Rec.Pracs.---Representation and Presentation of Product Manufa
cturing Information (PMI)---4.0---2014-10-13',
'CAx-IF Rec.Pracs.---3D Tessellated Geometry---0.4---2014-09-14','2;1',
'CAx-IF Rec.Pracs.---User Defined Attributes---1.5---2016-08-15'),
/* implementation_level */ '2;1');

FILE_NAME(
/* name */ 'Part Studio 1',
/* time_stamp */ '2026-10-03T01:16:52Z',
/* author */ (''),
/* organization */ (''),
/* preprocessor_version */ 'ST-DEVELOPER v20',
/* originating_system */ 'ONSHAPE BY PTC INC, 1.221',
/* authorisation */ '  ');

FILE_SCHEMA (('AP242_MANAGED_MODEL_BASED_3D_ENGINEERING_MIM_LF { 1 0 10303 442 3 1 4 }'));
ENDSEC;

DATA;
#10=ADVANCED_BREP_SHAPE_REPRESENTATION('',(#25),#235);
#11=TOROIDAL_SURFACE('',#137,0.02125,0.01);
#12=TOROIDAL_SURFACE('',#143,0.02125,0.007);
#13=TOROIDAL_SURFACE('',#144,0.02975,0.0015);
#14=PLANE('',#135);
#15=PLANE('',#141);
#16=CIRCLE('',#133,0.03125);
#17=CIRCLE('',#134,0.03125);
#18=CIRCLE('',#136,0.02125);
#19=CIRCLE('',#139,0.02825);
#20=CIRCLE('',#140,0.02825);
#21=CIRCLE('',#142,0.02125);
#22=CYLINDRICAL_SURFACE('',#132,0.03125);
#23=CYLINDRICAL_SURFACE('',#138,0.02825);
#24=CLOSED_SHELL('',(#99,#100,#101,#102,#103,#104,#105));
#25=MANIFOLD_SOLID_BREP('Part 1',#24);
#26=SHAPE_REPRESENTATION_RELATIONSHIP('','',#126,#28);
#27=SHAPE_REPRESENTATION_RELATIONSHIP('','',#127,#10);
#28=MANIFOLD_SURFACE_SHAPE_REPRESENTATION('',(#123),#234);
#29=LINE('',#207,#31);
#30=LINE('',#211,#32);
#31=VECTOR('',#149,1.);
#32=VECTOR('',#152,1.);
#33=ORIENTED_EDGE('',*,*,#49,.F.);
#34=ORIENTED_EDGE('',*,*,#50,.F.);
#35=ORIENTED_EDGE('',*,*,#51,.T.);
#36=ORIENTED_EDGE('',*,*,#52,.T.);
#37=ORIENTED_EDGE('',*,*,#53,.T.);
#38=ORIENTED_EDGE('',*,*,#54,.T.);
#39=ORIENTED_EDGE('',*,*,#55,.T.);
#40=ORIENTED_EDGE('',*,*,#55,.F.);
#41=ORIENTED_EDGE('',*,*,#54,.F.);
#42=ORIENTED_EDGE('',*,*,#56,.T.);
#43=ORIENTED_EDGE('',*,*,#57,.F.);
#44=ORIENTED_EDGE('',*,*,#58,.F.);
#45=ORIENTED_EDGE('',*,*,#58,.T.);
#46=ORIENTED_EDGE('',*,*,#57,.T.);
#47=ORIENTED_EDGE('',*,*,#56,.F.);
#48=ORIENTED_EDGE('',*,*,#53,.F.);
#49=EDGE_CURVE('',#59,#60,#69,.T.);
#50=EDGE_CURVE('',#61,#59,#29,.T.);
#51=EDGE_CURVE('',#61,#62,#70,.T.);
#52=EDGE_CURVE('',#62,#60,#30,.T.);
#53=EDGE_CURVE('',#63,#63,#16,.F.);
#54=EDGE_CURVE('',#64,#64,#17,.T.);
#55=EDGE_CURVE('',#65,#65,#18,.F.);
#56=EDGE_CURVE('',#66,#66,#19,.T.);
#57=EDGE_CURVE('',#67,#67,#20,.F.);
#58=EDGE_CURVE('',#68,#68,#21,.F.);
#59=VERTEX_POINT('',#205);
#60=VERTEX_POINT('',#206);
#61=VERTEX_POINT('',#208);
#62=VERTEX_POINT('',#210);
#63=VERTEX_POINT('',#215);
#64=VERTEX_POINT('',#217);
#65=VERTEX_POINT('',#220);
#66=VERTEX_POINT('',#224);
#67=VERTEX_POINT('',#226);
#68=VERTEX_POINT('',#229);
#69=ELLIPSE('',#129,0.0279418060225013,0.0144293409441834);
#70=ELLIPSE('',#130,0.0279418060225013,0.0144293409441834);
#71=EDGE_LOOP('',(#33,#34,#35,#36));
#72=EDGE_LOOP('',(#37));
#73=EDGE_LOOP('',(#38));
#74=EDGE_LOOP('',(#39));
#75=EDGE_LOOP('',(#40));
#76=EDGE_LOOP('',(#41));
#77=EDGE_LOOP('',(#42));
#78=EDGE_LOOP('',(#43));
#79=EDGE_LOOP('',(#44));
#80=EDGE_LOOP('',(#45));
#81=EDGE_LOOP('',(#46));
#82=EDGE_LOOP('',(#47));
#83=EDGE_LOOP('',(#48));
#84=FACE_BOUND('',#71,.T.);
#85=FACE_BOUND('',#72,.T.);
#86=FACE_BOUND('',#73,.T.);
#87=FACE_BOUND('',#74,.T.);
#88=FACE_BOUND('',#75,.T.);
#89=FACE_BOUND('',#76,.T.);
#90=FACE_BOUND('',#77,.T.);
#91=FACE_BOUND('',#78,.T.);
#92=FACE_BOUND('',#79,.T.);
#93=FACE_BOUND('',#80,.T.);
#94=FACE_BOUND('',#81,.T.);
#95=FACE_BOUND('',#82,.T.);
#96=FACE_BOUND('',#83,.T.);
#97=B_SPLINE_SURFACE_WITH_KNOTS('',3,1,((#182,#183),(#184,#185),(#186,#187),
(#188,#189),(#190,#191),(#192,#193),(#194,#195),(#196,#197),(#198,#199),
(#200,#201),(#202,#203)),.SURF_OF_LINEAR_EXTRUSION.,.F.,.F.,.F.,(4,1,1,
1,1,1,1,1,4),(2,2),(4.51439874852134,4.90595928537264,5.29751982222394,
5.68908035907524,6.08064089592654,6.47220143277784,6.86376196962914,7.25532250648044,
7.64688304333174),(0.,1.),.UNSPECIFIED.);
#98=ADVANCED_FACE('',(#84),#97,.T.);
#99=ADVANCED_FACE('',(#85,#86),#22,.T.);
#100=ADVANCED_FACE('',(#87),#14,.F.);
#101=ADVANCED_FACE('',(#88,#89),#11,.T.);
#102=ADVANCED_FACE('',(#90,#91),#23,.F.);
#103=ADVANCED_FACE('',(#92),#15,.T.);
#104=ADVANCED_FACE('',(#93,#94),#12,.F.);
#105=ADVANCED_FACE('',(#95,#96),#13,.T.);
#106=OPEN_SHELL('',(#98));
#107=STYLED_ITEM('',(#109),#123);
#108=STYLED_ITEM('',(#110),#25);
#109=PRESENTATION_STYLE_ASSIGNMENT((#111));
#110=PRESENTATION_STYLE_ASSIGNMENT((#112));
#111=SURFACE_STYLE_USAGE(.BOTH.,#113);
#112=SURFACE_STYLE_USAGE(.BOTH.,#114);
#113=SURFACE_SIDE_STYLE('',(#115));
#114=SURFACE_SIDE_STYLE('',(#116));
#115=SURFACE_STYLE_FILL_AREA(#117);
#116=SURFACE_STYLE_FILL_AREA(#118);
#117=FILL_AREA_STYLE('',(#119));
#118=FILL_AREA_STYLE('',(#120));
#119=FILL_AREA_STYLE_COLOUR('',#121);
#120=FILL_AREA_STYLE_COLOUR('',#122);
#121=COLOUR_RGB('',0.647058823529412,0.647058823529412,0.647058823529412);
#122=COLOUR_RGB('',0.615686274509804,0.811764705882353,0.929411764705882);
#123=SHELL_BASED_SURFACE_MODEL('Surface 1',(#106));
#124=SHAPE_DEFINITION_REPRESENTATION(#244,#126);
#125=SHAPE_DEFINITION_REPRESENTATION(#245,#127);
#126=SHAPE_REPRESENTATION('Surface 1',(#128),#234);
#127=SHAPE_REPRESENTATION('Part 1',(#131),#235);
#128=AXIS2_PLACEMENT_3D('',#181,#145,#146);
#129=AXIS2_PLACEMENT_3D('',#204,#147,#148);
#130=AXIS2_PLACEMENT_3D('',#209,#150,#151);
#131=AXIS2_PLACEMENT_3D('',#212,#153,#154);
#132=AXIS2_PLACEMENT_3D('',#213,#155,#156);
#133=AXIS2_PLACEMENT_3D('',#214,#157,#158);
#134=AXIS2_PLACEMENT_3D('',#216,#159,#160);
#135=AXIS2_PLACEMENT_3D('',#218,#161,#162);
#136=AXIS2_PLACEMENT_3D('',#219,#163,#164);
#137=AXIS2_PLACEMENT_3D('',#221,#165,#166);
#138=AXIS2_PLACEMENT_3D('',#222,#167,#168);
#139=AXIS2_PLACEMENT_3D('',#223,#169,#170);
#140=AXIS2_PLACEMENT_3D('',#225,#171,#172);
#141=AXIS2_PLACEMENT_3D('',#227,#173,#174);
#142=AXIS2_PLACEMENT_3D('',#228,#175,#176);
#143=AXIS2_PLACEMENT_3D('',#230,#177,#178);
#144=AXIS2_PLACEMENT_3D('',#231,#179,#180);
#145=DIRECTION('',(0.,0.,1.));
#146=DIRECTION('',(1.,0.,0.));
#147=DIRECTION('',(1.,0.,0.));
#148=DIRECTION('',(0.,0.932130445645341,0.362122675761983));
#149=DIRECTION('',(1.,0.,0.));
#150=DIRECTION('',(1.,0.,0.));
#151=DIRECTION('',(0.,0.932130445645341,0.362122675761983));
#152=DIRECTION('',(1.,0.,0.));
#153=DIRECTION('',(0.,0.,1.));
#154=DIRECTION('',(1.,0.,0.));
#155=DIRECTION('',(0.,0.,-1.));
#156=DIRECTION('',(-1.,0.,0.));
#157=DIRECTION('',(0.,0.,1.));
#158=DIRECTION('',(1.,0.,0.));
#159=DIRECTION('',(0.,0.,1.));
#160=DIRECTION('',(1.,0.,0.));
#161=DIRECTION('',(0.,0.,1.));
#162=DIRECTION('',(1.,0.,0.));
#163=DIRECTION('',(0.,0.,1.));
#164=DIRECTION('',(1.,0.,0.));
#165=DIRECTION('',(0.,0.,1.));
#166=DIRECTION('',(1.,0.,0.));
#167=DIRECTION('',(0.,0.,-1.));
#168=DIRECTION('',(-1.,0.,0.));
#169=DIRECTION('',(0.,0.,1.));
#170=DIRECTION('',(1.,0.,0.));
#171=DIRECTION('',(0.,0.,-1.));
#172=DIRECTION('',(-1.,0.,0.));
#173=DIRECTION('',(0.,0.,1.));
#174=DIRECTION('',(1.,0.,0.));
#175=DIRECTION('',(0.,0.,1.));
#176=DIRECTION('',(1.,0.,0.));
#177=DIRECTION('',(0.,0.,1.));
#178=DIRECTION('',(1.,0.,0.));
#179=DIRECTION('',(0.,0.,1.));
#180=DIRECTION('',(1.,0.,0.));
#181=CARTESIAN_POINT('',(0.,0.,0.));
#182=CARTESIAN_POINT('',(0.,0.0309640578925609,0.014662254601717));
#183=CARTESIAN_POINT('',(0.004,0.0309640578925609,0.014662254601717));
#184=CARTESIAN_POINT('',(0.,0.0344312446027679,0.015611799075853));
#185=CARTESIAN_POINT('',(0.004,0.0344312446027679,0.015611799075853));
#186=CARTESIAN_POINT('',(0.,0.0413640205299019,0.0182960825939219));
#187=CARTESIAN_POINT('',(0.004,0.0413640205299019,0.0182960825939219));
#188=CARTESIAN_POINT('',(0.,0.050190186676329,0.0240702309627974));
#189=CARTESIAN_POINT('',(0.004,0.050190186676329,0.0240702309627974));
#190=CARTESIAN_POINT('',(0.,0.0561057425830782,0.0307176301366712));
#191=CARTESIAN_POINT('',(0.004,0.0561057425830782,0.0307176301366712));
#192=CARTESIAN_POINT('',(0.,0.0582156796889649,0.0372321771245432));
#193=CARTESIAN_POINT('',(0.004,0.0582156796889649,0.0372321771245432));
#194=CARTESIAN_POINT('',(0.,0.0562004707972822,0.0426277207951155));
#195=CARTESIAN_POINT('',(0.004,0.0562004707972822,0.0426277207951155));
#196=CARTESIAN_POINT('',(0.,0.0503653040225046,0.0460875727478622));
#197=CARTESIAN_POINT('',(0.004,0.0503653040225046,0.0460875727478622));
#198=CARTESIAN_POINT('',(0.,0.0415930193816649,0.0470878961849927));
#199=CARTESIAN_POINT('',(0.004,0.0415930193816649,0.0470878961849927));
#200=CARTESIAN_POINT('',(0.,0.034673055275012,0.0460144309929238));
#201=CARTESIAN_POINT('',(0.004,0.034673055275012,0.0460144309929238));
#202=CARTESIAN_POINT('',(0.,0.0312060123865287,0.0450829690909405));
#203=CARTESIAN_POINT('',(0.004,0.0312060123865287,0.0450829690909405));
#204=CARTESIAN_POINT('',(0.004,0.0309640578925609,0.0298397950828075));
#205=CARTESIAN_POINT('',(0.004,0.0309640578925609,0.014662254601717));
#206=CARTESIAN_POINT('',(0.004,0.0312060123865287,0.0450829690909405));
#207=CARTESIAN_POINT('',(0.,0.0309640578925609,0.014662254601717));
#208=CARTESIAN_POINT('',(0.,0.0309640578925609,0.014662254601717));
#209=CARTESIAN_POINT('',(0.,0.0309640578925609,0.0298397950828075));
#210=CARTESIAN_POINT('',(0.,0.0312060123865287,0.0450829690909405));
#211=CARTESIAN_POINT('',(0.,0.0312060123865287,0.0450829690909405));
#212=CARTESIAN_POINT('',(0.,0.,0.));
#213=CARTESIAN_POINT('',(0.,1.91351062366774E-18,0.05));
#214=CARTESIAN_POINT('',(0.,1.91351062366774E-18,0.0485));
#215=CARTESIAN_POINT('',(0.03125,1.91351062366774E-18,0.0485));
#216=CARTESIAN_POINT('',(0.,1.91351062366774E-18,0.01));
#217=CARTESIAN_POINT('',(0.03125,1.91351062366774E-18,0.01));
#218=CARTESIAN_POINT('',(0.,0.,0.));
#219=CARTESIAN_POINT('',(0.,1.91351062366774E-18,0.));
#220=CARTESIAN_POINT('',(0.02125,1.91351062366774E-18,0.));
#221=CARTESIAN_POINT('',(0.,1.91351062366774E-18,0.01));
#222=CARTESIAN_POINT('',(0.,1.91351062366774E-18,0.05));
#223=CARTESIAN_POINT('',(0.,1.91351062366774E-18,0.0485));
#224=CARTESIAN_POINT('',(0.02825,1.91351062366774E-18,0.0485));
#225=CARTESIAN_POINT('',(0.,1.91351062366774E-18,0.01));
#226=CARTESIAN_POINT('',(-0.02825,1.91351062366774E-18,0.01));
#227=CARTESIAN_POINT('',(0.,0.,0.003));
#228=CARTESIAN_POINT('',(0.,1.91351062366774E-18,0.003));
#229=CARTESIAN_POINT('',(0.02125,1.91351062366774E-18,0.003));
#230=CARTESIAN_POINT('',(0.,1.91351062366774E-18,0.01));
#231=CARTESIAN_POINT('',(0.,1.91351062366774E-18,0.0485));
#232=MECHANICAL_DESIGN_GEOMETRIC_PRESENTATION_REPRESENTATION('',(#107),
#234);
#233=MECHANICAL_DESIGN_GEOMETRIC_PRESENTATION_REPRESENTATION('',(#108),
#235);
#234=(
GEOMETRIC_REPRESENTATION_CONTEXT(3)
GLOBAL_UNCERTAINTY_ASSIGNED_CONTEXT((#236))
GLOBAL_UNIT_ASSIGNED_CONTEXT((#242,#240,#238))
REPRESENTATION_CONTEXT('Surface 1','TOP_LEVEL_ASSEMBLY_PART')
);
#235=(
GEOMETRIC_REPRESENTATION_CONTEXT(3)
GLOBAL_UNCERTAINTY_ASSIGNED_CONTEXT((#237))
GLOBAL_UNIT_ASSIGNED_CONTEXT((#243,#241,#239))
REPRESENTATION_CONTEXT('Part 1','TOP_LEVEL_ASSEMBLY_PART')
);
#236=UNCERTAINTY_MEASURE_WITH_UNIT(LENGTH_MEASURE(2.E-5),#242,
'DISTANCE_ACCURACY_VALUE','Maximum Tolerance applied to model');
#237=UNCERTAINTY_MEASURE_WITH_UNIT(LENGTH_MEASURE(1.E-8),#243,
'DISTANCE_ACCURACY_VALUE','Maximum Tolerance applied to model');
#238=(
NAMED_UNIT(*)
SI_UNIT($,.STERADIAN.)
SOLID_ANGLE_UNIT()
);
#239=(
NAMED_UNIT(*)
SI_UNIT($,.STERADIAN.)
SOLID_ANGLE_UNIT()
);
#240=(
NAMED_UNIT(*)
PLANE_ANGLE_UNIT()
SI_UNIT($,.RADIAN.)
);
#241=(
NAMED_UNIT(*)
PLANE_ANGLE_UNIT()
SI_UNIT($,.RADIAN.)
);
#242=(
LENGTH_UNIT()
NAMED_UNIT(*)
SI_UNIT($,.METRE.)
);
#243=(
LENGTH_UNIT()
NAMED_UNIT(*)
SI_UNIT($,.METRE.)
);
#244=PRODUCT_DEFINITION_SHAPE('','',#246);
#245=PRODUCT_DEFINITION_SHAPE('','',#247);
#246=PRODUCT_DEFINITION('','',#250,#248);
#247=PRODUCT_DEFINITION('','',#251,#249);
#248=PRODUCT_DEFINITION_CONTEXT('',#262,'design');
#249=PRODUCT_DEFINITION_CONTEXT('',#263,'design');
#250=PRODUCT_DEFINITION_FORMATION_WITH_SPECIFIED_SOURCE('','',#254,
 .NOT_KNOWN.);
#251=PRODUCT_DEFINITION_FORMATION_WITH_SPECIFIED_SOURCE('','',#255,
 .NOT_KNOWN.);
#252=PRODUCT_RELATED_PRODUCT_CATEGORY('','',(#254));
#253=PRODUCT_RELATED_PRODUCT_CATEGORY('','',(#255));
#254=PRODUCT('Surface 1','Surface 1','Surface 1',(#258));
#255=PRODUCT('Part 1','Part 1','Part 1',(#259));
#256=PRODUCT_CATEGORY('','');
#257=PRODUCT_CATEGORY('','');
#258=PRODUCT_CONTEXT('',#262,'mechanical');
#259=PRODUCT_CONTEXT('',#263,'mechanical');
#260=APPLICATION_PROTOCOL_DEFINITION('international standard',
'ap242_managed_model_based_3d_engineering',2020,#262);
#261=APPLICATION_PROTOCOL_DEFINITION('international standard',
'ap242_managed_model_based_3d_engineering',2020,#263);
#262=APPLICATION_CONTEXT('managed model based 3d engineering');
#263=APPLICATION_CONTEXT('managed model based 3d engineering');
ENDSEC;
END-ISO-10303-21;
