ISO-10303-21;
HEADER;
/* Generated by software containing ST-Developer
 * from STEP Tools, Inc. (www.steptools.com) 
 */
/* OPTION: using custom renumber hook */

FILE_DESCRIPTION(
/* description */ ('STEP AP242 Edition 2',
'CAx-IF Rec.Pracs.---Representation and Presentation of Product Manufa
cturing Information (PMI)---4.0---2014-10-13',
'CAx-IF Rec.Pracs.---3D Tessellated Geometry---0.4---2014-09-14','2;1',
'CAx-IF Rec.Pracs.---User Defined Attributes---1.5---2016-08-15'),
/* implementation_level */ '2;1');

FILE_NAME(
/* name */ 'Part Studio 1',
/* time_stamp */ '2026-10-03T01:29:00Z',
/* author */ (''),
/* organization */ (''),
/* preprocessor_version */ 'ST-DEVELOPER v20',
/* originating_system */ 'ONSHAPE BY PTC INC, 1.221',
/* authorisation */ '  ');

FILE_SCHEMA (('AP242_MANAGED_MODEL_BASED_3D_ENGINEERING_MIM_LF { 1 0 10303 442 3 1 4 }'));
ENDSEC;

DATA;
#10=CYLINDRICAL_SURFACE('',#442,0.014);
#11=CYLINDRICAL_SURFACE('',#443,0.014);
#12=CYLINDRICAL_SURFACE('',#444,0.014);
#13=CYLINDRICAL_SURFACE('',#445,0.014);
#14=CYLINDRICAL_SURFACE('',#455,0.0124);
#15=CYLINDRICAL_SURFACE('',#456,0.0124);
#16=CYLINDRICAL_SURFACE('',#457,0.0124);
#17=CYLINDRICAL_SURFACE('',#458,0.0124);
#18=CIRCLE('',#429,0.0124);
#19=CIRCLE('',#430,0.0124);
#20=CIRCLE('',#431,0.0124);
#21=CIRCLE('',#432,0.0124);
#22=CIRCLE('',#433,0.014);
#23=CIRCLE('',#434,0.014);
#24=CIRCLE('',#435,0.014);
#25=CIRCLE('',#436,0.014);
#26=CIRCLE('',#438,0.014);
#27=CIRCLE('',#439,0.014);
#28=CIRCLE('',#440,0.014);
#29=CIRCLE('',#441,0.014);
#30=CIRCLE('',#451,0.0124);
#31=CIRCLE('',#452,0.0124);
#32=CIRCLE('',#453,0.0124);
#33=CIRCLE('',#454,0.0124);
#34=LINE('',#1034,#66);
#35=LINE('',#1037,#67);
#36=LINE('',#1039,#68);
#37=LINE('',#1041,#69);
#38=LINE('',#1043,#70);
#39=LINE('',#1046,#71);
#40=LINE('',#1048,#72);
#41=LINE('',#1050,#73);
#42=LINE('',#1052,#74);
#43=LINE('',#1055,#75);
#44=LINE('',#1057,#76);
#45=LINE('',#1059,#77);
#46=LINE('',#1061,#78);
#47=LINE('',#1064,#79);
#48=LINE('',#1066,#80);
#49=LINE('',#1068,#81);
#50=LINE('',#1070,#82);
#51=LINE('',#1075,#83);
#52=LINE('',#1079,#84);
#53=LINE('',#1083,#85);
#54=LINE('',#1100,#86);
#55=LINE('',#1103,#87);
#56=LINE('',#1104,#88);
#57=LINE('',#1106,#89);
#58=LINE('',#1109,#90);
#59=LINE('',#1110,#91);
#60=LINE('',#1112,#92);
#61=LINE('',#1114,#93);
#62=LINE('',#1116,#94);
#63=LINE('',#1118,#95);
#64=LINE('',#1121,#96);
#65=LINE('',#1122,#97);
#66=VECTOR('',#473,1.);
#67=VECTOR('',#474,1.);
#68=VECTOR('',#475,1.);
#69=VECTOR('',#476,1.);
#70=VECTOR('',#479,1.);
#71=VECTOR('',#480,1.);
#72=VECTOR('',#481,1.);
#73=VECTOR('',#482,1.);
#74=VECTOR('',#485,1.);
#75=VECTOR('',#486,1.);
#76=VECTOR('',#487,1.);
#77=VECTOR('',#488,1.);
#78=VECTOR('',#491,1.);
#79=VECTOR('',#492,1.);
#80=VECTOR('',#493,1.);
#81=VECTOR('',#494,1.);
#82=VECTOR('',#497,1.);
#83=VECTOR('',#500,1.);
#84=VECTOR('',#503,1.);
#85=VECTOR('',#506,1.);
#86=VECTOR('',#537,1.);
#87=VECTOR('',#538,1.);
#88=VECTOR('',#539,1.);
#89=VECTOR('',#542,1.);
#90=VECTOR('',#543,1.);
#91=VECTOR('',#544,1.);
#92=VECTOR('',#547,1.);
#93=VECTOR('',#548,1.);
#94=VECTOR('',#549,1.);
#95=VECTOR('',#552,1.);
#96=VECTOR('',#553,1.);
#97=VECTOR('',#554,1.);
#98=SHAPE_REPRESENTATION_RELATIONSHIP('','',#416,#100);
#99=SHAPE_REPRESENTATION_RELATIONSHIP('','',#417,#101);
#100=ADVANCED_BREP_SHAPE_REPRESENTATION('',(#412),#1134);
#101=ADVANCED_BREP_SHAPE_REPRESENTATION('',(#413),#1135);
#102=(
BOUNDED_SURFACE()
B_SPLINE_SURFACE(3,2,((#653,#654,#655),(#656,#657,#658),(#659,#660,#661),
(#662,#663,#664),(#665,#666,#667),(#668,#669,#670),(#671,#672,#673),(#674,
#675,#676),(#677,#678,#679),(#680,#681,#682),(#683,#684,#685),(#686,#687,
#688),(#689,#690,#691),(#692,#693,#694),(#695,#696,#697),(#698,#699,#700),
(#701,#702,#703),(#704,#705,#706),(#707,#708,#709),(#710,#711,#712),(#713,
#714,#715),(#716,#717,#718),(#719,#720,#721),(#722,#723,#724),(#725,#726,
#727),(#728,#729,#730),(#731,#732,#733),(#734,#735,#736),(#737,#738,#739),
(#740,#741,#742),(#743,#744,#745),(#746,#747,#748),(#749,#750,#751),(#752,
#753,#754),(#755,#756,#757),(#758,#759,#760),(#761,#762,#763),(#764,#765,
#766),(#767,#768,#769),(#770,#771,#772),(#773,#774,#775),(#776,#777,#778),
(#779,#780,#781),(#782,#783,#784),(#785,#786,#787),(#788,#789,#790),(#791,
#792,#793),(#794,#795,#796),(#797,#798,#799),(#800,#801,#802),(#803,#804,
#805),(#806,#807,#808),(#809,#810,#811),(#812,#813,#814),(#815,#816,#817),
(#818,#819,#820),(#821,#822,#823)),.UNSPECIFIED.,.T.,.F.,.F.)
B_SPLINE_SURFACE_WITH_KNOTS((1,3,1,1,1,1,1,1,1,1,1,1,1,1,1,1,1,1,1,1,1,
1,1,1,1,1,1,1,1,1,1,1,1,1,1,1,1,1,1,1,1,1,1,1,1,1,1,1,1,1,1,1,1,1,1,3,1),
(3,3),(-0.000708222456622998,0.,0.000708222456622999,0.001416444913246,
0.002124667369869,0.002832889826492,0.004249334739738,0.005665779652984,
0.00708222456622999,0.00849866947947599,0.00991511439272199,0.011331559305968,
0.01416444913246,0.016997338958952,0.019830228785444,0.022663118611936,
0.025496008438428,0.02832889826492,0.031161788091412,0.033994677917904,
0.036827567744396,0.038244012657642,0.039660457570888,0.041076902484134,
0.04249334739738,0.043201569854003,0.043909792310626,0.044618014767249,
0.045326237223872,0.046034459680495,0.046742682137118,0.047450904593741,
0.048159127050364,0.04957557196361,0.050992016876856,0.052408461790102,
0.053824906703348,0.055241351616594,0.05665779652984,0.059490686356332,
0.062323576182824,0.065156466009316,0.067989355835808,0.0708222456622999,
0.0736551354887919,0.076488025315284,0.0793209151417759,0.0821538049682679,
0.0835702498815139,0.0849866947947599,0.0864031397080059,0.0878195846212519,
0.0885278070778749,0.0892360295344979,0.0899442519911209,0.0906524744477439,
0.0913606969043669),(0.,1.),.UNSPECIFIED.)
GEOMETRIC_REPRESENTATION_ITEM()
RATIONAL_B_SPLINE_SURFACE(((1.,0.707106781186548,1.),(1.,0.707106781186548,
1.),(1.,0.707106781186548,1.),(1.,0.707106781186547,1.),(1.,0.707106781186547,
1.),(1.,0.707106781186548,1.),(1.,0.707106781186548,1.),(1.,0.707106781186547,
1.),(1.,0.707106781186547,1.),(1.,0.707106781186547,1.),(1.,0.707106781186548,
1.),(1.,0.707106781186547,1.),(1.,0.707106781186548,1.),(1.,0.707106781186547,
1.),(1.,0.707106781186548,1.),(1.,0.707106781186548,1.),(1.,0.707106781186547,
1.),(1.,0.707106781186548,1.),(1.,0.707106781186547,1.),(1.,0.707106781186548,
1.),(1.,0.707106781186547,1.),(1.,0.707106781186548,1.),(1.,0.707106781186548,
1.),(1.,0.707106781186547,1.),(1.,0.707106781186548,1.),(1.,0.707106781186548,
1.),(1.,0.707106781186547,1.),(1.,0.707106781186548,1.),(1.,0.707106781186548,
1.),(1.,0.707106781186548,1.),(1.,0.707106781186547,1.),(1.,0.707106781186548,
1.),(1.,0.707106781186547,1.),(1.,0.707106781186548,1.),(1.,0.707106781186548,
1.),(1.,0.707106781186547,1.),(1.,0.707106781186548,1.),(1.,0.707106781186548,
1.),(1.,0.707106781186547,1.),(1.,0.707106781186547,1.),(1.,0.707106781186548,
1.),(1.,0.707106781186548,1.),(1.,0.707106781186548,1.),(1.,0.707106781186547,
1.),(1.,0.707106781186548,1.),(1.,0.707106781186547,1.),(1.,0.707106781186548,
1.),(1.,0.707106781186548,1.),(1.,0.707106781186547,1.),(1.,0.707106781186548,
1.),(1.,0.707106781186548,1.),(1.,0.707106781186547,1.),(1.,0.707106781186548,
1.),(1.,0.707106781186547,1.),(1.,0.707106781186548,1.),(1.,0.707106781186548,
1.),(1.,0.707106781186548,1.)))
REPRESENTATION_ITEM('')
SURFACE()
);
#103=(
BOUNDED_SURFACE()
B_SPLINE_SURFACE(3,2,((#864,#865,#866),(#867,#868,#869),(#870,#871,#872),
(#873,#874,#875),(#876,#877,#878),(#879,#880,#881),(#882,#883,#884),(#885,
#886,#887),(#888,#889,#890),(#891,#892,#893),(#894,#895,#896),(#897,#898,
#899),(#900,#901,#902),(#903,#904,#905),(#906,#907,#908),(#909,#910,#911),
(#912,#913,#914),(#915,#916,#917),(#918,#919,#920),(#921,#922,#923),(#924,
#925,#926),(#927,#928,#929),(#930,#931,#932),(#933,#934,#935),(#936,#937,
#938),(#939,#940,#941),(#942,#943,#944),(#945,#946,#947),(#948,#949,#950),
(#951,#952,#953),(#954,#955,#956),(#957,#958,#959),(#960,#961,#962),(#963,
#964,#965),(#966,#967,#968),(#969,#970,#971),(#972,#973,#974),(#975,#976,
#977),(#978,#979,#980),(#981,#982,#983),(#984,#985,#986),(#987,#988,#989),
(#990,#991,#992),(#993,#994,#995),(#996,#997,#998),(#999,#1000,#1001),(#1002,
#1003,#1004),(#1005,#1006,#1007),(#1008,#1009,#1010),(#1011,#1012,#1013),
(#1014,#1015,#1016),(#1017,#1018,#1019),(#1020,#1021,#1022),(#1023,#1024,
#1025),(#1026,#1027,#1028),(#1029,#1030,#1031)),.UNSPECIFIED.,.T.,.F.,.F.)
B_SPLINE_SURFACE_WITH_KNOTS((1,3,1,1,1,1,1,1,1,1,1,1,1,1,1,1,1,1,1,1,1,
1,1,1,1,1,1,1,1,1,1,1,1,1,1,1,1,1,1,1,1,1,1,1,1,1,1,1,1,1,1,1,1,1,3,1),
(3,3),(-0.000708222456622998,0.,0.000708222456622999,0.001416444913246,
0.002124667369869,0.002832889826492,0.004249334739738,0.005665779652984,
0.00708222456622999,0.00849866947947599,0.00991511439272199,0.011331559305968,
0.01416444913246,0.016997338958952,0.019830228785444,0.022663118611936,
0.025496008438428,0.02832889826492,0.031161788091412,0.033994677917904,
0.036827567744396,0.038244012657642,0.039660457570888,0.041076902484134,
0.04249334739738,0.043201569854003,0.043909792310626,0.044618014767249,
0.045326237223872,0.046034459680495,0.046742682137118,0.047450904593741,
0.048159127050364,0.04957557196361,0.050992016876856,0.052408461790102,
0.053824906703348,0.05665779652984,0.059490686356332,0.062323576182824,
0.065156466009316,0.067989355835808,0.0708222456622999,0.0736551354887919,
0.076488025315284,0.0793209151417759,0.0821538049682679,0.0835702498815139,
0.0849866947947599,0.0864031397080059,0.0878195846212519,0.0885278070778749,
0.0892360295344979,0.0899442519911209,0.0906524744477439,0.0913606969043669),
(0.,1.),.UNSPECIFIED.)
GEOMETRIC_REPRESENTATION_ITEM()
RATIONAL_B_SPLINE_SURFACE(((1.,0.707106781186548,1.),(1.,0.707106781186548,
1.),(1.,0.707106781186548,1.),(1.,0.707106781186547,1.),(1.,0.707106781186547,
1.),(1.,0.707106781186548,1.),(1.,0.707106781186548,1.),(1.,0.707106781186547,
1.),(1.,0.707106781186547,1.),(1.,0.707106781186547,1.),(1.,0.707106781186548,
1.),(1.,0.707106781186547,1.),(1.,0.707106781186548,1.),(1.,0.707106781186547,
1.),(1.,0.707106781186548,1.),(1.,0.707106781186548,1.),(1.,0.707106781186547,
1.),(1.,0.707106781186548,1.),(1.,0.707106781186547,1.),(1.,0.707106781186548,
1.),(1.,0.707106781186547,1.),(1.,0.707106781186548,1.),(1.,0.707106781186548,
1.),(1.,0.707106781186547,1.),(1.,0.707106781186548,1.),(1.,0.707106781186548,
1.),(1.,0.707106781186548,1.),(1.,0.707106781186548,1.),(1.,0.707106781186547,
1.),(1.,0.707106781186548,1.),(1.,0.707106781186547,1.),(1.,0.707106781186548,
1.),(1.,0.707106781186547,1.),(1.,0.707106781186548,1.),(1.,0.707106781186548,
1.),(1.,0.707106781186547,1.),(1.,0.707106781186548,1.),(1.,0.707106781186548,
1.),(1.,0.707106781186547,1.),(1.,0.707106781186548,1.),(1.,0.707106781186548,
1.),(1.,0.707106781186547,1.),(1.,0.707106781186547,1.),(1.,0.707106781186548,
1.),(1.,0.707106781186547,1.),(1.,0.707106781186548,1.),(1.,0.707106781186548,
1.),(1.,0.707106781186547,1.),(1.,0.707106781186548,1.),(1.,0.707106781186547,
1.),(1.,0.707106781186547,1.),(1.,0.707106781186548,1.),(1.,0.707106781186547,
1.),(1.,0.707106781186548,1.),(1.,0.707106781186548,1.),(1.,0.707106781186548,
1.)))
REPRESENTATION_ITEM('')
SURFACE()
);
#104=ELLIPSE('',#420,0.025,0.015);
#105=ORIENTED_EDGE('',*,*,#209,.F.);
#106=ORIENTED_EDGE('',*,*,#210,.T.);
#107=ORIENTED_EDGE('',*,*,#211,.T.);
#108=ORIENTED_EDGE('',*,*,#211,.F.);
#109=ORIENTED_EDGE('',*,*,#210,.F.);
#110=ORIENTED_EDGE('',*,*,#212,.F.);
#111=ORIENTED_EDGE('',*,*,#212,.T.);
#112=ORIENTED_EDGE('',*,*,#209,.T.);
#113=ORIENTED_EDGE('',*,*,#213,.F.);
#114=ORIENTED_EDGE('',*,*,#214,.T.);
#115=ORIENTED_EDGE('',*,*,#215,.T.);
#116=ORIENTED_EDGE('',*,*,#216,.T.);
#117=ORIENTED_EDGE('',*,*,#217,.T.);
#118=ORIENTED_EDGE('',*,*,#218,.T.);
#119=ORIENTED_EDGE('',*,*,#219,.F.);
#120=ORIENTED_EDGE('',*,*,#220,.T.);
#121=ORIENTED_EDGE('',*,*,#221,.F.);
#122=ORIENTED_EDGE('',*,*,#222,.T.);
#123=ORIENTED_EDGE('',*,*,#223,.T.);
#124=ORIENTED_EDGE('',*,*,#224,.T.);
#125=ORIENTED_EDGE('',*,*,#225,.F.);
#126=ORIENTED_EDGE('',*,*,#226,.T.);
#127=ORIENTED_EDGE('',*,*,#227,.T.);
#128=ORIENTED_EDGE('',*,*,#228,.T.);
#129=ORIENTED_EDGE('',*,*,#229,.F.);
#130=ORIENTED_EDGE('',*,*,#230,.F.);
#131=ORIENTED_EDGE('',*,*,#231,.T.);
#132=ORIENTED_EDGE('',*,*,#232,.F.);
#133=ORIENTED_EDGE('',*,*,#233,.T.);
#134=ORIENTED_EDGE('',*,*,#234,.F.);
#135=ORIENTED_EDGE('',*,*,#235,.F.);
#136=ORIENTED_EDGE('',*,*,#236,.F.);
#137=ORIENTED_EDGE('',*,*,#219,.T.);
#138=ORIENTED_EDGE('',*,*,#237,.T.);
#139=ORIENTED_EDGE('',*,*,#221,.T.);
#140=ORIENTED_EDGE('',*,*,#238,.T.);
#141=ORIENTED_EDGE('',*,*,#227,.F.);
#142=ORIENTED_EDGE('',*,*,#239,.T.);
#143=ORIENTED_EDGE('',*,*,#215,.F.);
#144=ORIENTED_EDGE('',*,*,#240,.T.);
#145=ORIENTED_EDGE('',*,*,#223,.F.);
#146=ORIENTED_EDGE('',*,*,#241,.T.);
#147=ORIENTED_EDGE('',*,*,#217,.F.);
#148=ORIENTED_EDGE('',*,*,#242,.T.);
#149=ORIENTED_EDGE('',*,*,#213,.T.);
#150=ORIENTED_EDGE('',*,*,#243,.T.);
#151=ORIENTED_EDGE('',*,*,#225,.T.);
#152=ORIENTED_EDGE('',*,*,#244,.T.);
#153=ORIENTED_EDGE('',*,*,#237,.F.);
#154=ORIENTED_EDGE('',*,*,#218,.F.);
#155=ORIENTED_EDGE('',*,*,#241,.F.);
#156=ORIENTED_EDGE('',*,*,#222,.F.);
#157=ORIENTED_EDGE('',*,*,#240,.F.);
#158=ORIENTED_EDGE('',*,*,#214,.F.);
#159=ORIENTED_EDGE('',*,*,#242,.F.);
#160=ORIENTED_EDGE('',*,*,#220,.F.);
#161=ORIENTED_EDGE('',*,*,#239,.F.);
#162=ORIENTED_EDGE('',*,*,#226,.F.);
#163=ORIENTED_EDGE('',*,*,#243,.F.);
#164=ORIENTED_EDGE('',*,*,#216,.F.);
#165=ORIENTED_EDGE('',*,*,#238,.F.);
#166=ORIENTED_EDGE('',*,*,#224,.F.);
#167=ORIENTED_EDGE('',*,*,#244,.F.);
#168=ORIENTED_EDGE('',*,*,#228,.F.);
#169=ORIENTED_EDGE('',*,*,#245,.T.);
#170=ORIENTED_EDGE('',*,*,#246,.F.);
#171=ORIENTED_EDGE('',*,*,#231,.F.);
#172=ORIENTED_EDGE('',*,*,#247,.F.);
#173=ORIENTED_EDGE('',*,*,#248,.F.);
#174=ORIENTED_EDGE('',*,*,#249,.F.);
#175=ORIENTED_EDGE('',*,*,#229,.T.);
#176=ORIENTED_EDGE('',*,*,#250,.F.);
#177=ORIENTED_EDGE('',*,*,#235,.T.);
#178=ORIENTED_EDGE('',*,*,#251,.F.);
#179=ORIENTED_EDGE('',*,*,#252,.F.);
#180=ORIENTED_EDGE('',*,*,#253,.F.);
#181=ORIENTED_EDGE('',*,*,#254,.T.);
#182=ORIENTED_EDGE('',*,*,#255,.F.);
#183=ORIENTED_EDGE('',*,*,#233,.F.);
#184=ORIENTED_EDGE('',*,*,#256,.F.);
#185=ORIENTED_EDGE('',*,*,#252,.T.);
#186=ORIENTED_EDGE('',*,*,#257,.F.);
#187=ORIENTED_EDGE('',*,*,#254,.F.);
#188=ORIENTED_EDGE('',*,*,#258,.F.);
#189=ORIENTED_EDGE('',*,*,#245,.F.);
#190=ORIENTED_EDGE('',*,*,#259,.F.);
#191=ORIENTED_EDGE('',*,*,#248,.T.);
#192=ORIENTED_EDGE('',*,*,#260,.F.);
#193=ORIENTED_EDGE('',*,*,#236,.T.);
#194=ORIENTED_EDGE('',*,*,#253,.T.);
#195=ORIENTED_EDGE('',*,*,#260,.T.);
#196=ORIENTED_EDGE('',*,*,#250,.T.);
#197=ORIENTED_EDGE('',*,*,#230,.T.);
#198=ORIENTED_EDGE('',*,*,#249,.T.);
#199=ORIENTED_EDGE('',*,*,#259,.T.);
#200=ORIENTED_EDGE('',*,*,#247,.T.);
#201=ORIENTED_EDGE('',*,*,#232,.T.);
#202=ORIENTED_EDGE('',*,*,#246,.T.);
#203=ORIENTED_EDGE('',*,*,#258,.T.);
#204=ORIENTED_EDGE('',*,*,#256,.T.);
#205=ORIENTED_EDGE('',*,*,#234,.T.);
#206=ORIENTED_EDGE('',*,*,#255,.T.);
#207=ORIENTED_EDGE('',*,*,#257,.T.);
#208=ORIENTED_EDGE('',*,*,#251,.T.);
#209=EDGE_CURVE('',#261,#261,#297,.T.);
#210=EDGE_CURVE('',#262,#262,#104,.T.);
#211=EDGE_CURVE('',#263,#263,#298,.T.);
#212=EDGE_CURVE('',#264,#264,#299,.T.);
#213=EDGE_CURVE('',#265,#266,#34,.T.);
#214=EDGE_CURVE('',#265,#267,#35,.F.);
#215=EDGE_CURVE('',#267,#268,#36,.T.);
#216=EDGE_CURVE('',#268,#266,#37,.T.);
#217=EDGE_CURVE('',#269,#270,#38,.T.);
#218=EDGE_CURVE('',#270,#271,#39,.F.);
#219=EDGE_CURVE('',#272,#271,#40,.T.);
#220=EDGE_CURVE('',#272,#269,#41,.T.);
#221=EDGE_CURVE('',#273,#274,#42,.T.);
#222=EDGE_CURVE('',#273,#275,#43,.T.);
#223=EDGE_CURVE('',#275,#276,#44,.T.);
#224=EDGE_CURVE('',#276,#274,#45,.F.);
#225=EDGE_CURVE('',#277,#278,#46,.T.);
#226=EDGE_CURVE('',#277,#279,#47,.F.);
#227=EDGE_CURVE('',#279,#280,#48,.T.);
#228=EDGE_CURVE('',#280,#278,#49,.T.);
#229=EDGE_CURVE('',#281,#282,#50,.T.);
#230=EDGE_CURVE('',#283,#281,#18,.T.);
#231=EDGE_CURVE('',#283,#284,#51,.T.);
#232=EDGE_CURVE('',#285,#284,#19,.T.);
#233=EDGE_CURVE('',#285,#286,#52,.T.);
#234=EDGE_CURVE('',#287,#286,#20,.T.);
#235=EDGE_CURVE('',#288,#287,#53,.T.);
#236=EDGE_CURVE('',#282,#288,#21,.T.);
#237=EDGE_CURVE('',#271,#273,#22,.T.);
#238=EDGE_CURVE('',#274,#280,#23,.T.);
#239=EDGE_CURVE('',#279,#268,#24,.T.);
#240=EDGE_CURVE('',#267,#272,#25,.T.);
#241=EDGE_CURVE('',#275,#270,#26,.F.);
#242=EDGE_CURVE('',#269,#265,#27,.F.);
#243=EDGE_CURVE('',#266,#277,#28,.F.);
#244=EDGE_CURVE('',#278,#276,#29,.F.);
#245=EDGE_CURVE('',#289,#290,#54,.T.);
#246=EDGE_CURVE('',#284,#290,#55,.F.);
#247=EDGE_CURVE('',#289,#283,#56,.T.);
#248=EDGE_CURVE('',#291,#292,#57,.T.);
#249=EDGE_CURVE('',#281,#291,#58,.F.);
#250=EDGE_CURVE('',#292,#282,#59,.T.);
#251=EDGE_CURVE('',#293,#287,#60,.T.);
#252=EDGE_CURVE('',#294,#293,#61,.T.);
#253=EDGE_CURVE('',#288,#294,#62,.F.);
#254=EDGE_CURVE('',#295,#296,#63,.T.);
#255=EDGE_CURVE('',#286,#296,#64,.F.);
#256=EDGE_CURVE('',#295,#285,#65,.T.);
#257=EDGE_CURVE('',#296,#293,#30,.F.);
#258=EDGE_CURVE('',#290,#295,#31,.F.);
#259=EDGE_CURVE('',#291,#289,#32,.F.);
#260=EDGE_CURVE('',#294,#292,#33,.F.);
#261=VERTEX_POINT('',#609);
#262=VERTEX_POINT('',#611);
#263=VERTEX_POINT('',#652);
#264=VERTEX_POINT('',#863);
#265=VERTEX_POINT('',#1035);
#266=VERTEX_POINT('',#1036);
#267=VERTEX_POINT('',#1038);
#268=VERTEX_POINT('',#1040);
#269=VERTEX_POINT('',#1044);
#270=VERTEX_POINT('',#1045);
#271=VERTEX_POINT('',#1047);
#272=VERTEX_POINT('',#1049);
#273=VERTEX_POINT('',#1053);
#274=VERTEX_POINT('',#1054);
#275=VERTEX_POINT('',#1056);
#276=VERTEX_POINT('',#1058);
#277=VERTEX_POINT('',#1062);
#278=VERTEX_POINT('',#1063);
#279=VERTEX_POINT('',#1065);
#280=VERTEX_POINT('',#1067);
#281=VERTEX_POINT('',#1071);
#282=VERTEX_POINT('',#1072);
#283=VERTEX_POINT('',#1074);
#284=VERTEX_POINT('',#1076);
#285=VERTEX_POINT('',#1078);
#286=VERTEX_POINT('',#1080);
#287=VERTEX_POINT('',#1082);
#288=VERTEX_POINT('',#1084);
#289=VERTEX_POINT('',#1101);
#290=VERTEX_POINT('',#1102);
#291=VERTEX_POINT('',#1107);
#292=VERTEX_POINT('',#1108);
#293=VERTEX_POINT('',#1113);
#294=VERTEX_POINT('',#1115);
#295=VERTEX_POINT('',#1119);
#296=VERTEX_POINT('',#1120);
#297=B_SPLINE_CURVE_WITH_KNOTS('',3,(#575,#576,#577,#578,#579,#580,#581,
#582,#583,#584,#585,#586,#587,#588,#589,#590,#591,#592,#593,#594,#595,#596,
#597,#598,#599,#600,#601,#602,#603,#604,#605,#606,#607,#608),
 .UNSPECIFIED.,.T.,.F.,(1,1,1,1,1,1,1,1,1,1,1,1,1,1,1,1,1,1,1,1,1,1,1,1,
1,1,1,1,1,1,1,1,1,1,1,1,1,1),(-0.00762089088616566,-0.00381044544308283,
-0.00190522272154142,0.,0.00381044544308283,0.00762089088616567,0.0114313363292485,
0.0152417817723313,0.0190522272154142,0.022862672658497,0.0266731181015798,
0.0304835635446627,0.0381044544308283,0.0419148998739112,0.045725345316994,
0.0495357907600768,0.0533462362031597,0.0571566816462425,0.0609671270893253,
0.0647775725324082,0.068588017975491,0.0723984634185738,0.0762089088616567,
0.0800193543047395,0.0838297997478223,0.0876402451909051,0.091450690633988,
0.0990715815201536,0.102882026963236,0.106692472406319,0.110502917849402,
0.114313363292485,0.118123808735568,0.120029031457109,0.121934254178651,
0.125744699621733,0.129555145064816,0.133365590507899),.UNSPECIFIED.);
#298=B_SPLINE_CURVE_WITH_KNOTS('',3,(#613,#614,#615,#616,#617,#618,#619,
#620,#621,#622,#623,#624,#625,#626,#627,#628,#629,#630,#631,#632,#633,#634,
#635,#636,#637,#638,#639,#640,#641,#642,#643,#644,#645,#646,#647,#648,#649,
#650,#651),.UNSPECIFIED.,.T.,.F.,(1,1,1,1,1,1,1,1,1,1,1,1,1,1,1,1,1,1,1,
1,1,1,1,1,1,1,1,1,1,1,1,1,1,1,1,1,1,1,1,1,1,1,1),(-0.00429614810493217,
-0.00286409873662145,-0.00143204936831072,0.,0.00143204936831072,0.00286409873662144,
0.00572819747324289,0.00859229620986433,0.0114563949464858,0.0143204936831072,
0.0171845924197287,0.0200486911563501,0.0229127898929715,0.025776888629593,
0.0286409873662144,0.0315050861028359,0.0343691848394573,0.0372332835760788,
0.0400973823127002,0.0429614810493216,0.0443935304176324,0.0458255797859431,
0.0472576291542538,0.0486896785225645,0.0501217278908753,0.051553777259186,
0.0544178759958074,0.0572819747324289,0.0601460734690503,0.0630101722056717,
0.0687383696789146,0.0744665671521575,0.077330665888779,0.0801947646254004,
0.0830588633620218,0.0859229620986433,0.087355011466954,0.0887870608352647,
0.0902191102035755,0.0916511595718862,0.0930832089401969,0.0945152583085076,
0.0973793570451291),.UNSPECIFIED.);
#299=B_SPLINE_CURVE_WITH_KNOTS('',3,(#825,#826,#827,#828,#829,#830,#831,
#832,#833,#834,#835,#836,#837,#838,#839,#840,#841,#842,#843,#844,#845,#846,
#847,#848,#849,#850,#851,#852,#853,#854,#855,#856,#857,#858,#859,#860,#861,
#862),.UNSPECIFIED.,.T.,.F.,(1,1,1,1,1,1,1,1,1,1,1,1,1,1,1,1,1,1,1,1,1,
1,1,1,1,1,1,1,1,1,1,1,1,1,1,1,1,1,1,1,1,1),(-0.00566574726957929,-0.00283287363478965,
-0.00141643681739483,0.,0.00141643681739482,0.00283287363478965,0.00566574726957929,
0.00849862090436894,0.0113314945391586,0.0141643681739482,0.0169972418087379,
0.0226629890783172,0.0283287363478965,0.0311616099826861,0.0339944836174758,
0.0368273572522654,0.039660230887055,0.0410766677044499,0.0424931045218447,
0.0439095413392395,0.0453259781566343,0.0467424149740292,0.048158851791424,
0.0509917254262136,0.0538245990610033,0.0566574726957929,0.0594903463305826,
0.0623232199653722,0.0651560936001619,0.0679889672349515,0.0708218408697411,
0.0736547145045308,0.0764875881393204,0.0793204617741101,0.0821533354088997,
0.0849862090436894,0.087819082678479,0.0892355194958738,0.0906519563132687,
0.0920683931306635,0.0934848299480583,0.096317703582848),.UNSPECIFIED.);
#300=EDGE_LOOP('',(#105));
#301=EDGE_LOOP('',(#106));
#302=EDGE_LOOP('',(#107));
#303=EDGE_LOOP('',(#108));
#304=EDGE_LOOP('',(#109));
#305=EDGE_LOOP('',(#110));
#306=EDGE_LOOP('',(#111));
#307=EDGE_LOOP('',(#112));
#308=EDGE_LOOP('',(#113,#114,#115,#116));
#309=EDGE_LOOP('',(#117,#118,#119,#120));
#310=EDGE_LOOP('',(#121,#122,#123,#124));
#311=EDGE_LOOP('',(#125,#126,#127,#128));
#312=EDGE_LOOP('',(#129,#130,#131,#132,#133,#134,#135,#136));
#313=EDGE_LOOP('',(#137,#138,#139,#140,#141,#142,#143,#144));
#314=EDGE_LOOP('',(#145,#146,#147,#148,#149,#150,#151,#152));
#315=EDGE_LOOP('',(#153,#154,#155,#156));
#316=EDGE_LOOP('',(#157,#158,#159,#160));
#317=EDGE_LOOP('',(#161,#162,#163,#164));
#318=EDGE_LOOP('',(#165,#166,#167,#168));
#319=EDGE_LOOP('',(#169,#170,#171,#172));
#320=EDGE_LOOP('',(#173,#174,#175,#176));
#321=EDGE_LOOP('',(#177,#178,#179,#180));
#322=EDGE_LOOP('',(#181,#182,#183,#184));
#323=EDGE_LOOP('',(#185,#186,#187,#188,#189,#190,#191,#192));
#324=EDGE_LOOP('',(#193,#194,#195,#196));
#325=EDGE_LOOP('',(#197,#198,#199,#200));
#326=EDGE_LOOP('',(#201,#202,#203,#204));
#327=EDGE_LOOP('',(#205,#206,#207,#208));
#328=FACE_BOUND('',#300,.T.);
#329=FACE_BOUND('',#301,.T.);
#330=FACE_BOUND('',#302,.T.);
#331=FACE_BOUND('',#303,.T.);
#332=FACE_BOUND('',#304,.T.);
#333=FACE_BOUND('',#305,.T.);
#334=FACE_BOUND('',#306,.T.);
#335=FACE_BOUND('',#307,.T.);
#336=FACE_BOUND('',#308,.T.);
#337=FACE_BOUND('',#309,.T.);
#338=FACE_BOUND('',#310,.T.);
#339=FACE_BOUND('',#311,.T.);
#340=FACE_BOUND('',#312,.T.);
#341=FACE_BOUND('',#313,.T.);
#342=FACE_BOUND('',#314,.T.);
#343=FACE_BOUND('',#315,.T.);
#344=FACE_BOUND('',#316,.T.);
#345=FACE_BOUND('',#317,.T.);
#346=FACE_BOUND('',#318,.T.);
#347=FACE_BOUND('',#319,.T.);
#348=FACE_BOUND('',#320,.T.);
#349=FACE_BOUND('',#321,.T.);
#350=FACE_BOUND('',#322,.T.);
#351=FACE_BOUND('',#323,.T.);
#352=FACE_BOUND('',#324,.T.);
#353=FACE_BOUND('',#325,.T.);
#354=FACE_BOUND('',#326,.T.);
#355=FACE_BOUND('',#327,.T.);
#356=PLANE('',#419);
#357=PLANE('',#421);
#358=PLANE('',#422);
#359=PLANE('',#424);
#360=PLANE('',#425);
#361=PLANE('',#426);
#362=PLANE('',#427);
#363=PLANE('',#428);
#364=PLANE('',#437);
#365=PLANE('',#446);
#366=PLANE('',#447);
#367=PLANE('',#448);
#368=PLANE('',#449);
#369=PLANE('',#450);
#370=ADVANCED_FACE('',(#328,#329),#356,.T.);
#371=ADVANCED_FACE('',(#330),#357,.F.);
#372=ADVANCED_FACE('',(#331,#332),#102,.T.);
#373=ADVANCED_FACE('',(#333),#358,.T.);
#374=ADVANCED_FACE('',(#334,#335),#103,.F.);
#375=ADVANCED_FACE('',(#336),#359,.T.);
#376=ADVANCED_FACE('',(#337),#360,.F.);
#377=ADVANCED_FACE('',(#338),#361,.F.);
#378=ADVANCED_FACE('',(#339),#362,.T.);
#379=ADVANCED_FACE('',(#340,#341),#363,.T.);
#380=ADVANCED_FACE('',(#342),#364,.F.);
#381=ADVANCED_FACE('',(#343),#10,.T.);
#382=ADVANCED_FACE('',(#344),#11,.T.);
#383=ADVANCED_FACE('',(#345),#12,.T.);
#384=ADVANCED_FACE('',(#346),#13,.T.);
#385=ADVANCED_FACE('',(#347),#365,.F.);
#386=ADVANCED_FACE('',(#348),#366,.T.);
#387=ADVANCED_FACE('',(#349),#367,.T.);
#388=ADVANCED_FACE('',(#350),#368,.F.);
#389=ADVANCED_FACE('',(#351),#369,.T.);
#390=ADVANCED_FACE('',(#352),#14,.F.);
#391=ADVANCED_FACE('',(#353),#15,.F.);
#392=ADVANCED_FACE('',(#354),#16,.F.);
#393=ADVANCED_FACE('',(#355),#17,.F.);
#394=CLOSED_SHELL('',(#370,#371,#372,#373,#374));
#395=CLOSED_SHELL('',(#375,#376,#377,#378,#379,#380,#381,#382,#383,#384,
#385,#386,#387,#388,#389,#390,#391,#392,#393));
#396=STYLED_ITEM('',(#398),#412);
#397=STYLED_ITEM('',(#399),#413);
#398=PRESENTATION_STYLE_ASSIGNMENT((#400));
#399=PRESENTATION_STYLE_ASSIGNMENT((#401));
#400=SURFACE_STYLE_USAGE(.BOTH.,#402);
#401=SURFACE_STYLE_USAGE(.BOTH.,#403);
#402=SURFACE_SIDE_STYLE('',(#404));
#403=SURFACE_SIDE_STYLE('',(#405));
#404=SURFACE_STYLE_FILL_AREA(#406);
#405=SURFACE_STYLE_FILL_AREA(#407);
#406=FILL_AREA_STYLE('',(#408));
#407=FILL_AREA_STYLE('',(#409));
#408=FILL_AREA_STYLE_COLOUR('',#410);
#409=FILL_AREA_STYLE_COLOUR('',#411);
#410=COLOUR_RGB('',0.647058823529412,0.647058823529412,0.647058823529412);
#411=COLOUR_RGB('',0.615686274509804,0.811764705882353,0.929411764705882);
#412=MANIFOLD_SOLID_BREP('Part 2',#394);
#413=MANIFOLD_SOLID_BREP('Part 1',#395);
#414=SHAPE_DEFINITION_REPRESENTATION(#1144,#416);
#415=SHAPE_DEFINITION_REPRESENTATION(#1145,#417);
#416=SHAPE_REPRESENTATION('Part 2',(#418),#1134);
#417=SHAPE_REPRESENTATION('Part 1',(#423),#1135);
#418=AXIS2_PLACEMENT_3D('',#573,#459,#460);
#419=AXIS2_PLACEMENT_3D('',#574,#461,#462);
#420=AXIS2_PLACEMENT_3D('',#610,#463,#464);
#421=AXIS2_PLACEMENT_3D('',#612,#465,#466);
#422=AXIS2_PLACEMENT_3D('',#824,#467,#468);
#423=AXIS2_PLACEMENT_3D('',#1032,#469,#470);
#424=AXIS2_PLACEMENT_3D('',#1033,#471,#472);
#425=AXIS2_PLACEMENT_3D('',#1042,#477,#478);
#426=AXIS2_PLACEMENT_3D('',#1051,#483,#484);
#427=AXIS2_PLACEMENT_3D('',#1060,#489,#490);
#428=AXIS2_PLACEMENT_3D('',#1069,#495,#496);
#429=AXIS2_PLACEMENT_3D('',#1073,#498,#499);
#430=AXIS2_PLACEMENT_3D('',#1077,#501,#502);
#431=AXIS2_PLACEMENT_3D('',#1081,#504,#505);
#432=AXIS2_PLACEMENT_3D('',#1085,#507,#508);
#433=AXIS2_PLACEMENT_3D('',#1086,#509,#510);
#434=AXIS2_PLACEMENT_3D('',#1087,#511,#512);
#435=AXIS2_PLACEMENT_3D('',#1088,#513,#514);
#436=AXIS2_PLACEMENT_3D('',#1089,#515,#516);
#437=AXIS2_PLACEMENT_3D('',#1090,#517,#518);
#438=AXIS2_PLACEMENT_3D('',#1091,#519,#520);
#439=AXIS2_PLACEMENT_3D('',#1092,#521,#522);
#440=AXIS2_PLACEMENT_3D('',#1093,#523,#524);
#441=AXIS2_PLACEMENT_3D('',#1094,#525,#526);
#442=AXIS2_PLACEMENT_3D('',#1095,#527,#528);
#443=AXIS2_PLACEMENT_3D('',#1096,#529,#530);
#444=AXIS2_PLACEMENT_3D('',#1097,#531,#532);
#445=AXIS2_PLACEMENT_3D('',#1098,#533,#534);
#446=AXIS2_PLACEMENT_3D('',#1099,#535,#536);
#447=AXIS2_PLACEMENT_3D('',#1105,#540,#541);
#448=AXIS2_PLACEMENT_3D('',#1111,#545,#546);
#449=AXIS2_PLACEMENT_3D('',#1117,#550,#551);
#450=AXIS2_PLACEMENT_3D('',#1123,#555,#556);
#451=AXIS2_PLACEMENT_3D('',#1124,#557,#558);
#452=AXIS2_PLACEMENT_3D('',#1125,#559,#560);
#453=AXIS2_PLACEMENT_3D('',#1126,#561,#562);
#454=AXIS2_PLACEMENT_3D('',#1127,#563,#564);
#455=AXIS2_PLACEMENT_3D('',#1128,#565,#566);
#456=AXIS2_PLACEMENT_3D('',#1129,#567,#568);
#457=AXIS2_PLACEMENT_3D('',#1130,#569,#570);
#458=AXIS2_PLACEMENT_3D('',#1131,#571,#572);
#459=DIRECTION('',(0.,0.,1.));
#460=DIRECTION('',(1.,0.,0.));
#461=DIRECTION('',(0.,0.,1.));
#462=DIRECTION('',(1.,0.,0.));
#463=DIRECTION('',(0.,0.,1.));
#464=DIRECTION('',(1.,0.,0.));
#465=DIRECTION('',(0.,0.,1.));
#466=DIRECTION('',(1.,0.,0.));
#467=DIRECTION('',(0.,0.,1.));
#468=DIRECTION('',(1.,0.,0.));
#469=DIRECTION('',(0.,0.,1.));
#470=DIRECTION('',(1.,0.,0.));
#471=DIRECTION('',(0.,1.,0.));
#472=DIRECTION('',(0.,0.,1.));
#473=DIRECTION('',(1.,0.,0.));
#474=DIRECTION('',(0.,0.,-1.));
#475=DIRECTION('',(1.,0.,0.));
#476=DIRECTION('',(0.,0.,-1.));
#477=DIRECTION('',(1.,-2.31296463463574E-16,0.));
#478=DIRECTION('',(2.31296463463574E-16,1.,0.));
#479=DIRECTION('',(-2.31296463463574E-16,-1.,0.));
#480=DIRECTION('',(0.,0.,-1.));
#481=DIRECTION('',(-2.31296463463574E-16,-1.,0.));
#482=DIRECTION('',(0.,0.,-1.));
#483=DIRECTION('',(0.,1.,0.));
#484=DIRECTION('',(0.,0.,1.));
#485=DIRECTION('',(1.,0.,0.));
#486=DIRECTION('',(0.,0.,-1.));
#487=DIRECTION('',(1.,0.,0.));
#488=DIRECTION('',(0.,0.,-1.));
#489=DIRECTION('',(1.,-2.31296463463574E-16,0.));
#490=DIRECTION('',(2.31296463463574E-16,1.,0.));
#491=DIRECTION('',(-2.31296463463574E-16,-1.,0.));
#492=DIRECTION('',(0.,0.,-1.));
#493=DIRECTION('',(-2.31296463463574E-16,-1.,0.));
#494=DIRECTION('',(0.,0.,-1.));
#495=DIRECTION('',(0.,0.,1.));
#496=DIRECTION('',(1.,0.,0.));
#497=DIRECTION('',(-2.31296463463574E-16,-1.,0.));
#498=DIRECTION('',(0.,0.,1.));
#499=DIRECTION('',(1.,0.,0.));
#500=DIRECTION('',(1.,0.,0.));
#501=DIRECTION('',(0.,0.,1.));
#502=DIRECTION('',(1.,0.,0.));
#503=DIRECTION('',(-2.31296463463574E-16,-1.,0.));
#504=DIRECTION('',(0.,0.,1.));
#505=DIRECTION('',(1.,0.,0.));
#506=DIRECTION('',(1.,0.,0.));
#507=DIRECTION('',(0.,0.,1.));
#508=DIRECTION('',(1.,0.,0.));
#509=DIRECTION('',(0.,0.,1.));
#510=DIRECTION('',(1.,0.,0.));
#511=DIRECTION('',(0.,0.,1.));
#512=DIRECTION('',(1.,0.,0.));
#513=DIRECTION('',(0.,0.,1.));
#514=DIRECTION('',(1.,0.,0.));
#515=DIRECTION('',(0.,0.,1.));
#516=DIRECTION('',(1.,0.,0.));
#517=DIRECTION('',(0.,0.,1.));
#518=DIRECTION('',(1.,0.,0.));
#519=DIRECTION('',(0.,0.,1.));
#520=DIRECTION('',(1.,0.,0.));
#521=DIRECTION('',(0.,0.,1.));
#522=DIRECTION('',(1.,0.,0.));
#523=DIRECTION('',(0.,0.,1.));
#524=DIRECTION('',(1.,0.,0.));
#525=DIRECTION('',(0.,0.,1.));
#526=DIRECTION('',(1.,0.,0.));
#527=DIRECTION('',(0.,0.,-1.));
#528=DIRECTION('',(-1.,0.,0.));
#529=DIRECTION('',(0.,0.,1.));
#530=DIRECTION('',(1.,0.,0.));
#531=DIRECTION('',(0.,0.,-1.));
#532=DIRECTION('',(-1.,0.,0.));
#533=DIRECTION('',(0.,0.,1.));
#534=DIRECTION('',(1.,0.,0.));
#535=DIRECTION('',(0.,1.,0.));
#536=DIRECTION('',(0.,0.,1.));
#537=DIRECTION('',(1.,0.,0.));
#538=DIRECTION('',(0.,0.,1.));
#539=DIRECTION('',(0.,0.,1.));
#540=DIRECTION('',(1.,-2.31296463463574E-16,0.));
#541=DIRECTION('',(2.31296463463574E-16,1.,0.));
#542=DIRECTION('',(-2.31296463463574E-16,-1.,0.));
#543=DIRECTION('',(0.,0.,1.));
#544=DIRECTION('',(0.,0.,1.));
#545=DIRECTION('',(0.,1.,0.));
#546=DIRECTION('',(0.,0.,1.));
#547=DIRECTION('',(0.,0.,1.));
#548=DIRECTION('',(1.,0.,0.));
#549=DIRECTION('',(0.,0.,1.));
#550=DIRECTION('',(1.,-2.31296463463574E-16,0.));
#551=DIRECTION('',(2.31296463463574E-16,1.,0.));
#552=DIRECTION('',(-2.31296463463574E-16,-1.,0.));
#553=DIRECTION('',(0.,0.,1.));
#554=DIRECTION('',(0.,0.,1.));
#555=DIRECTION('',(0.,0.,1.));
#556=DIRECTION('',(1.,0.,0.));
#557=DIRECTION('',(0.,0.,1.));
#558=DIRECTION('',(1.,0.,0.));
#559=DIRECTION('',(0.,0.,1.));
#560=DIRECTION('',(1.,0.,0.));
#561=DIRECTION('',(0.,0.,1.));
#562=DIRECTION('',(1.,0.,0.));
#563=DIRECTION('',(0.,0.,1.));
#564=DIRECTION('',(1.,0.,0.));
#565=DIRECTION('',(0.,0.,-1.));
#566=DIRECTION('',(-1.,0.,0.));
#567=DIRECTION('',(0.,0.,1.));
#568=DIRECTION('',(1.,0.,0.));
#569=DIRECTION('',(0.,0.,-1.));
#570=DIRECTION('',(-1.,0.,0.));
#571=DIRECTION('',(0.,0.,1.));
#572=DIRECTION('',(1.,0.,0.));
#573=CARTESIAN_POINT('',(0.,0.,0.));
#574=CARTESIAN_POINT('',(0.00367961402974276,0.0556960371510014,0.006));
#575=CARTESIAN_POINT('',(-0.0201629500505134,0.0576165673967835,0.006));
#576=CARTESIAN_POINT('',(-0.0204793292242501,0.055052491861804,0.006));
#577=CARTESIAN_POINT('',(-0.0196770762830412,0.0518852935248672,0.006));
#578=CARTESIAN_POINT('',(-0.017376389052625,0.0487843575709803,0.006));
#579=CARTESIAN_POINT('',(-0.0143845438134531,0.0463808626545049,0.006));
#580=CARTESIAN_POINT('',(-0.0110649254192963,0.0445814754566165,0.006));
#581=CARTESIAN_POINT('',(-0.00748012061512341,0.0432416896257599,0.006));
#582=CARTESIAN_POINT('',(-0.00382310704980219,0.0423417405974176,0.006));
#583=CARTESIAN_POINT('',(-9.77720553624382E-5,0.0418117783345521,0.006));
#584=CARTESIAN_POINT('',(0.00498233575079653,0.0415807484428958,0.006));
#585=CARTESIAN_POINT('',(0.00996969235285793,0.0420401853323626,0.006));
#586=CARTESIAN_POINT('',(0.0148974367376672,0.0432596758507892,0.006));
#587=CARTESIAN_POINT('',(0.0184471048011786,0.0445912528886087,0.006));
#588=CARTESIAN_POINT('',(0.0218046384738358,0.0464199328162998,0.006));
#589=CARTESIAN_POINT('',(0.024760533252445,0.0488126733567783,0.006));
#590=CARTESIAN_POINT('',(0.0270560552546412,0.0519212742953709,0.006));
#591=CARTESIAN_POINT('',(0.02799877756977,0.0557323870843509,0.006));
#592=CARTESIAN_POINT('',(0.0270261056389189,0.0595245196109172,0.006));
#593=CARTESIAN_POINT('',(0.0247258596810813,0.0626167885963978,0.006));
#594=CARTESIAN_POINT('',(0.02173691180234,0.0650155442706344,0.006));
#595=CARTESIAN_POINT('',(0.0184166625814318,0.0668139070230137,0.006));
#596=CARTESIAN_POINT('',(0.0148378971437509,0.0681502444813017,0.006));
#597=CARTESIAN_POINT('',(0.0111936327656232,0.069048203864498,0.006));
#598=CARTESIAN_POINT('',(0.00745730141917922,0.0695804190329418,0.006));
#599=CARTESIAN_POINT('',(0.00238863675833054,0.0698107957122289,0.006));
#600=CARTESIAN_POINT('',(-0.00259560554104356,0.0693551581720158,0.006));
#601=CARTESIAN_POINT('',(-0.00753417632945615,0.0681332164242578,0.006));
#602=CARTESIAN_POINT('',(-0.011063400514709,0.0668112660345425,0.006));
#603=CARTESIAN_POINT('',(-0.0144227940531577,0.0649864208435924,0.006));
#604=CARTESIAN_POINT('',(-0.0173846966918708,0.0625997547633599,0.006));
#605=CARTESIAN_POINT('',(-0.0192963231466201,0.0600059984971276,0.006));
#606=CARTESIAN_POINT('',(-0.0201629500505134,0.0576165673967835,0.006));
#607=CARTESIAN_POINT('',(-0.0204793292242501,0.055052491861804,0.006));
#608=CARTESIAN_POINT('',(-0.0196770762830412,0.0518852935248672,0.006));
#609=CARTESIAN_POINT('',(-0.0203203859702572,0.0556960371510014,0.006));
#610=CARTESIAN_POINT('',(0.00367961402974276,0.0556960371510014,0.006));
#611=CARTESIAN_POINT('',(0.0286796140297428,0.0556960371510014,0.006));
#612=CARTESIAN_POINT('',(0.00367961402974276,0.0556960371510014,0.));
#613=CARTESIAN_POINT('',(0.0224393581668528,0.0571156311797638,0.));
#614=CARTESIAN_POINT('',(0.0227990104497231,0.0556930206861664,0.));
#615=CARTESIAN_POINT('',(0.0224422842127114,0.0542885089815793,0.));
#616=CARTESIAN_POINT('',(0.0214391554570221,0.0526858271889186,0.));
#617=CARTESIAN_POINT('',(0.0196817126592775,0.051069983617763,0.));
#618=CARTESIAN_POINT('',(0.0172833993470893,0.0496098440432204,0.));
#619=CARTESIAN_POINT('',(0.0146910480820196,0.0484897486964057,0.));
#620=CARTESIAN_POINT('',(0.0120150167454252,0.0476705523295871,0.));
#621=CARTESIAN_POINT('',(0.00929851400888955,0.0471083349316631,0.));
#622=CARTESIAN_POINT('',(0.0065415528510653,0.0467741687075703,0.));
#623=CARTESIAN_POINT('',(0.00373180305548407,0.046659326856619,0.));
#624=CARTESIAN_POINT('',(0.000937680098128554,0.046764999304641,0.));
#625=CARTESIAN_POINT('',(-0.00182293646979682,0.0470895770071586,0.));
#626=CARTESIAN_POINT('',(-0.00454869865496776,0.0476426281258814,0.));
#627=CARTESIAN_POINT('',(-0.00725256377581688,0.0484615366762706,0.));
#628=CARTESIAN_POINT('',(-0.00981994005344362,0.0495573239352335,0.));
#629=CARTESIAN_POINT('',(-0.0122405017795586,0.0510110315866827,0.));
#630=CARTESIAN_POINT('',(-0.0139973976408568,0.0525951664457966,0.));
#631=CARTESIAN_POINT('',(-0.0150316483132113,0.0541825093415945,0.));
#632=CARTESIAN_POINT('',(-0.0154368797364306,0.0555736291893087,0.));
#633=CARTESIAN_POINT('',(-0.0151298256067695,0.057006528495993,0.));
#634=CARTESIAN_POINT('',(-0.0143933577927033,0.0582242446280843,0.));
#635=CARTESIAN_POINT('',(-0.0134445728744266,0.0592861331628831,0.));
#636=CARTESIAN_POINT('',(-0.012003760362279,0.0605098997322753,0.));
#637=CARTESIAN_POINT('',(-0.0100085467595748,0.0617391896144772,0.));
#638=CARTESIAN_POINT('',(-0.00741118826635514,0.0628737179497959,0.));
#639=CARTESIAN_POINT('',(-0.00472090184269946,0.0637063014480575,0.));
#640=CARTESIAN_POINT('',(-0.00103232802635794,0.0644737423999568,0.));
#641=CARTESIAN_POINT('',(0.00360386061887368,0.0648409898082956,0.));
#642=CARTESIAN_POINT('',(0.00831802620290406,0.0644832202622431,0.));
#643=CARTESIAN_POINT('',(0.0119633529215843,0.063734762067616,0.));
#644=CARTESIAN_POINT('',(0.0146503857599726,0.06291777389649,0.));
#645=CARTESIAN_POINT('',(0.0172567541086853,0.0617956255185411,0.));
#646=CARTESIAN_POINT('',(0.0192587904838617,0.060583228923611,0.));
#647=CARTESIAN_POINT('',(0.0207197398300125,0.0593657428681965,0.));
#648=CARTESIAN_POINT('',(0.0216749292080092,0.0583253937867625,0.));
#649=CARTESIAN_POINT('',(0.0224393581668528,0.0571156311797638,0.));
#650=CARTESIAN_POINT('',(0.0227990104497231,0.0556930206861664,0.));
#651=CARTESIAN_POINT('',(0.0224422842127114,0.0542885089815793,0.));
#652=CARTESIAN_POINT('',(0.0226796140297428,0.0556960371510014,0.));
#653=CARTESIAN_POINT('',(0.0226718314113935,0.0554798172368374,-4.81482486096809E-35));
#654=CARTESIAN_POINT('',(0.0286563809750452,0.0550495074412298,-3.40459530941611E-35));
#655=CARTESIAN_POINT('',(0.0286563809750452,0.0550495074412298,0.006));
#656=CARTESIAN_POINT('',(0.022688620861028,0.055715578231918,2.35829647774275E-19));
#657=CARTESIAN_POINT('',(0.028704963471602,0.0557473533341047,3.54239780128575E-19));
#658=CARTESIAN_POINT('',(0.028704963471602,0.0557473533341047,0.006));
#659=CARTESIAN_POINT('',(0.0226661340971311,0.0561926141628391,-1.09235835156661E-19));
#660=CARTESIAN_POINT('',(0.0286325558741063,0.0572107465215643,7.43428133932944E-18));
#661=CARTESIAN_POINT('',(0.0286325558741063,0.0572107465215643,0.006));
#662=CARTESIAN_POINT('',(0.0224717982512925,0.0568859494842843,2.85809513869009E-20));
#663=CARTESIAN_POINT('',(0.0280993361538606,0.0590452063294791,-5.30492218193819E-19));
#664=CARTESIAN_POINT('',(0.0280993361538606,0.0590452063294791,0.006));
#665=CARTESIAN_POINT('',(0.0221691026535113,0.0575257203583876,-5.08797039094265E-21));
#666=CARTESIAN_POINT('',(0.0274163729253266,0.0604682734612642,-5.31231246655417E-18));
#667=CARTESIAN_POINT('',(0.0274163729253266,0.0604682734612642,0.006));
#668=CARTESIAN_POINT('',(0.0216532511043625,0.0583299095129784,-9.2761029671929E-21));
#669=CARTESIAN_POINT('',(0.0264038556435189,0.0620350697461123,3.05485131910316E-18));
#670=CARTESIAN_POINT('',(0.0264038556435189,0.0620350697461123,0.006));
#671=CARTESIAN_POINT('',(0.0208762656586766,0.0592143057172887,1.08924778659449E-19));
#672=CARTESIAN_POINT('',(0.0250890478429194,0.0635105208184987,-9.32099539157606E-19));
#673=CARTESIAN_POINT('',(0.0250890478429194,0.0635105208184987,0.006));
#674=CARTESIAN_POINT('',(0.019800016408042,0.0601463885506223,-4.02782835345276E-19));
#675=CARTESIAN_POINT('',(0.0234680008547937,0.0649087432245206,-1.23843334124895E-19));
#676=CARTESIAN_POINT('',(0.0234680008547937,0.0649087432245206,0.006));
#677=CARTESIAN_POINT('',(0.01863929520826,0.0609533996760934,1.50220656272165E-18));
#678=CARTESIAN_POINT('',(0.0218440272093365,0.0660340936681957,1.42747287565719E-18));
#679=CARTESIAN_POINT('',(0.0218440272093365,0.0660340936681957,0.006));
#680=CARTESIAN_POINT('',(0.0174227006621451,0.0616546401885825,-4.01872987610921E-19));
#681=CARTESIAN_POINT('',(0.0202236058814814,0.066966550348196,-3.81877740573438E-19));
#682=CARTESIAN_POINT('',(0.0202236058814814,0.066966550348196,0.006));
#683=CARTESIAN_POINT('',(0.0161569967816769,0.0622679446873751,1.05285387722028E-19));
#684=CARTESIAN_POINT('',(0.018595725268292,0.0677543212684554,1.00038086636563E-19));
#685=CARTESIAN_POINT('',(0.018595725268292,0.0677543212684553,0.006));
#686=CARTESIAN_POINT('',(0.0144058477887334,0.0629832212397595,-6.07865469435974E-20));
#687=CARTESIAN_POINT('',(0.0164015458834612,0.0686496518082271,-5.77121701759366E-20));
#688=CARTESIAN_POINT('',(0.0164015458834612,0.0686496518082271,0.006));
#689=CARTESIAN_POINT('',(0.0121726734088123,0.063681374402138,2.06519838822371E-20));
#690=CARTESIAN_POINT('',(0.0136832456288098,0.0694970688852272,1.92190984006178E-20));
#691=CARTESIAN_POINT('',(0.0136832456288098,0.0694970688852273,0.006));
#692=CARTESIAN_POINT('',(0.00943960609504724,0.064261277320769,-5.53368242018412E-21));
#693=CARTESIAN_POINT('',(0.010429141483348,0.0701863761172963,-3.7779697112224E-21));
#694=CARTESIAN_POINT('',(0.010429141483348,0.0701863761172963,0.006));
#695=CARTESIAN_POINT('',(0.00665498918593528,0.0646092642837038,1.48274579849936E-21));
#696=CARTESIAN_POINT('',(0.00715587504105753,0.0705947785258432,-4.10721955572819E-21));
#697=CARTESIAN_POINT('',(0.00715587504105753,0.0705947785258432,0.006));
#698=CARTESIAN_POINT('',(0.00382993450946663,0.064732629545984,-3.97300773813329E-22));
#699=CARTESIAN_POINT('',(0.00385506117961167,0.070738728939679,2.02068479341357E-20));
#700=CARTESIAN_POINT('',(0.00385506117961167,0.0707387289396789,0.006));
#701=CARTESIAN_POINT('',(0.0010346108223183,0.0646344124206493,1.06457296753956E-22));
#702=CARTESIAN_POINT('',(0.000589948190178012,0.0706241594317987,-7.67201721808147E-20));
#703=CARTESIAN_POINT('',(0.000589948190178012,0.0706241594317987,0.006));
#704=CARTESIAN_POINT('',(-0.00174200927388418,0.0643163776012211,-2.85284132024938E-23));
#705=CARTESIAN_POINT('',(-0.00267040474882558,0.0702512526794738,2.86673840789124E-19));
#706=CARTESIAN_POINT('',(-0.00267040474882558,0.0702512526794738,0.006));
#707=CARTESIAN_POINT('',(-0.00450948691538219,0.0637596553740162,7.65635605601931E-24));
#708=CARTESIAN_POINT('',(-0.0059588730746294,0.0695909828206837,-1.06997519097568E-18));
#709=CARTESIAN_POINT('',(-0.0059588730746294,0.0695909828206837,0.006));
#710=CARTESIAN_POINT('',(-0.00720962456182547,0.0629464222824762,-2.09701102158347E-24));
#711=CARTESIAN_POINT('',(-0.00923630081677499,0.0686060270322439,3.99322692311359E-18));
#712=CARTESIAN_POINT('',(-0.009236300816775,0.0686060270322438,0.006));
#713=CARTESIAN_POINT('',(-0.00937802544228449,0.0620248598808893,2.60238188331559E-25));
#714=CARTESIAN_POINT('',(-0.0119643532195623,0.0674517756627024,-1.175357259738E-17));
#715=CARTESIAN_POINT('',(-0.0119643532195623,0.0674517756627025,0.006));
#716=CARTESIAN_POINT('',(-0.0110246265531602,0.0611113696971583,-4.90265346801104E-26));
#717=CARTESIAN_POINT('',(-0.0141388050841243,0.0662475507224425,2.14318879290479E-18));
#718=CARTESIAN_POINT('',(-0.0141388050841243,0.0662475507224425,0.006));
#719=CARTESIAN_POINT('',(-0.0121912306524881,0.0603334799980448,1.31841311418011E-26));
#720=CARTESIAN_POINT('',(-0.0157514461617639,0.0651752383022397,-2.93372921810416E-19));
#721=CARTESIAN_POINT('',(-0.0157514461617639,0.0651752383022397,0.006));
#722=CARTESIAN_POINT('',(-0.0132849774758848,0.0594354031656558,-3.70998988709398E-27));
#723=CARTESIAN_POINT('',(-0.0173670393813085,0.0638536452759445,-9.69697105663125E-19));
#724=CARTESIAN_POINT('',(-0.0173670393813085,0.0638536452759445,0.006));
#725=CARTESIAN_POINT('',(-0.0140971266637062,0.0585724574786599,7.61525357629994E-28));
#726=CARTESIAN_POINT('',(-0.0186986768010895,0.0624545030514499,3.3151849361086E-18));
#727=CARTESIAN_POINT('',(-0.0186986768010895,0.0624545030514499,0.006));
#728=CARTESIAN_POINT('',(-0.0146481893857004,0.0577963774596559,-6.28747666315188E-28));
#729=CARTESIAN_POINT('',(-0.0197286245823854,0.0610127821743252,-5.6922303593243E-19));
#730=CARTESIAN_POINT('',(-0.0197286245823854,0.0610127821743252,0.006));
#731=CARTESIAN_POINT('',(-0.0149882830714565,0.0571778657728907,2.10103356361703E-27));
#732=CARTESIAN_POINT('',(-0.0204459555306597,0.0597201111309267,-6.7190799368601E-20));
#733=CARTESIAN_POINT('',(-0.0204459555306597,0.0597201111309267,0.006));
#734=CARTESIAN_POINT('',(-0.0152367367838846,0.0565082820215715,-7.77538658815295E-27));
#735=CARTESIAN_POINT('',(-0.0210662232246391,0.0580912745542292,8.37986233406833E-19));
#736=CARTESIAN_POINT('',(-0.0210662232246391,0.0580912745542292,0.006));
#737=CARTESIAN_POINT('',(-0.0153473608522814,0.0557999925726817,2.90005127889948E-26));
#738=CARTESIAN_POINT('',(-0.0214040197407717,0.0560204167845526,-3.28475413425873E-18));
#739=CARTESIAN_POINT('',(-0.0214040197407717,0.0560204167845526,0.006));
#740=CARTESIAN_POINT('',(-0.0152854485929196,0.0550883238733213,-1.08226664567826E-25));
#741=CARTESIAN_POINT('',(-0.0212079889663757,0.0538629303404609,1.89268944776724E-18));
#742=CARTESIAN_POINT('',(-0.0212079889663757,0.0538629303404609,0.006));
#743=CARTESIAN_POINT('',(-0.0150731962033131,0.054407413355518,4.0390614548231E-25));
#744=CARTESIAN_POINT('',(-0.0206441989061497,0.0521135096892055,-4.28600365681024E-18));
#745=CARTESIAN_POINT('',(-0.0206441989061497,0.0521135096892055,0.006));
#746=CARTESIAN_POINT('',(-0.0147565753268625,0.0537737961294559,-1.50739791736142E-24));
#747=CARTESIAN_POINT('',(-0.0199469650699996,0.0507344049043455,1.00471547515433E-17));
#748=CARTESIAN_POINT('',(-0.0199469650699997,0.0507344049043456,0.006));
#749=CARTESIAN_POINT('',(-0.0142353189468339,0.052988585868396,8.00338000440502E-24));
#750=CARTESIAN_POINT('',(-0.0189405225864086,0.049229159135144,-9.58584195955509E-18));
#751=CARTESIAN_POINT('',(-0.0189405225864086,0.049229159135144,0.006));
#752=CARTESIAN_POINT('',(-0.0134440082203979,0.0521070449839667,-6.44934304528375E-23));
#753=CARTESIAN_POINT('',(-0.0176148969850429,0.0477708091816962,1.0015951738627E-17));
#754=CARTESIAN_POINT('',(-0.0176148969850429,0.0477708091816961,0.006));
#755=CARTESIAN_POINT('',(-0.0123775734125666,0.051197922688949,2.35470979715495E-22));
#756=CARTESIAN_POINT('',(-0.016018041864305,0.0464152996460934,4.66741631226596E-18));
#757=CARTESIAN_POINT('',(-0.016018041864305,0.0464152996460934,0.006));
#758=CARTESIAN_POINT('',(-0.011208133085482,0.0503933034055091,-8.77390488409146E-22));
#759=CARTESIAN_POINT('',(-0.0143868573477399,0.045296300097562,-2.66476484803873E-18));
#760=CARTESIAN_POINT('',(-0.0143868573477399,0.0452963000975621,0.006));
#761=CARTESIAN_POINT('',(-0.00999231745017666,0.0497003324290797,3.27409097392111E-21));
#762=CARTESIAN_POINT('',(-0.0127716382788393,0.0443773008516231,7.87472651958518E-19));
#763=CARTESIAN_POINT('',(-0.0127716382788393,0.0443773008516231,0.006));
#764=CARTESIAN_POINT('',(-0.0087326790335686,0.0490957295850419,-1.22189734072753E-20));
#765=CARTESIAN_POINT('',(-0.0111541885844141,0.0436018759502518,-4.85125759795335E-19));
#766=CARTESIAN_POINT('',(-0.0111541885844141,0.0436018759502518,0.006));
#767=CARTESIAN_POINT('',(-0.00700450096220989,0.0483946186199472,6.4875394675998E-20));
#768=CARTESIAN_POINT('',(-0.00899072261948967,0.042725065469841,1.69908243622887E-18));
#769=CARTESIAN_POINT('',(-0.00899072261948967,0.0427250654698409,0.006));
#770=CARTESIAN_POINT('',(-0.00475597109734485,0.0476953438216389,-5.22783685047608E-19));
#771=CARTESIAN_POINT('',(-0.00625480112345684,0.0418765333368209,-1.28661131270832E-17));
#772=CARTESIAN_POINT('',(-0.00625480112345684,0.0418765333368209,0.006));
#773=CARTESIAN_POINT('',(-0.0020320404304132,0.0471234130286992,1.90872752956971E-18));
#774=CARTESIAN_POINT('',(-0.00301296131093321,0.0411970382253403,5.21896753599828E-18));
#775=CARTESIAN_POINT('',(-0.00301296131093321,0.0411970382253403,0.006));
#776=CARTESIAN_POINT('',(0.000726508352678165,0.0467819785971772,-1.90795600530082E-18));
#777=CARTESIAN_POINT('',(0.000229362264923967,0.0407963230772764,-2.80558658897943E-18));
#778=CARTESIAN_POINT('',(0.000229362264923968,0.0407963230772763,0.006));
#779=CARTESIAN_POINT('',(0.00351705420536968,0.0466596604723319,5.18926063703163E-19));
#780=CARTESIAN_POINT('',(0.00348987231980267,0.0406535982428384,7.99208391989037E-19));
#781=CARTESIAN_POINT('',(0.00348987231980267,0.0406535982428384,0.006));
#782=CARTESIAN_POINT('',(0.00632988144471325,0.0467577247809384,-1.67748249511833E-19));
#783=CARTESIAN_POINT('',(0.0067754209678788,0.0407679862626088,-3.91246978976725E-19));
#784=CARTESIAN_POINT('',(0.00677542096787879,0.0407679862626088,0.006));
#785=CARTESIAN_POINT('',(0.00908986764842375,0.0470750387387873,1.52066934344169E-19));
#786=CARTESIAN_POINT('',(0.0100163739739614,0.0411400598963741,7.65779523917864E-19));
#787=CARTESIAN_POINT('',(0.0100163739739614,0.0411400598963741,0.006));
#788=CARTESIAN_POINT('',(0.0118105846734451,0.0476195048989353,-4.40519487864841E-19));
#789=CARTESIAN_POINT('',(0.0132488327287804,0.0417857788581302,-2.67187111669473E-18));
#790=CARTESIAN_POINT('',(0.0132488327287804,0.0417857788581302,0.006));
#791=CARTESIAN_POINT('',(0.0144875655740637,0.0484167833592925,1.61001101711519E-18));
#792=CARTESIAN_POINT('',(0.0164954412314705,0.0427505886023222,9.92170494286098E-18));
#793=CARTESIAN_POINT('',(0.0164954412314705,0.0427505886023222,0.006));
#794=CARTESIAN_POINT('',(0.0166612468039801,0.0493318411032486,-3.94459957702038E-19));
#795=CARTESIAN_POINT('',(0.0192266543525886,0.0438954672933712,9.83910515433065E-18));
#796=CARTESIAN_POINT('',(0.0192266543525887,0.0438954672933712,0.006));
#797=CARTESIAN_POINT('',(0.0182968115335895,0.0502284220330535,3.88025720440634E-19));
#798=CARTESIAN_POINT('',(0.0213809813402986,0.0450743731651139,-1.48013376861093E-18));
#799=CARTESIAN_POINT('',(0.0213809813402986,0.045074373165114,0.006));
#800=CARTESIAN_POINT('',(0.0194734915620956,0.051002186983894,-1.35326434359618E-18));
#801=CARTESIAN_POINT('',(0.0230012820059031,0.0461370934228757,-1.08876034915166E-18));
#802=CARTESIAN_POINT('',(0.0230012820059031,0.0461370934228757,0.006));
#803=CARTESIAN_POINT('',(0.0205750468712575,0.0518930505635478,-1.79138773986352E-19));
#804=CARTESIAN_POINT('',(0.0246196487655737,0.0474409082450826,6.31004737287139E-19));
#805=CARTESIAN_POINT('',(0.0246196487655737,0.0474409082450826,0.006));
#806=CARTESIAN_POINT('',(0.0213948767882364,0.0527484696516526,1.69499307062023E-18));
#807=CARTESIAN_POINT('',(0.0259530841353116,0.048817939361461,-1.09088137711622E-18));
#808=CARTESIAN_POINT('',(0.0259530841353116,0.048817939361461,0.006));
#809=CARTESIAN_POINT('',(0.0219483878479681,0.0535048440097375,-4.13074558353938E-19));
#810=CARTESIAN_POINT('',(0.0269725865391831,0.0502035691098175,4.43947074531698E-18));
#811=CARTESIAN_POINT('',(0.0269725865391831,0.0502035691098175,0.006));
#812=CARTESIAN_POINT('',(0.0222993381271578,0.0541135737859574,4.84322070039061E-19));
#813=CARTESIAN_POINT('',(0.0276969299364746,0.0514494382872644,-2.43707835096874E-18));
#814=CARTESIAN_POINT('',(0.0276969299364746,0.0514494382872644,0.006));
#815=CARTESIAN_POINT('',(0.0225653973993238,0.0547780481923558,-1.52421372180231E-18));
#816=CARTESIAN_POINT('',(0.0283410608947654,0.053023671164315,5.30884265855796E-18));
#817=CARTESIAN_POINT('',(0.0283410608947654,0.053023671164315,0.006));
#818=CARTESIAN_POINT('',(0.0226550419617589,0.0552440562417569,-2.35829647774275E-19));
#819=CARTESIAN_POINT('',(0.0286077984784884,0.0543516615483549,-3.54239780128575E-19));
#820=CARTESIAN_POINT('',(0.0286077984784884,0.054351661548355,0.006));
#821=CARTESIAN_POINT('',(0.0226718314113935,0.0554798172368374,-4.81482486096809E-35));
#822=CARTESIAN_POINT('',(0.0286563809750452,0.0550495074412298,-3.40459530941611E-35));
#823=CARTESIAN_POINT('',(0.0286563809750452,0.0550495074412298,0.006));
#824=CARTESIAN_POINT('',(0.00367961402974276,0.0556960371510014,0.001));
#825=CARTESIAN_POINT('',(-0.015081685868865,0.0542819780373812,0.001));
#826=CARTESIAN_POINT('',(-0.015439590131612,0.0556967925465859,0.001));
#827=CARTESIAN_POINT('',(-0.0150822694262304,0.0571070746822837,0.001));
#828=CARTESIAN_POINT('',(-0.0140752738879317,0.0587111900775339,0.001));
#829=CARTESIAN_POINT('',(-0.0123208173928701,0.0603226922296199,0.001));
#830=CARTESIAN_POINT('',(-0.00992747401170348,0.0617805139519408,0.001));
#831=CARTESIAN_POINT('',(-0.00733318541029101,0.0629019070042115,0.001));
#832=CARTESIAN_POINT('',(-0.00464720000356425,0.0637248480756553,0.001));
#833=CARTESIAN_POINT('',(-0.000968264865551736,0.0644816163231429,0.001));
#834=CARTESIAN_POINT('',(0.00365642725094245,0.0648403314082227,0.001));
#835=CARTESIAN_POINT('',(0.00835706280163011,0.064477570723354,0.001));
#836=CARTESIAN_POINT('',(0.0119915438028632,0.0637274088971848,0.001));
#837=CARTESIAN_POINT('',(0.0146709119153029,0.0629100473253507,0.001));
#838=CARTESIAN_POINT('',(0.0172690634429166,0.0617889484734064,0.001));
#839=CARTESIAN_POINT('',(0.0192650152972469,0.0605786612688034,0.001));
#840=CARTESIAN_POINT('',(0.0207214849399735,0.0593637117954353,0.001));
#841=CARTESIAN_POINT('',(0.021673979062775,0.0583268375935721,0.001));
#842=CARTESIAN_POINT('',(0.0224367307394226,0.0571180301138013,0.001));
#843=CARTESIAN_POINT('',(0.0227982104740543,0.0557103172781083,0.001));
#844=CARTESIAN_POINT('',(0.0224479286881889,0.0542980581198522,0.001));
#845=CARTESIAN_POINT('',(0.0214428325738316,0.0526895583295878,0.001));
#846=CARTESIAN_POINT('',(0.0196809750300113,0.051068702235522,0.001));
#847=CARTESIAN_POINT('',(0.0172752487758258,0.0496053007978807,0.001));
#848=CARTESIAN_POINT('',(0.0146746598050342,0.048483480332431,0.001));
#849=CARTESIAN_POINT('',(0.0119907564013109,0.0476641616801995,0.001));
#850=CARTESIAN_POINT('',(0.00926601056598386,0.0471028419407117,0.001));
#851=CARTESIAN_POINT('',(0.00650067774937204,0.0467706786098405,0.001));
#852=CARTESIAN_POINT('',(0.00368221359981454,0.0466590827510016,0.001));
#853=CARTESIAN_POINT('',(0.000881021077921782,0.0467692158164008,0.001));
#854=CARTESIAN_POINT('',(-0.00188681853189463,0.0470995657956791,0.001));
#855=CARTESIAN_POINT('',(-0.00461968425891432,0.0476601867223869,0.001));
#856=CARTESIAN_POINT('',(-0.00732946044957294,0.0484890540867689,0.001));
#857=CARTESIAN_POINT('',(-0.00989935766214316,0.0495971203772075,0.001));
#858=CARTESIAN_POINT('',(-0.0123205614114679,0.0510680499071098,0.001));
#859=CARTESIAN_POINT('',(-0.0140692596905131,0.0526743258466672,0.001));
#860=CARTESIAN_POINT('',(-0.015081685868865,0.0542819780373812,0.001));
#861=CARTESIAN_POINT('',(-0.015439590131612,0.0556967925465859,0.001));
#862=CARTESIAN_POINT('',(-0.0150822694262304,0.0571070746822837,0.001));
#863=CARTESIAN_POINT('',(-0.0153203859702573,0.0556960371510014,0.001));
#864=CARTESIAN_POINT('',(0.0226718314113935,0.0554798172368374,0.001));
#865=CARTESIAN_POINT('',(0.0276589560477699,0.0551212257404978,0.001));
#866=CARTESIAN_POINT('',(0.0276589560477699,0.0551212257404978,0.006));
#867=CARTESIAN_POINT('',(0.022688620861028,0.055715578231918,0.001));
#868=CARTESIAN_POINT('',(0.027702239703173,0.0557420574837403,0.001));
#869=CARTESIAN_POINT('',(0.027702239703173,0.0557420574837403,0.006));
#870=CARTESIAN_POINT('',(0.0226661340971311,0.0561926141628391,0.001));
#871=CARTESIAN_POINT('',(0.0276381522446104,0.0570410577951101,0.00100000000000001));
#872=CARTESIAN_POINT('',(0.0276381522446104,0.0570410577951101,0.006));
#873=CARTESIAN_POINT('',(0.0224717982512925,0.0568859494842843,0.001));
#874=CARTESIAN_POINT('',(0.0271614131700993,0.0586853301886133,0.001));
#875=CARTESIAN_POINT('',(0.0271614131700993,0.0586853301886133,0.006));
#876=CARTESIAN_POINT('',(0.0221691026535113,0.0575257203583876,0.001));
#877=CARTESIAN_POINT('',(0.0265418278800241,0.0599778479441181,0.000999999999999994));
#878=CARTESIAN_POINT('',(0.0265418278800241,0.0599778479441181,0.006));
#879=CARTESIAN_POINT('',(0.0216532511043625,0.0583299095129784,0.001));
#880=CARTESIAN_POINT('',(0.0256120882203261,0.06141754304059,0.001));
#881=CARTESIAN_POINT('',(0.0256120882203261,0.06141754304059,0.006));
#882=CARTESIAN_POINT('',(0.0208762656586766,0.0592143057172887,0.001));
#883=CARTESIAN_POINT('',(0.0243869174788789,0.062794484968297,0.000999999999999999));
#884=CARTESIAN_POINT('',(0.0243869174788789,0.062794484968297,0.006));
#885=CARTESIAN_POINT('',(0.019800016408042,0.0601463885506223,0.000999999999999999));
#886=CARTESIAN_POINT('',(0.0228566701136684,0.0641150174455375,0.001));
#887=CARTESIAN_POINT('',(0.0228566701136684,0.0641150174455375,0.006));
#888=CARTESIAN_POINT('',(0.01863929520826,0.0609533996760934,0.001));
#889=CARTESIAN_POINT('',(0.0213099052091571,0.0651873113361786,0.001));
#890=CARTESIAN_POINT('',(0.0213099052091571,0.0651873113361786,0.006));
#891=CARTESIAN_POINT('',(0.0174227006621451,0.0616546401885825,0.001));
#892=CARTESIAN_POINT('',(0.0197567883449254,0.0660812319882604,0.001));
#893=CARTESIAN_POINT('',(0.0197567883449254,0.0660812319882604,0.006));
#894=CARTESIAN_POINT('',(0.0161569967816769,0.0622679446873751,0.001));
#895=CARTESIAN_POINT('',(0.0181892705205228,0.0668399251716086,0.001));
#896=CARTESIAN_POINT('',(0.0181892705205228,0.0668399251716086,0.006));
#897=CARTESIAN_POINT('',(0.0144058477887334,0.0629832212397595,0.001));
#898=CARTESIAN_POINT('',(0.0160689295343399,0.0677052467134825,0.001));
#899=CARTESIAN_POINT('',(0.0160689295343399,0.0677052467134825,0.006));
#900=CARTESIAN_POINT('',(0.0121726734088123,0.063681374402138,0.001));
#901=CARTESIAN_POINT('',(0.0134314835921435,0.068527786471379,0.001));
#902=CARTESIAN_POINT('',(0.0134314835921435,0.0685277864713791,0.006));
#903=CARTESIAN_POINT('',(0.00943960609504724,0.064261277320769,0.001));
#904=CARTESIAN_POINT('',(0.0102642189186312,0.0691988596512084,0.001));
#905=CARTESIAN_POINT('',(0.0102642189186312,0.0691988596512084,0.006));
#906=CARTESIAN_POINT('',(0.00665498918593528,0.0646092642837038,0.000999999999999999));
#907=CARTESIAN_POINT('',(0.00707239406520382,0.06959719281882,0.000999999999999999));
#908=CARTESIAN_POINT('',(0.00707239406520382,0.06959719281882,0.006));
#909=CARTESIAN_POINT('',(0.00382993450946663,0.064732629545984,0.001));
#910=CARTESIAN_POINT('',(0.00385087340125416,0.0697377123740631,0.001));
#911=CARTESIAN_POINT('',(0.00385087340125416,0.0697377123740631,0.006));
#912=CARTESIAN_POINT('',(0.0010346108223183,0.0646344124206493,0.001));
#913=CARTESIAN_POINT('',(0.000664058628868061,0.0696258682632738,0.001));
#914=CARTESIAN_POINT('',(0.000664058628868061,0.0696258682632738,0.006));
#915=CARTESIAN_POINT('',(-0.00174200927388419,0.0643163776012211,0.000999999999999998));
#916=CARTESIAN_POINT('',(-0.00251567216966868,0.0692621068330983,0.000999999999999998));
#917=CARTESIAN_POINT('',(-0.00251567216966868,0.0692621068330984,0.006));
#918=CARTESIAN_POINT('',(-0.00450948691538216,0.0637596553740162,0.001));
#919=CARTESIAN_POINT('',(-0.00571730871475485,0.0686190949129058,0.001));
#920=CARTESIAN_POINT('',(-0.00571730871475485,0.0686190949129058,0.006));
#921=CARTESIAN_POINT('',(-0.00720962456182557,0.0629464222824761,0.000999999999999999));
#922=CARTESIAN_POINT('',(-0.00889852144095015,0.0676627595739492,0.001));
#923=CARTESIAN_POINT('',(-0.00889852144095015,0.0676627595739492,0.006));
#924=CARTESIAN_POINT('',(-0.0093780254422842,0.0620248598808894,0.001));
#925=CARTESIAN_POINT('',(-0.0115332985900158,0.0665472896990672,0.000999999999999989));
#926=CARTESIAN_POINT('',(-0.0115332985900158,0.0665472896990672,0.006));
#927=CARTESIAN_POINT('',(-0.0110246265531607,0.0611113696971582,0.001));
#928=CARTESIAN_POINT('',(-0.013619775328964,0.0653915205515613,0.001));
#929=CARTESIAN_POINT('',(-0.013619775328964,0.0653915205515613,0.006));
#930=CARTESIAN_POINT('',(-0.0121912306524862,0.0603334799980453,0.000999999999999998));
#931=CARTESIAN_POINT('',(-0.0151580769102164,0.0643682785848758,0.000999999999999998));
#932=CARTESIAN_POINT('',(-0.0151580769102164,0.0643682785848758,0.006));
#933=CARTESIAN_POINT('',(-0.0132849774758919,0.0594354031656538,0.001));
#934=CARTESIAN_POINT('',(-0.0166866957304101,0.0631172715908894,0.001));
#935=CARTESIAN_POINT('',(-0.0166866957304101,0.0631172715908894,0.006));
#936=CARTESIAN_POINT('',(-0.0140971266636854,0.0585724574786656,0.001));
#937=CARTESIAN_POINT('',(-0.017931751778176,0.0618074954560054,0.001));
#938=CARTESIAN_POINT('',(-0.017931751778176,0.0618074954560054,0.006));
#939=CARTESIAN_POINT('',(-0.0146481893857365,0.0577963774596461,0.001));
#940=CARTESIAN_POINT('',(-0.0188818853829662,0.0604767147218448,0.000999999999999999));
#941=CARTESIAN_POINT('',(-0.0188818853829662,0.0604767147218448,0.006));
#942=CARTESIAN_POINT('',(-0.0149882830713188,0.0571778657729281,0.001));
#943=CARTESIAN_POINT('',(-0.0195363434540178,0.0592964035713894,0.001));
#944=CARTESIAN_POINT('',(-0.0195363434540178,0.0592964035713894,0.006));
#945=CARTESIAN_POINT('',(-0.015236736784399,0.0565082820214316,0.001));
#946=CARTESIAN_POINT('',(-0.0200946421515838,0.0578274424649467,0.001));
#947=CARTESIAN_POINT('',(-0.0200946421515838,0.0578274424649467,0.006));
#948=CARTESIAN_POINT('',(-0.0153473608503612,0.055799992573204,0.001));
#949=CARTESIAN_POINT('',(-0.0203945765911828,0.0559836794177967,0.000999999999999997));
#950=CARTESIAN_POINT('',(-0.0203945765911828,0.0559836794177967,0.006));
#951=CARTESIAN_POINT('',(-0.015285448600086,0.0550883238713719,0.001));
#952=CARTESIAN_POINT('',(-0.0202208989097581,0.0540671625888866,0.001));
#953=CARTESIAN_POINT('',(-0.020220898909758,0.0540671625888866,0.006));
#954=CARTESIAN_POINT('',(-0.0150731961765677,0.0544074133627935,0.000999999999999999));
#955=CARTESIAN_POINT('',(-0.0197156984346841,0.0524958269932389,0.000999999999999995));
#956=CARTESIAN_POINT('',(-0.0197156984346841,0.0524958269932389,0.006));
#957=CARTESIAN_POINT('',(-0.0147565754266777,0.0537737961023032,0.000999999999999999));
#958=CARTESIAN_POINT('',(-0.0190819001911564,0.0512409700103229,0.00100000000000001));
#959=CARTESIAN_POINT('',(-0.0190819001911564,0.051240970010323,0.006));
#960=CARTESIAN_POINT('',(-0.014235318416875,0.0529885860125604,0.000999999999999999));
#961=CARTESIAN_POINT('',(-0.0181563215638408,0.0498557307787765,0.00099999999999999));
#962=CARTESIAN_POINT('',(-0.0181563215638408,0.0498557307787765,0.006));
#963=CARTESIAN_POINT('',(-0.0134440124909515,0.0521070438222501,0.000999999999999999));
#964=CARTESIAN_POINT('',(-0.0169197522096184,0.0484935109469656,0.00100000000000001));
#965=CARTESIAN_POINT('',(-0.0169197522096184,0.0484935109469656,0.006));
#966=CARTESIAN_POINT('',(-0.0123775578204133,0.0511979269304746,0.001));
#967=CARTESIAN_POINT('',(-0.015411284883853,0.0472124188276084,0.001));
#968=CARTESIAN_POINT('',(-0.015411284883853,0.0472124188276084,0.006));
#969=CARTESIAN_POINT('',(-0.0112081911835415,0.0503932876011233,0.001));
#970=CARTESIAN_POINT('',(-0.0138571155726631,0.0461457434865059,0.000999999999999998));
#971=CARTESIAN_POINT('',(-0.0138571155726631,0.0461457434865059,0.006));
#972=CARTESIAN_POINT('',(-0.00958673713894217,0.0494694260064219,0.000999999999999998));
#973=CARTESIAN_POINT('',(-0.0117919587709253,0.0449710002907416,0.000999999999999999));
#974=CARTESIAN_POINT('',(-0.0117919587709253,0.0449710002907416,0.006));
#975=CARTESIAN_POINT('',(-0.00745361463120605,0.0485346347037607,0.001));
#976=CARTESIAN_POINT('',(-0.00919015868057052,0.0438353049417959,0.001));
#977=CARTESIAN_POINT('',(-0.00919015868057053,0.0438353049417959,0.006));
#978=CARTESIAN_POINT('',(-0.00475612980471715,0.0476953006485525,0.001));
#979=CARTESIAN_POINT('',(-0.00600512069070481,0.0428461789329266,0.000999999999999988));
#980=CARTESIAN_POINT('',(-0.0060051206907048,0.0428461789329266,0.006));
#981=CARTESIAN_POINT('',(-0.00203199790490083,0.0471234245968929,0.001));
#982=CARTESIAN_POINT('',(-0.0028494411186535,0.0421848091998654,0.001));
#983=CARTESIAN_POINT('',(-0.0028494411186535,0.0421848091998654,0.006));
#984=CARTESIAN_POINT('',(0.000726496958000985,0.0467819754974889,0.000999999999999999));
#985=CARTESIAN_POINT('',(0.000312211002377451,0.0417939211194291,0.000999999999999997));
#986=CARTESIAN_POINT('',(0.000312211002377451,0.0417939211194291,0.006));
#987=CARTESIAN_POINT('',(0.00351705725856603,0.0466596613028913,0.001));
#988=CARTESIAN_POINT('',(0.00349440503055966,0.0416546116184448,0.001));
#989=CARTESIAN_POINT('',(0.00349440503055966,0.0416546116184448,0.006));
#990=CARTESIAN_POINT('',(0.00632988062660502,0.0467577245583888,0.001));
#991=CARTESIAN_POINT('',(0.00670116373854014,0.0417662752107312,0.001));
#992=CARTESIAN_POINT('',(0.00670116373854014,0.0417662752107312,0.006));
#993=CARTESIAN_POINT('',(0.00908986786766029,0.0470750387984261,0.001));
#994=CARTESIAN_POINT('',(0.00986195642512023,0.0421292232524819,0.001));
#995=CARTESIAN_POINT('',(0.00986195642512023,0.042129223252482,0.006));
#996=CARTESIAN_POINT('',(0.0118105846146071,0.0476195048829296,0.001));
#997=CARTESIAN_POINT('',(0.0130091246733752,0.0427580664737074,0.000999999999999998));
#998=CARTESIAN_POINT('',(0.0130091246733751,0.0427580664737074,0.006));
#999=CARTESIAN_POINT('',(0.0144875655901789,0.0484167833636764,0.001));
#1000=CARTESIAN_POINT('',(0.0161607953012184,0.0436949544110063,0.00100000000000001));
#1001=CARTESIAN_POINT('',(0.0161607953012184,0.0436949544110062,0.006));
#1002=CARTESIAN_POINT('',(0.0166612468019802,0.0493318411027046,0.001));
#1003=CARTESIAN_POINT('',(0.0187990864262508,0.0448015295930498,0.00100000000000001));
#1004=CARTESIAN_POINT('',(0.0187990864262509,0.0448015295930498,0.006));
#1005=CARTESIAN_POINT('',(0.0182968115339662,0.0502284220331559,0.001));
#1006=CARTESIAN_POINT('',(0.0208669530394761,0.0459333813101412,0.000999999999999999));
#1007=CARTESIAN_POINT('',(0.0208669530394761,0.0459333813101412,0.006));
#1008=CARTESIAN_POINT('',(0.0194734915619945,0.0510021869838665,0.000999999999999998));
#1009=CARTESIAN_POINT('',(0.0224133169318558,0.0469479423496126,0.000999999999999999));
#1010=CARTESIAN_POINT('',(0.0224133169318558,0.0469479423496126,0.006));
#1011=CARTESIAN_POINT('',(0.0205750468712852,0.0518930505635553,0.001));
#1012=CARTESIAN_POINT('',(0.0239455484498761,0.048182931964854,0.001));
#1013=CARTESIAN_POINT('',(0.0239455484498761,0.048182931964854,0.006));
#1014=CARTESIAN_POINT('',(0.021394876788233,0.0527484696516516,0.001));
#1015=CARTESIAN_POINT('',(0.0251933829107964,0.0494730277431562,0.000999999999999997));
#1016=CARTESIAN_POINT('',(0.0251933829107964,0.0494730277431562,0.006));
#1017=CARTESIAN_POINT('',(0.0219483878479688,0.0535048440097377,0.001));
#1018=CARTESIAN_POINT('',(0.0261352200906478,0.0507537815931381,0.001));
#1019=CARTESIAN_POINT('',(0.0261352200906478,0.0507537815931381,0.006));
#1020=CARTESIAN_POINT('',(0.0222993381271576,0.0541135737859573,0.001));
#1021=CARTESIAN_POINT('',(0.0267973313015883,0.0518934608703797,0.000999999999999997));
#1022=CARTESIAN_POINT('',(0.0267973313015883,0.0518934608703797,0.006));
#1023=CARTESIAN_POINT('',(0.0225653973993238,0.0547780481923558,0.001));
#1024=CARTESIAN_POINT('',(0.0273784503121918,0.0533160673356552,0.00100000000000001));
#1025=CARTESIAN_POINT('',(0.0273784503121919,0.0533160673356552,0.006));
#1026=CARTESIAN_POINT('',(0.0226550419617589,0.0552440562417569,0.001));
#1027=CARTESIAN_POINT('',(0.0276156723923668,0.0545003939972553,0.001));
#1028=CARTESIAN_POINT('',(0.0276156723923668,0.0545003939972553,0.006));
#1029=CARTESIAN_POINT('',(0.0226718314113935,0.0554798172368374,0.001));
#1030=CARTESIAN_POINT('',(0.0276589560477699,0.0551212257404978,0.001));
#1031=CARTESIAN_POINT('',(0.0276589560477699,0.0551212257404978,0.006));
#1032=CARTESIAN_POINT('',(0.,0.,0.));
#1033=CARTESIAN_POINT('',(3.46944695195361E-18,0.015,0.007));
#1034=CARTESIAN_POINT('',(3.46944695195361E-18,0.015,0.));
#1035=CARTESIAN_POINT('',(-0.011,0.015,0.));
#1036=CARTESIAN_POINT('',(0.011,0.015,0.));
#1037=CARTESIAN_POINT('',(-0.011,0.015,0.007));
#1038=CARTESIAN_POINT('',(-0.011,0.015,0.007));
#1039=CARTESIAN_POINT('',(3.46944695195361E-18,0.015,0.007));
#1040=CARTESIAN_POINT('',(0.011,0.015,0.007));
#1041=CARTESIAN_POINT('',(0.011,0.015,0.007));
#1042=CARTESIAN_POINT('',(-0.025,3.46944695195361E-18,0.007));
#1043=CARTESIAN_POINT('',(-0.025,3.46944695195361E-18,0.));
#1044=CARTESIAN_POINT('',(-0.025,0.001,0.));
#1045=CARTESIAN_POINT('',(-0.025,-0.001,0.));
#1046=CARTESIAN_POINT('',(-0.025,-0.001,0.007));
#1047=CARTESIAN_POINT('',(-0.025,-0.001,0.007));
#1048=CARTESIAN_POINT('',(-0.025,3.46944695195361E-18,0.007));
#1049=CARTESIAN_POINT('',(-0.025,0.001,0.007));
#1050=CARTESIAN_POINT('',(-0.025,0.001,0.));
#1051=CARTESIAN_POINT('',(-3.46944695195361E-18,-0.015,0.007));
#1052=CARTESIAN_POINT('',(-3.46944695195361E-18,-0.015,0.007));
#1053=CARTESIAN_POINT('',(-0.011,-0.015,0.007));
#1054=CARTESIAN_POINT('',(0.011,-0.015,0.007));
#1055=CARTESIAN_POINT('',(-0.011,-0.015,0.007));
#1056=CARTESIAN_POINT('',(-0.011,-0.015,0.));
#1057=CARTESIAN_POINT('',(-3.46944695195361E-18,-0.015,0.));
#1058=CARTESIAN_POINT('',(0.011,-0.015,0.));
#1059=CARTESIAN_POINT('',(0.011,-0.015,0.007));
#1060=CARTESIAN_POINT('',(0.025,0.,0.007));
#1061=CARTESIAN_POINT('',(0.025,0.,0.));
#1062=CARTESIAN_POINT('',(0.025,0.001,0.));
#1063=CARTESIAN_POINT('',(0.025,-0.001,0.));
#1064=CARTESIAN_POINT('',(0.025,0.001,0.007));
#1065=CARTESIAN_POINT('',(0.025,0.001,0.007));
#1066=CARTESIAN_POINT('',(0.025,0.,0.007));
#1067=CARTESIAN_POINT('',(0.025,-0.001,0.007));
#1068=CARTESIAN_POINT('',(0.025,-0.001,0.));
#1069=CARTESIAN_POINT('',(0.,3.46944695195361E-18,0.007));
#1070=CARTESIAN_POINT('',(-0.0234,3.09937261041189E-18,0.007));
#1071=CARTESIAN_POINT('',(-0.0234,0.001,0.007));
#1072=CARTESIAN_POINT('',(-0.0234,-0.001,0.007));
#1073=CARTESIAN_POINT('',(-0.011,0.001,0.007));
#1074=CARTESIAN_POINT('',(-0.011,0.0134,0.007));
#1075=CARTESIAN_POINT('',(3.46944695195361E-18,0.0134,0.007));
#1076=CARTESIAN_POINT('',(0.011,0.0134,0.007));
#1077=CARTESIAN_POINT('',(0.011,0.001,0.007));
#1078=CARTESIAN_POINT('',(0.0234,0.001,0.007));
#1079=CARTESIAN_POINT('',(0.0234,3.70074341541719E-19,0.007));
#1080=CARTESIAN_POINT('',(0.0234,-0.001,0.007));
#1081=CARTESIAN_POINT('',(0.011,-0.001,0.007));
#1082=CARTESIAN_POINT('',(0.011,-0.0134,0.007));
#1083=CARTESIAN_POINT('',(-3.46944695195361E-18,-0.0134,0.007));
#1084=CARTESIAN_POINT('',(-0.011,-0.0134,0.007));
#1085=CARTESIAN_POINT('',(-0.011,-0.001,0.007));
#1086=CARTESIAN_POINT('',(-0.011,-0.001,0.007));
#1087=CARTESIAN_POINT('',(0.011,-0.001,0.007));
#1088=CARTESIAN_POINT('',(0.011,0.001,0.007));
#1089=CARTESIAN_POINT('',(-0.011,0.001,0.007));
#1090=CARTESIAN_POINT('',(0.,3.46944695195361E-18,0.));
#1091=CARTESIAN_POINT('',(-0.011,-0.001,0.));
#1092=CARTESIAN_POINT('',(-0.011,0.001,0.));
#1093=CARTESIAN_POINT('',(0.011,0.001,0.));
#1094=CARTESIAN_POINT('',(0.011,-0.001,0.));
#1095=CARTESIAN_POINT('',(-0.011,-0.001,0.007));
#1096=CARTESIAN_POINT('',(-0.011,0.001,0.007));
#1097=CARTESIAN_POINT('',(0.011,0.001,0.007));
#1098=CARTESIAN_POINT('',(0.011,-0.001,0.007));
#1099=CARTESIAN_POINT('',(3.46944695195361E-18,0.0134,0.007));
#1100=CARTESIAN_POINT('',(3.46944695195361E-18,0.0134,0.0016));
#1101=CARTESIAN_POINT('',(-0.011,0.0134,0.0016));
#1102=CARTESIAN_POINT('',(0.011,0.0134,0.0016));
#1103=CARTESIAN_POINT('',(0.011,0.0134,0.007));
#1104=CARTESIAN_POINT('',(-0.011,0.0134,0.007));
#1105=CARTESIAN_POINT('',(-0.0234,3.09937261041189E-18,0.007));
#1106=CARTESIAN_POINT('',(-0.0234,3.09937261041189E-18,0.0016));
#1107=CARTESIAN_POINT('',(-0.0234,0.001,0.0016));
#1108=CARTESIAN_POINT('',(-0.0234,-0.001,0.0016));
#1109=CARTESIAN_POINT('',(-0.0234,0.001,0.007));
#1110=CARTESIAN_POINT('',(-0.0234,-0.001,0.007));
#1111=CARTESIAN_POINT('',(-3.46944695195361E-18,-0.0134,0.007));
#1112=CARTESIAN_POINT('',(0.011,-0.0134,0.007));
#1113=CARTESIAN_POINT('',(0.011,-0.0134,0.0016));
#1114=CARTESIAN_POINT('',(-3.46944695195361E-18,-0.0134,0.0016));
#1115=CARTESIAN_POINT('',(-0.011,-0.0134,0.0016));
#1116=CARTESIAN_POINT('',(-0.011,-0.0134,0.007));
#1117=CARTESIAN_POINT('',(0.0234,3.70074341541719E-19,0.007));
#1118=CARTESIAN_POINT('',(0.0234,3.70074341541719E-19,0.0016));
#1119=CARTESIAN_POINT('',(0.0234,0.001,0.0016));
#1120=CARTESIAN_POINT('',(0.0234,-0.001,0.0016));
#1121=CARTESIAN_POINT('',(0.0234,-0.001,0.007));
#1122=CARTESIAN_POINT('',(0.0234,0.001,0.007));
#1123=CARTESIAN_POINT('',(0.,3.46944695195361E-18,0.0016));
#1124=CARTESIAN_POINT('',(0.011,-0.001,0.0016));
#1125=CARTESIAN_POINT('',(0.011,0.001,0.0016));
#1126=CARTESIAN_POINT('',(-0.011,0.001,0.0016));
#1127=CARTESIAN_POINT('',(-0.011,-0.001,0.0016));
#1128=CARTESIAN_POINT('',(-0.011,-0.001,0.007));
#1129=CARTESIAN_POINT('',(-0.011,0.001,0.007));
#1130=CARTESIAN_POINT('',(0.011,0.001,0.007));
#1131=CARTESIAN_POINT('',(0.011,-0.001,0.007));
#1132=MECHANICAL_DESIGN_GEOMETRIC_PRESENTATION_REPRESENTATION('',(#396),
#1134);
#1133=MECHANICAL_DESIGN_GEOMETRIC_PRESENTATION_REPRESENTATION('',(#397),
#1135);
#1134=(
GEOMETRIC_REPRESENTATION_CONTEXT(3)
GLOBAL_UNCERTAINTY_ASSIGNED_CONTEXT((#1136))
GLOBAL_UNIT_ASSIGNED_CONTEXT((#1142,#1140,#1138))
REPRESENTATION_CONTEXT('Part 2','TOP_LEVEL_ASSEMBLY_PART')
);
#1135=(
GEOMETRIC_REPRESENTATION_CONTEXT(3)
GLOBAL_UNCERTAINTY_ASSIGNED_CONTEXT((#1137))
GLOBAL_UNIT_ASSIGNED_CONTEXT((#1143,#1141,#1139))
REPRESENTATION_CONTEXT('Part 1','TOP_LEVEL_ASSEMBLY_PART')
);
#1136=UNCERTAINTY_MEASURE_WITH_UNIT(LENGTH_MEASURE(2.E-5),#1142,
'DISTANCE_ACCURACY_VALUE','Maximum Tolerance applied to model');
#1137=UNCERTAINTY_MEASURE_WITH_UNIT(LENGTH_MEASURE(1.E-8),#1143,
'DISTANCE_ACCURACY_VALUE','Maximum Tolerance applied to model');
#1138=(
NAMED_UNIT(*)
SI_UNIT($,.STERADIAN.)
SOLID_ANGLE_UNIT()
);
#1139=(
NAMED_UNIT(*)
SI_UNIT($,.STERADIAN.)
SOLID_ANGLE_UNIT()
);
#1140=(
NAMED_UNIT(*)
PLANE_ANGLE_UNIT()
SI_UNIT($,.RADIAN.)
);
#1141=(
NAMED_UNIT(*)
PLANE_ANGLE_UNIT()
SI_UNIT($,.RADIAN.)
);
#1142=(
LENGTH_UNIT()
NAMED_UNIT(*)
SI_UNIT($,.METRE.)
);
#1143=(
LENGTH_UNIT()
NAMED_UNIT(*)
SI_UNIT($,.METRE.)
);
#1144=PRODUCT_DEFINITION_SHAPE('','',#1146);
#1145=PRODUCT_DEFINITION_SHAPE('','',#1147);
#1146=PRODUCT_DEFINITION('','',#1150,#1148);
#1147=PRODUCT_DEFINITION('','',#1151,#1149);
#1148=PRODUCT_DEFINITION_CONTEXT('',#1162,'design');
#1149=PRODUCT_DEFINITION_CONTEXT('',#1163,'design');
#1150=PRODUCT_DEFINITION_FORMATION_WITH_SPECIFIED_SOURCE('','',#1154,
 .NOT_KNOWN.);
#1151=PRODUCT_DEFINITION_FORMATION_WITH_SPECIFIED_SOURCE('','',#1155,
 .NOT_KNOWN.);
#1152=PRODUCT_RELATED_PRODUCT_CATEGORY('','',(#1154));
#1153=PRODUCT_RELATED_PRODUCT_CATEGORY('','',(#1155));
#1154=PRODUCT('Part 2','Part 2','Part 2',(#1158));
#1155=PRODUCT('Part 1','Part 1','Part 1',(#1159));
#1156=PRODUCT_CATEGORY('','');
#1157=PRODUCT_CATEGORY('','');
#1158=PRODUCT_CONTEXT('',#1162,'mechanical');
#1159=PRODUCT_CONTEXT('',#1163,'mechanical');
#1160=APPLICATION_PROTOCOL_DEFINITION('international standard',
'ap242_managed_model_based_3d_engineering',2020,#1162);
#1161=APPLICATION_PROTOCOL_DEFINITION('international standard',
'ap242_managed_model_based_3d_engineering',2020,#1163);
#1162=APPLICATION_CONTEXT('managed model based 3d engineering');
#1163=APPLICATION_CONTEXT('managed model based 3d engineering');
ENDSEC;
END-ISO-10303-21;
