ISO-10303-21;
HEADER;
/* Generated by software containing ST-Developer
 * from STEP Tools, Inc. (www.steptools.com) 
 */
/* OPTION: using custom renumber hook */

FILE_DESCRIPTION(
/* description */ ('STEP AP242 Edition 2',
'CAx-IF Rec.Pracs.---Representation and Presentation of Product Manufa
cturing Information (PMI)---4.0---2014-10-13',
'CAx-IF Rec.Pracs.---3D Tessellated Geometry---0.4---2014-09-14','2;1',
'CAx-IF Rec.Pracs.---User Defined Attributes---1.5---2016-08-15'),
/* implementation_level */ '2;1');

FILE_NAME(
/* name */ 'Part Studio 1',
/* time_stamp */ '2026-10-03T00:54:41Z',
/* author */ (''),
/* organization */ (''),
/* preprocessor_version */ 'ST-DEVELOPER v20',
/* originating_system */ 'ONSHAPE BY PTC INC, 1.221',
/* authorisation */ '  ');

FILE_SCHEMA (('AP242_MANAGED_MODEL_BASED_3D_ENGINEERING_MIM_LF { 1 0 10303 442 3 1 4 }'));
ENDSEC;

DATA;
#10=SHAPE_REPRESENTATION_RELATIONSHIP('','',#689,#11);
#11=ADVANCED_BREP_SHAPE_REPRESENTATION('',(#687),#1199);
#12=CYLINDRICAL_SURFACE('',#705,0.0024);
#13=CYLINDRICAL_SURFACE('',#708,0.0024);
#14=CYLINDRICAL_SURFACE('',#711,0.0024);
#15=CYLINDRICAL_SURFACE('',#714,0.0024);
#16=CYLINDRICAL_SURFACE('',#717,0.0024);
#17=CYLINDRICAL_SURFACE('',#720,0.0024);
#18=CYLINDRICAL_SURFACE('',#723,0.0024);
#19=CYLINDRICAL_SURFACE('',#726,0.0024);
#20=CYLINDRICAL_SURFACE('',#745,0.0012);
#21=CYLINDRICAL_SURFACE('',#748,0.0012);
#22=CYLINDRICAL_SURFACE('',#751,0.0012);
#23=CYLINDRICAL_SURFACE('',#754,0.0012);
#24=CYLINDRICAL_SURFACE('',#757,0.0012);
#25=CYLINDRICAL_SURFACE('',#760,0.0012);
#26=CYLINDRICAL_SURFACE('',#763,0.0012);
#27=CYLINDRICAL_SURFACE('',#766,0.0012);
#28=CYLINDRICAL_SURFACE('',#769,0.0024);
#29=CYLINDRICAL_SURFACE('',#772,0.00325685);
#30=CYLINDRICAL_SURFACE('',#776,0.0024);
#31=CYLINDRICAL_SURFACE('',#779,0.00325685);
#32=CYLINDRICAL_SURFACE('',#783,0.0024);
#33=CYLINDRICAL_SURFACE('',#786,0.00325685);
#34=CIRCLE('',#697,0.0024);
#35=CIRCLE('',#698,0.0024);
#36=CIRCLE('',#699,0.0024);
#37=CIRCLE('',#700,0.0024);
#38=CIRCLE('',#701,0.0024);
#39=CIRCLE('',#702,0.0024);
#40=CIRCLE('',#703,0.0024);
#41=CIRCLE('',#704,0.0024);
#42=CIRCLE('',#706,0.0024);
#43=CIRCLE('',#709,0.0024);
#44=CIRCLE('',#712,0.0024);
#45=CIRCLE('',#715,0.0024);
#46=CIRCLE('',#718,0.0024);
#47=CIRCLE('',#721,0.0024);
#48=CIRCLE('',#724,0.0024);
#49=CIRCLE('',#727,0.0024);
#50=CIRCLE('',#734,0.00325685);
#51=CIRCLE('',#735,0.00325685);
#52=CIRCLE('',#736,0.00325685);
#53=CIRCLE('',#737,0.0012);
#54=CIRCLE('',#738,0.0012);
#55=CIRCLE('',#739,0.0012);
#56=CIRCLE('',#740,0.0012);
#57=CIRCLE('',#741,0.0012);
#58=CIRCLE('',#742,0.0012);
#59=CIRCLE('',#743,0.0012);
#60=CIRCLE('',#744,0.0012);
#61=CIRCLE('',#746,0.0012);
#62=CIRCLE('',#749,0.0012);
#63=CIRCLE('',#752,0.0012);
#64=CIRCLE('',#755,0.0012);
#65=CIRCLE('',#758,0.0012);
#66=CIRCLE('',#761,0.0012);
#67=CIRCLE('',#764,0.0012);
#68=CIRCLE('',#767,0.0012);
#69=CIRCLE('',#770,0.0024);
#70=CIRCLE('',#771,0.0024);
#71=CIRCLE('',#773,0.00325685);
#72=CIRCLE('',#777,0.0024);
#73=CIRCLE('',#778,0.0024);
#74=CIRCLE('',#780,0.00325685);
#75=CIRCLE('',#784,0.0024);
#76=CIRCLE('',#785,0.0024);
#77=CIRCLE('',#787,0.00325685);
#78=ORIENTED_EDGE('',*,*,#214,.T.);
#79=ORIENTED_EDGE('',*,*,#215,.T.);
#80=ORIENTED_EDGE('',*,*,#216,.F.);
#81=ORIENTED_EDGE('',*,*,#217,.F.);
#82=ORIENTED_EDGE('',*,*,#218,.F.);
#83=ORIENTED_EDGE('',*,*,#219,.T.);
#84=ORIENTED_EDGE('',*,*,#220,.T.);
#85=ORIENTED_EDGE('',*,*,#221,.F.);
#86=ORIENTED_EDGE('',*,*,#214,.F.);
#87=ORIENTED_EDGE('',*,*,#222,.F.);
#88=ORIENTED_EDGE('',*,*,#223,.T.);
#89=ORIENTED_EDGE('',*,*,#224,.T.);
#90=ORIENTED_EDGE('',*,*,#217,.T.);
#91=ORIENTED_EDGE('',*,*,#225,.F.);
#92=ORIENTED_EDGE('',*,*,#226,.F.);
#93=ORIENTED_EDGE('',*,*,#222,.T.);
#94=ORIENTED_EDGE('',*,*,#216,.T.);
#95=ORIENTED_EDGE('',*,*,#227,.F.);
#96=ORIENTED_EDGE('',*,*,#228,.F.);
#97=ORIENTED_EDGE('',*,*,#225,.T.);
#98=ORIENTED_EDGE('',*,*,#215,.F.);
#99=ORIENTED_EDGE('',*,*,#224,.F.);
#100=ORIENTED_EDGE('',*,*,#229,.T.);
#101=ORIENTED_EDGE('',*,*,#227,.T.);
#102=ORIENTED_EDGE('',*,*,#230,.F.);
#103=ORIENTED_EDGE('',*,*,#231,.F.);
#104=ORIENTED_EDGE('',*,*,#232,.F.);
#105=ORIENTED_EDGE('',*,*,#233,.F.);
#106=ORIENTED_EDGE('',*,*,#234,.F.);
#107=ORIENTED_EDGE('',*,*,#235,.F.);
#108=ORIENTED_EDGE('',*,*,#236,.F.);
#109=ORIENTED_EDGE('',*,*,#237,.F.);
#110=ORIENTED_EDGE('',*,*,#223,.F.);
#111=ORIENTED_EDGE('',*,*,#226,.T.);
#112=ORIENTED_EDGE('',*,*,#228,.T.);
#113=ORIENTED_EDGE('',*,*,#229,.F.);
#114=ORIENTED_EDGE('',*,*,#238,.F.);
#115=ORIENTED_EDGE('',*,*,#237,.T.);
#116=ORIENTED_EDGE('',*,*,#238,.T.);
#117=ORIENTED_EDGE('',*,*,#239,.F.);
#118=ORIENTED_EDGE('',*,*,#236,.T.);
#119=ORIENTED_EDGE('',*,*,#239,.T.);
#120=ORIENTED_EDGE('',*,*,#240,.F.);
#121=ORIENTED_EDGE('',*,*,#235,.T.);
#122=ORIENTED_EDGE('',*,*,#240,.T.);
#123=ORIENTED_EDGE('',*,*,#241,.F.);
#124=ORIENTED_EDGE('',*,*,#234,.T.);
#125=ORIENTED_EDGE('',*,*,#241,.T.);
#126=ORIENTED_EDGE('',*,*,#242,.F.);
#127=ORIENTED_EDGE('',*,*,#233,.T.);
#128=ORIENTED_EDGE('',*,*,#242,.T.);
#129=ORIENTED_EDGE('',*,*,#243,.F.);
#130=ORIENTED_EDGE('',*,*,#232,.T.);
#131=ORIENTED_EDGE('',*,*,#243,.T.);
#132=ORIENTED_EDGE('',*,*,#244,.F.);
#133=ORIENTED_EDGE('',*,*,#231,.T.);
#134=ORIENTED_EDGE('',*,*,#244,.T.);
#135=ORIENTED_EDGE('',*,*,#245,.F.);
#136=ORIENTED_EDGE('',*,*,#230,.T.);
#137=ORIENTED_EDGE('',*,*,#245,.T.);
#138=ORIENTED_EDGE('',*,*,#218,.T.);
#139=ORIENTED_EDGE('',*,*,#246,.F.);
#140=ORIENTED_EDGE('',*,*,#247,.F.);
#141=ORIENTED_EDGE('',*,*,#248,.T.);
#142=ORIENTED_EDGE('',*,*,#219,.F.);
#143=ORIENTED_EDGE('',*,*,#248,.F.);
#144=ORIENTED_EDGE('',*,*,#249,.T.);
#145=ORIENTED_EDGE('',*,*,#250,.T.);
#146=ORIENTED_EDGE('',*,*,#220,.F.);
#147=ORIENTED_EDGE('',*,*,#250,.F.);
#148=ORIENTED_EDGE('',*,*,#251,.T.);
#149=ORIENTED_EDGE('',*,*,#252,.T.);
#150=ORIENTED_EDGE('',*,*,#221,.T.);
#151=ORIENTED_EDGE('',*,*,#252,.F.);
#152=ORIENTED_EDGE('',*,*,#253,.F.);
#153=ORIENTED_EDGE('',*,*,#246,.T.);
#154=ORIENTED_EDGE('',*,*,#254,.F.);
#155=ORIENTED_EDGE('',*,*,#255,.F.);
#156=ORIENTED_EDGE('',*,*,#256,.F.);
#157=ORIENTED_EDGE('',*,*,#257,.T.);
#158=ORIENTED_EDGE('',*,*,#258,.T.);
#159=ORIENTED_EDGE('',*,*,#259,.T.);
#160=ORIENTED_EDGE('',*,*,#260,.T.);
#161=ORIENTED_EDGE('',*,*,#261,.T.);
#162=ORIENTED_EDGE('',*,*,#262,.T.);
#163=ORIENTED_EDGE('',*,*,#263,.T.);
#164=ORIENTED_EDGE('',*,*,#264,.T.);
#165=ORIENTED_EDGE('',*,*,#247,.T.);
#166=ORIENTED_EDGE('',*,*,#253,.T.);
#167=ORIENTED_EDGE('',*,*,#251,.F.);
#168=ORIENTED_EDGE('',*,*,#249,.F.);
#169=ORIENTED_EDGE('',*,*,#265,.T.);
#170=ORIENTED_EDGE('',*,*,#264,.F.);
#171=ORIENTED_EDGE('',*,*,#265,.F.);
#172=ORIENTED_EDGE('',*,*,#266,.T.);
#173=ORIENTED_EDGE('',*,*,#263,.F.);
#174=ORIENTED_EDGE('',*,*,#266,.F.);
#175=ORIENTED_EDGE('',*,*,#267,.T.);
#176=ORIENTED_EDGE('',*,*,#262,.F.);
#177=ORIENTED_EDGE('',*,*,#267,.F.);
#178=ORIENTED_EDGE('',*,*,#268,.T.);
#179=ORIENTED_EDGE('',*,*,#261,.F.);
#180=ORIENTED_EDGE('',*,*,#268,.F.);
#181=ORIENTED_EDGE('',*,*,#269,.T.);
#182=ORIENTED_EDGE('',*,*,#260,.F.);
#183=ORIENTED_EDGE('',*,*,#269,.F.);
#184=ORIENTED_EDGE('',*,*,#270,.T.);
#185=ORIENTED_EDGE('',*,*,#259,.F.);
#186=ORIENTED_EDGE('',*,*,#270,.F.);
#187=ORIENTED_EDGE('',*,*,#271,.T.);
#188=ORIENTED_EDGE('',*,*,#258,.F.);
#189=ORIENTED_EDGE('',*,*,#271,.F.);
#190=ORIENTED_EDGE('',*,*,#272,.T.);
#191=ORIENTED_EDGE('',*,*,#257,.F.);
#192=ORIENTED_EDGE('',*,*,#272,.F.);
#193=ORIENTED_EDGE('',*,*,#273,.T.);
#194=ORIENTED_EDGE('',*,*,#274,.F.);
#195=ORIENTED_EDGE('',*,*,#256,.T.);
#196=ORIENTED_EDGE('',*,*,#275,.T.);
#197=ORIENTED_EDGE('',*,*,#274,.T.);
#198=ORIENTED_EDGE('',*,*,#275,.F.);
#199=ORIENTED_EDGE('',*,*,#273,.F.);
#200=ORIENTED_EDGE('',*,*,#276,.T.);
#201=ORIENTED_EDGE('',*,*,#277,.F.);
#202=ORIENTED_EDGE('',*,*,#255,.T.);
#203=ORIENTED_EDGE('',*,*,#278,.T.);
#204=ORIENTED_EDGE('',*,*,#277,.T.);
#205=ORIENTED_EDGE('',*,*,#278,.F.);
#206=ORIENTED_EDGE('',*,*,#276,.F.);
#207=ORIENTED_EDGE('',*,*,#279,.T.);
#208=ORIENTED_EDGE('',*,*,#280,.F.);
#209=ORIENTED_EDGE('',*,*,#254,.T.);
#210=ORIENTED_EDGE('',*,*,#281,.T.);
#211=ORIENTED_EDGE('',*,*,#280,.T.);
#212=ORIENTED_EDGE('',*,*,#281,.F.);
#213=ORIENTED_EDGE('',*,*,#279,.F.);
#214=EDGE_CURVE('',#282,#283,#342,.T.);
#215=EDGE_CURVE('',#283,#284,#343,.T.);
#216=EDGE_CURVE('',#285,#284,#344,.T.);
#217=EDGE_CURVE('',#282,#285,#345,.T.);
#218=EDGE_CURVE('',#286,#287,#346,.T.);
#219=EDGE_CURVE('',#286,#288,#347,.T.);
#220=EDGE_CURVE('',#288,#289,#348,.T.);
#221=EDGE_CURVE('',#287,#289,#349,.T.);
#222=EDGE_CURVE('',#290,#282,#350,.T.);
#223=EDGE_CURVE('',#290,#291,#351,.T.);
#224=EDGE_CURVE('',#291,#283,#352,.T.);
#225=EDGE_CURVE('',#292,#285,#353,.T.);
#226=EDGE_CURVE('',#290,#292,#354,.T.);
#227=EDGE_CURVE('',#293,#284,#355,.T.);
#228=EDGE_CURVE('',#292,#293,#356,.T.);
#229=EDGE_CURVE('',#291,#293,#357,.T.);
#230=EDGE_CURVE('',#294,#294,#34,.T.);
#231=EDGE_CURVE('',#295,#295,#35,.T.);
#232=EDGE_CURVE('',#296,#296,#36,.T.);
#233=EDGE_CURVE('',#297,#297,#37,.T.);
#234=EDGE_CURVE('',#298,#298,#38,.T.);
#235=EDGE_CURVE('',#299,#299,#39,.T.);
#236=EDGE_CURVE('',#300,#300,#40,.T.);
#237=EDGE_CURVE('',#301,#301,#41,.T.);
#238=EDGE_CURVE('',#302,#302,#42,.T.);
#239=EDGE_CURVE('',#303,#303,#43,.T.);
#240=EDGE_CURVE('',#304,#304,#44,.T.);
#241=EDGE_CURVE('',#305,#305,#45,.T.);
#242=EDGE_CURVE('',#306,#306,#46,.T.);
#243=EDGE_CURVE('',#307,#307,#47,.T.);
#244=EDGE_CURVE('',#308,#308,#48,.T.);
#245=EDGE_CURVE('',#309,#309,#49,.T.);
#246=EDGE_CURVE('',#310,#287,#358,.T.);
#247=EDGE_CURVE('',#311,#310,#359,.T.);
#248=EDGE_CURVE('',#311,#286,#360,.T.);
#249=EDGE_CURVE('',#311,#312,#361,.T.);
#250=EDGE_CURVE('',#312,#288,#362,.T.);
#251=EDGE_CURVE('',#312,#313,#363,.T.);
#252=EDGE_CURVE('',#313,#289,#364,.T.);
#253=EDGE_CURVE('',#310,#313,#365,.T.);
#254=EDGE_CURVE('',#314,#314,#50,.F.);
#255=EDGE_CURVE('',#315,#315,#51,.F.);
#256=EDGE_CURVE('',#316,#316,#52,.F.);
#257=EDGE_CURVE('',#317,#317,#53,.T.);
#258=EDGE_CURVE('',#318,#318,#54,.T.);
#259=EDGE_CURVE('',#319,#319,#55,.T.);
#260=EDGE_CURVE('',#320,#320,#56,.T.);
#261=EDGE_CURVE('',#321,#321,#57,.T.);
#262=EDGE_CURVE('',#322,#322,#58,.T.);
#263=EDGE_CURVE('',#323,#323,#59,.T.);
#264=EDGE_CURVE('',#324,#324,#60,.T.);
#265=EDGE_CURVE('',#325,#325,#61,.T.);
#266=EDGE_CURVE('',#326,#326,#62,.T.);
#267=EDGE_CURVE('',#327,#327,#63,.T.);
#268=EDGE_CURVE('',#328,#328,#64,.T.);
#269=EDGE_CURVE('',#329,#329,#65,.T.);
#270=EDGE_CURVE('',#330,#330,#66,.T.);
#271=EDGE_CURVE('',#331,#331,#67,.T.);
#272=EDGE_CURVE('',#332,#332,#68,.T.);
#273=EDGE_CURVE('',#333,#333,#69,.T.);
#274=EDGE_CURVE('',#334,#334,#70,.T.);
#275=EDGE_CURVE('',#335,#335,#71,.T.);
#276=EDGE_CURVE('',#336,#336,#72,.T.);
#277=EDGE_CURVE('',#337,#337,#73,.T.);
#278=EDGE_CURVE('',#338,#338,#74,.T.);
#279=EDGE_CURVE('',#339,#339,#75,.T.);
#280=EDGE_CURVE('',#340,#340,#76,.T.);
#281=EDGE_CURVE('',#341,#341,#77,.T.);
#282=VERTEX_POINT('',#1017);
#283=VERTEX_POINT('',#1018);
#284=VERTEX_POINT('',#1020);
#285=VERTEX_POINT('',#1022);
#286=VERTEX_POINT('',#1025);
#287=VERTEX_POINT('',#1026);
#288=VERTEX_POINT('',#1028);
#289=VERTEX_POINT('',#1030);
#290=VERTEX_POINT('',#1034);
#291=VERTEX_POINT('',#1036);
#292=VERTEX_POINT('',#1040);
#293=VERTEX_POINT('',#1044);
#294=VERTEX_POINT('',#1050);
#295=VERTEX_POINT('',#1052);
#296=VERTEX_POINT('',#1054);
#297=VERTEX_POINT('',#1056);
#298=VERTEX_POINT('',#1058);
#299=VERTEX_POINT('',#1060);
#300=VERTEX_POINT('',#1062);
#301=VERTEX_POINT('',#1064);
#302=VERTEX_POINT('',#1067);
#303=VERTEX_POINT('',#1071);
#304=VERTEX_POINT('',#1075);
#305=VERTEX_POINT('',#1079);
#306=VERTEX_POINT('',#1083);
#307=VERTEX_POINT('',#1087);
#308=VERTEX_POINT('',#1091);
#309=VERTEX_POINT('',#1095);
#310=VERTEX_POINT('',#1099);
#311=VERTEX_POINT('',#1101);
#312=VERTEX_POINT('',#1105);
#313=VERTEX_POINT('',#1109);
#314=VERTEX_POINT('',#1115);
#315=VERTEX_POINT('',#1117);
#316=VERTEX_POINT('',#1119);
#317=VERTEX_POINT('',#1121);
#318=VERTEX_POINT('',#1123);
#319=VERTEX_POINT('',#1125);
#320=VERTEX_POINT('',#1127);
#321=VERTEX_POINT('',#1129);
#322=VERTEX_POINT('',#1131);
#323=VERTEX_POINT('',#1133);
#324=VERTEX_POINT('',#1135);
#325=VERTEX_POINT('',#1138);
#326=VERTEX_POINT('',#1142);
#327=VERTEX_POINT('',#1146);
#328=VERTEX_POINT('',#1150);
#329=VERTEX_POINT('',#1154);
#330=VERTEX_POINT('',#1158);
#331=VERTEX_POINT('',#1162);
#332=VERTEX_POINT('',#1166);
#333=VERTEX_POINT('',#1170);
#334=VERTEX_POINT('',#1172);
#335=VERTEX_POINT('',#1175);
#336=VERTEX_POINT('',#1180);
#337=VERTEX_POINT('',#1182);
#338=VERTEX_POINT('',#1185);
#339=VERTEX_POINT('',#1190);
#340=VERTEX_POINT('',#1192);
#341=VERTEX_POINT('',#1195);
#342=LINE('',#1016,#366);
#343=LINE('',#1019,#367);
#344=LINE('',#1021,#368);
#345=LINE('',#1023,#369);
#346=LINE('',#1024,#370);
#347=LINE('',#1027,#371);
#348=LINE('',#1029,#372);
#349=LINE('',#1031,#373);
#350=LINE('',#1033,#374);
#351=LINE('',#1035,#375);
#352=LINE('',#1037,#376);
#353=LINE('',#1039,#377);
#354=LINE('',#1041,#378);
#355=LINE('',#1043,#379);
#356=LINE('',#1045,#380);
#357=LINE('',#1047,#381);
#358=LINE('',#1098,#382);
#359=LINE('',#1100,#383);
#360=LINE('',#1102,#384);
#361=LINE('',#1104,#385);
#362=LINE('',#1106,#386);
#363=LINE('',#1108,#387);
#364=LINE('',#1110,#388);
#365=LINE('',#1112,#389);
#366=VECTOR('',#794,1.);
#367=VECTOR('',#795,1.);
#368=VECTOR('',#796,1.);
#369=VECTOR('',#797,1.);
#370=VECTOR('',#798,1.);
#371=VECTOR('',#799,1.);
#372=VECTOR('',#800,1.);
#373=VECTOR('',#801,1.);
#374=VECTOR('',#804,1.);
#375=VECTOR('',#805,1.);
#376=VECTOR('',#806,1.);
#377=VECTOR('',#809,1.);
#378=VECTOR('',#810,1.);
#379=VECTOR('',#813,1.);
#380=VECTOR('',#814,1.);
#381=VECTOR('',#817,1.);
#382=VECTOR('',#886,1.);
#383=VECTOR('',#887,1.);
#384=VECTOR('',#888,1.);
#385=VECTOR('',#891,1.);
#386=VECTOR('',#892,1.);
#387=VECTOR('',#895,1.);
#388=VECTOR('',#896,1.);
#389=VECTOR('',#899,1.);
#390=EDGE_LOOP('',(#78,#79,#80,#81));
#391=EDGE_LOOP('',(#82,#83,#84,#85));
#392=EDGE_LOOP('',(#86,#87,#88,#89));
#393=EDGE_LOOP('',(#90,#91,#92,#93));
#394=EDGE_LOOP('',(#94,#95,#96,#97));
#395=EDGE_LOOP('',(#98,#99,#100,#101));
#396=EDGE_LOOP('',(#102));
#397=EDGE_LOOP('',(#103));
#398=EDGE_LOOP('',(#104));
#399=EDGE_LOOP('',(#105));
#400=EDGE_LOOP('',(#106));
#401=EDGE_LOOP('',(#107));
#402=EDGE_LOOP('',(#108));
#403=EDGE_LOOP('',(#109));
#404=EDGE_LOOP('',(#110,#111,#112,#113));
#405=EDGE_LOOP('',(#114));
#406=EDGE_LOOP('',(#115));
#407=EDGE_LOOP('',(#116));
#408=EDGE_LOOP('',(#117));
#409=EDGE_LOOP('',(#118));
#410=EDGE_LOOP('',(#119));
#411=EDGE_LOOP('',(#120));
#412=EDGE_LOOP('',(#121));
#413=EDGE_LOOP('',(#122));
#414=EDGE_LOOP('',(#123));
#415=EDGE_LOOP('',(#124));
#416=EDGE_LOOP('',(#125));
#417=EDGE_LOOP('',(#126));
#418=EDGE_LOOP('',(#127));
#419=EDGE_LOOP('',(#128));
#420=EDGE_LOOP('',(#129));
#421=EDGE_LOOP('',(#130));
#422=EDGE_LOOP('',(#131));
#423=EDGE_LOOP('',(#132));
#424=EDGE_LOOP('',(#133));
#425=EDGE_LOOP('',(#134));
#426=EDGE_LOOP('',(#135));
#427=EDGE_LOOP('',(#136));
#428=EDGE_LOOP('',(#137));
#429=EDGE_LOOP('',(#138,#139,#140,#141));
#430=EDGE_LOOP('',(#142,#143,#144,#145));
#431=EDGE_LOOP('',(#146,#147,#148,#149));
#432=EDGE_LOOP('',(#150,#151,#152,#153));
#433=EDGE_LOOP('',(#154));
#434=EDGE_LOOP('',(#155));
#435=EDGE_LOOP('',(#156));
#436=EDGE_LOOP('',(#157));
#437=EDGE_LOOP('',(#158));
#438=EDGE_LOOP('',(#159));
#439=EDGE_LOOP('',(#160));
#440=EDGE_LOOP('',(#161));
#441=EDGE_LOOP('',(#162));
#442=EDGE_LOOP('',(#163));
#443=EDGE_LOOP('',(#164));
#444=EDGE_LOOP('',(#165,#166,#167,#168));
#445=EDGE_LOOP('',(#169));
#446=EDGE_LOOP('',(#170));
#447=EDGE_LOOP('',(#171));
#448=EDGE_LOOP('',(#172));
#449=EDGE_LOOP('',(#173));
#450=EDGE_LOOP('',(#174));
#451=EDGE_LOOP('',(#175));
#452=EDGE_LOOP('',(#176));
#453=EDGE_LOOP('',(#177));
#454=EDGE_LOOP('',(#178));
#455=EDGE_LOOP('',(#179));
#456=EDGE_LOOP('',(#180));
#457=EDGE_LOOP('',(#181));
#458=EDGE_LOOP('',(#182));
#459=EDGE_LOOP('',(#183));
#460=EDGE_LOOP('',(#184));
#461=EDGE_LOOP('',(#185));
#462=EDGE_LOOP('',(#186));
#463=EDGE_LOOP('',(#187));
#464=EDGE_LOOP('',(#188));
#465=EDGE_LOOP('',(#189));
#466=EDGE_LOOP('',(#190));
#467=EDGE_LOOP('',(#191));
#468=EDGE_LOOP('',(#192));
#469=EDGE_LOOP('',(#193));
#470=EDGE_LOOP('',(#194));
#471=EDGE_LOOP('',(#195));
#472=EDGE_LOOP('',(#196));
#473=EDGE_LOOP('',(#197));
#474=EDGE_LOOP('',(#198));
#475=EDGE_LOOP('',(#199));
#476=EDGE_LOOP('',(#200));
#477=EDGE_LOOP('',(#201));
#478=EDGE_LOOP('',(#202));
#479=EDGE_LOOP('',(#203));
#480=EDGE_LOOP('',(#204));
#481=EDGE_LOOP('',(#205));
#482=EDGE_LOOP('',(#206));
#483=EDGE_LOOP('',(#207));
#484=EDGE_LOOP('',(#208));
#485=EDGE_LOOP('',(#209));
#486=EDGE_LOOP('',(#210));
#487=EDGE_LOOP('',(#211));
#488=EDGE_LOOP('',(#212));
#489=EDGE_LOOP('',(#213));
#490=FACE_BOUND('',#390,.T.);
#491=FACE_BOUND('',#391,.T.);
#492=FACE_BOUND('',#392,.T.);
#493=FACE_BOUND('',#393,.T.);
#494=FACE_BOUND('',#394,.T.);
#495=FACE_BOUND('',#395,.T.);
#496=FACE_BOUND('',#396,.T.);
#497=FACE_BOUND('',#397,.T.);
#498=FACE_BOUND('',#398,.T.);
#499=FACE_BOUND('',#399,.T.);
#500=FACE_BOUND('',#400,.T.);
#501=FACE_BOUND('',#401,.T.);
#502=FACE_BOUND('',#402,.T.);
#503=FACE_BOUND('',#403,.T.);
#504=FACE_BOUND('',#404,.T.);
#505=FACE_BOUND('',#405,.T.);
#506=FACE_BOUND('',#406,.T.);
#507=FACE_BOUND('',#407,.T.);
#508=FACE_BOUND('',#408,.T.);
#509=FACE_BOUND('',#409,.T.);
#510=FACE_BOUND('',#410,.T.);
#511=FACE_BOUND('',#411,.T.);
#512=FACE_BOUND('',#412,.T.);
#513=FACE_BOUND('',#413,.T.);
#514=FACE_BOUND('',#414,.T.);
#515=FACE_BOUND('',#415,.T.);
#516=FACE_BOUND('',#416,.T.);
#517=FACE_BOUND('',#417,.T.);
#518=FACE_BOUND('',#418,.T.);
#519=FACE_BOUND('',#419,.T.);
#520=FACE_BOUND('',#420,.T.);
#521=FACE_BOUND('',#421,.T.);
#522=FACE_BOUND('',#422,.T.);
#523=FACE_BOUND('',#423,.T.);
#524=FACE_BOUND('',#424,.T.);
#525=FACE_BOUND('',#425,.T.);
#526=FACE_BOUND('',#426,.T.);
#527=FACE_BOUND('',#427,.T.);
#528=FACE_BOUND('',#428,.T.);
#529=FACE_BOUND('',#429,.T.);
#530=FACE_BOUND('',#430,.T.);
#531=FACE_BOUND('',#431,.T.);
#532=FACE_BOUND('',#432,.T.);
#533=FACE_BOUND('',#433,.T.);
#534=FACE_BOUND('',#434,.T.);
#535=FACE_BOUND('',#435,.T.);
#536=FACE_BOUND('',#436,.T.);
#537=FACE_BOUND('',#437,.T.);
#538=FACE_BOUND('',#438,.T.);
#539=FACE_BOUND('',#439,.T.);
#540=FACE_BOUND('',#440,.T.);
#541=FACE_BOUND('',#441,.T.);
#542=FACE_BOUND('',#442,.T.);
#543=FACE_BOUND('',#443,.T.);
#544=FACE_BOUND('',#444,.T.);
#545=FACE_BOUND('',#445,.T.);
#546=FACE_BOUND('',#446,.T.);
#547=FACE_BOUND('',#447,.T.);
#548=FACE_BOUND('',#448,.T.);
#549=FACE_BOUND('',#449,.T.);
#550=FACE_BOUND('',#450,.T.);
#551=FACE_BOUND('',#451,.T.);
#552=FACE_BOUND('',#452,.T.);
#553=FACE_BOUND('',#453,.T.);
#554=FACE_BOUND('',#454,.T.);
#555=FACE_BOUND('',#455,.T.);
#556=FACE_BOUND('',#456,.T.);
#557=FACE_BOUND('',#457,.T.);
#558=FACE_BOUND('',#458,.T.);
#559=FACE_BOUND('',#459,.T.);
#560=FACE_BOUND('',#460,.T.);
#561=FACE_BOUND('',#461,.T.);
#562=FACE_BOUND('',#462,.T.);
#563=FACE_BOUND('',#463,.T.);
#564=FACE_BOUND('',#464,.T.);
#565=FACE_BOUND('',#465,.T.);
#566=FACE_BOUND('',#466,.T.);
#567=FACE_BOUND('',#467,.T.);
#568=FACE_BOUND('',#468,.T.);
#569=FACE_BOUND('',#469,.T.);
#570=FACE_BOUND('',#470,.T.);
#571=FACE_BOUND('',#471,.T.);
#572=FACE_BOUND('',#472,.T.);
#573=FACE_BOUND('',#473,.T.);
#574=FACE_BOUND('',#474,.T.);
#575=FACE_BOUND('',#475,.T.);
#576=FACE_BOUND('',#476,.T.);
#577=FACE_BOUND('',#477,.T.);
#578=FACE_BOUND('',#478,.T.);
#579=FACE_BOUND('',#479,.T.);
#580=FACE_BOUND('',#480,.T.);
#581=FACE_BOUND('',#481,.T.);
#582=FACE_BOUND('',#482,.T.);
#583=FACE_BOUND('',#483,.T.);
#584=FACE_BOUND('',#484,.T.);
#585=FACE_BOUND('',#485,.T.);
#586=FACE_BOUND('',#486,.T.);
#587=FACE_BOUND('',#487,.T.);
#588=FACE_BOUND('',#488,.T.);
#589=FACE_BOUND('',#489,.T.);
#590=PLANE('',#691);
#591=PLANE('',#692);
#592=PLANE('',#693);
#593=PLANE('',#694);
#594=PLANE('',#695);
#595=PLANE('',#696);
#596=PLANE('',#707);
#597=PLANE('',#710);
#598=PLANE('',#713);
#599=PLANE('',#716);
#600=PLANE('',#719);
#601=PLANE('',#722);
#602=PLANE('',#725);
#603=PLANE('',#728);
#604=PLANE('',#729);
#605=PLANE('',#730);
#606=PLANE('',#731);
#607=PLANE('',#732);
#608=PLANE('',#733);
#609=PLANE('',#747);
#610=PLANE('',#750);
#611=PLANE('',#753);
#612=PLANE('',#756);
#613=PLANE('',#759);
#614=PLANE('',#762);
#615=PLANE('',#765);
#616=PLANE('',#768);
#617=PLANE('',#774);
#618=PLANE('',#775);
#619=PLANE('',#781);
#620=PLANE('',#782);
#621=PLANE('',#788);
#622=PLANE('',#789);
#623=ADVANCED_FACE('',(#490,#491),#590,.F.);
#624=ADVANCED_FACE('',(#492),#591,.T.);
#625=ADVANCED_FACE('',(#493),#592,.F.);
#626=ADVANCED_FACE('',(#494),#593,.F.);
#627=ADVANCED_FACE('',(#495),#594,.T.);
#628=ADVANCED_FACE('',(#496,#497,#498,#499,#500,#501,#502,#503,#504),#595,
 .T.);
#629=ADVANCED_FACE('',(#505,#506),#12,.T.);
#630=ADVANCED_FACE('',(#507),#596,.T.);
#631=ADVANCED_FACE('',(#508,#509),#13,.T.);
#632=ADVANCED_FACE('',(#510),#597,.T.);
#633=ADVANCED_FACE('',(#511,#512),#14,.T.);
#634=ADVANCED_FACE('',(#513),#598,.T.);
#635=ADVANCED_FACE('',(#514,#515),#15,.T.);
#636=ADVANCED_FACE('',(#516),#599,.T.);
#637=ADVANCED_FACE('',(#517,#518),#16,.T.);
#638=ADVANCED_FACE('',(#519),#600,.T.);
#639=ADVANCED_FACE('',(#520,#521),#17,.T.);
#640=ADVANCED_FACE('',(#522),#601,.T.);
#641=ADVANCED_FACE('',(#523,#524),#18,.T.);
#642=ADVANCED_FACE('',(#525),#602,.T.);
#643=ADVANCED_FACE('',(#526,#527),#19,.T.);
#644=ADVANCED_FACE('',(#528),#603,.T.);
#645=ADVANCED_FACE('',(#529),#604,.F.);
#646=ADVANCED_FACE('',(#530),#605,.T.);
#647=ADVANCED_FACE('',(#531),#606,.T.);
#648=ADVANCED_FACE('',(#532),#607,.F.);
#649=ADVANCED_FACE('',(#533,#534,#535,#536,#537,#538,#539,#540,#541,#542,
#543,#544),#608,.F.);
#650=ADVANCED_FACE('',(#545,#546),#20,.F.);
#651=ADVANCED_FACE('',(#547),#609,.F.);
#652=ADVANCED_FACE('',(#548,#549),#21,.F.);
#653=ADVANCED_FACE('',(#550),#610,.F.);
#654=ADVANCED_FACE('',(#551,#552),#22,.F.);
#655=ADVANCED_FACE('',(#553),#611,.F.);
#656=ADVANCED_FACE('',(#554,#555),#23,.F.);
#657=ADVANCED_FACE('',(#556),#612,.F.);
#658=ADVANCED_FACE('',(#557,#558),#24,.F.);
#659=ADVANCED_FACE('',(#559),#613,.F.);
#660=ADVANCED_FACE('',(#560,#561),#25,.F.);
#661=ADVANCED_FACE('',(#562),#614,.F.);
#662=ADVANCED_FACE('',(#563,#564),#26,.F.);
#663=ADVANCED_FACE('',(#565),#615,.F.);
#664=ADVANCED_FACE('',(#566,#567),#27,.F.);
#665=ADVANCED_FACE('',(#568),#616,.F.);
#666=ADVANCED_FACE('',(#569,#570),#28,.F.);
#667=ADVANCED_FACE('',(#571,#572),#29,.T.);
#668=ADVANCED_FACE('',(#573,#574),#617,.F.);
#669=ADVANCED_FACE('',(#575),#618,.F.);
#670=ADVANCED_FACE('',(#576,#577),#30,.F.);
#671=ADVANCED_FACE('',(#578,#579),#31,.T.);
#672=ADVANCED_FACE('',(#580,#581),#619,.F.);
#673=ADVANCED_FACE('',(#582),#620,.F.);
#674=ADVANCED_FACE('',(#583,#584),#32,.F.);
#675=ADVANCED_FACE('',(#585,#586),#33,.T.);
#676=ADVANCED_FACE('',(#587,#588),#621,.F.);
#677=ADVANCED_FACE('',(#589),#622,.F.);
#678=CLOSED_SHELL('',(#623,#624,#625,#626,#627,#628,#629,#630,#631,#632,
#633,#634,#635,#636,#637,#638,#639,#640,#641,#642,#643,#644,#645,#646,#647,
#648,#649,#650,#651,#652,#653,#654,#655,#656,#657,#658,#659,#660,#661,#662,
#663,#664,#665,#666,#667,#668,#669,#670,#671,#672,#673,#674,#675,#676,#677));
#679=STYLED_ITEM('',(#680),#687);
#680=PRESENTATION_STYLE_ASSIGNMENT((#681));
#681=SURFACE_STYLE_USAGE(.BOTH.,#682);
#682=SURFACE_SIDE_STYLE('',(#683));
#683=SURFACE_STYLE_FILL_AREA(#684);
#684=FILL_AREA_STYLE('',(#685));
#685=FILL_AREA_STYLE_COLOUR('',#686);
#686=COLOUR_RGB('',0.615686274509804,0.811764705882353,0.929411764705882);
#687=MANIFOLD_SOLID_BREP('Part 1',#678);
#688=SHAPE_DEFINITION_REPRESENTATION(#1204,#689);
#689=SHAPE_REPRESENTATION('Part 1',(#690),#1199);
#690=AXIS2_PLACEMENT_3D('',#1014,#790,#791);
#691=AXIS2_PLACEMENT_3D('',#1015,#792,#793);
#692=AXIS2_PLACEMENT_3D('',#1032,#802,#803);
#693=AXIS2_PLACEMENT_3D('',#1038,#807,#808);
#694=AXIS2_PLACEMENT_3D('',#1042,#811,#812);
#695=AXIS2_PLACEMENT_3D('',#1046,#815,#816);
#696=AXIS2_PLACEMENT_3D('',#1048,#818,#819);
#697=AXIS2_PLACEMENT_3D('',#1049,#820,#821);
#698=AXIS2_PLACEMENT_3D('',#1051,#822,#823);
#699=AXIS2_PLACEMENT_3D('',#1053,#824,#825);
#700=AXIS2_PLACEMENT_3D('',#1055,#826,#827);
#701=AXIS2_PLACEMENT_3D('',#1057,#828,#829);
#702=AXIS2_PLACEMENT_3D('',#1059,#830,#831);
#703=AXIS2_PLACEMENT_3D('',#1061,#832,#833);
#704=AXIS2_PLACEMENT_3D('',#1063,#834,#835);
#705=AXIS2_PLACEMENT_3D('',#1065,#836,#837);
#706=AXIS2_PLACEMENT_3D('',#1066,#838,#839);
#707=AXIS2_PLACEMENT_3D('',#1068,#840,#841);
#708=AXIS2_PLACEMENT_3D('',#1069,#842,#843);
#709=AXIS2_PLACEMENT_3D('',#1070,#844,#845);
#710=AXIS2_PLACEMENT_3D('',#1072,#846,#847);
#711=AXIS2_PLACEMENT_3D('',#1073,#848,#849);
#712=AXIS2_PLACEMENT_3D('',#1074,#850,#851);
#713=AXIS2_PLACEMENT_3D('',#1076,#852,#853);
#714=AXIS2_PLACEMENT_3D('',#1077,#854,#855);
#715=AXIS2_PLACEMENT_3D('',#1078,#856,#857);
#716=AXIS2_PLACEMENT_3D('',#1080,#858,#859);
#717=AXIS2_PLACEMENT_3D('',#1081,#860,#861);
#718=AXIS2_PLACEMENT_3D('',#1082,#862,#863);
#719=AXIS2_PLACEMENT_3D('',#1084,#864,#865);
#720=AXIS2_PLACEMENT_3D('',#1085,#866,#867);
#721=AXIS2_PLACEMENT_3D('',#1086,#868,#869);
#722=AXIS2_PLACEMENT_3D('',#1088,#870,#871);
#723=AXIS2_PLACEMENT_3D('',#1089,#872,#873);
#724=AXIS2_PLACEMENT_3D('',#1090,#874,#875);
#725=AXIS2_PLACEMENT_3D('',#1092,#876,#877);
#726=AXIS2_PLACEMENT_3D('',#1093,#878,#879);
#727=AXIS2_PLACEMENT_3D('',#1094,#880,#881);
#728=AXIS2_PLACEMENT_3D('',#1096,#882,#883);
#729=AXIS2_PLACEMENT_3D('',#1097,#884,#885);
#730=AXIS2_PLACEMENT_3D('',#1103,#889,#890);
#731=AXIS2_PLACEMENT_3D('',#1107,#893,#894);
#732=AXIS2_PLACEMENT_3D('',#1111,#897,#898);
#733=AXIS2_PLACEMENT_3D('',#1113,#900,#901);
#734=AXIS2_PLACEMENT_3D('',#1114,#902,#903);
#735=AXIS2_PLACEMENT_3D('',#1116,#904,#905);
#736=AXIS2_PLACEMENT_3D('',#1118,#906,#907);
#737=AXIS2_PLACEMENT_3D('',#1120,#908,#909);
#738=AXIS2_PLACEMENT_3D('',#1122,#910,#911);
#739=AXIS2_PLACEMENT_3D('',#1124,#912,#913);
#740=AXIS2_PLACEMENT_3D('',#1126,#914,#915);
#741=AXIS2_PLACEMENT_3D('',#1128,#916,#917);
#742=AXIS2_PLACEMENT_3D('',#1130,#918,#919);
#743=AXIS2_PLACEMENT_3D('',#1132,#920,#921);
#744=AXIS2_PLACEMENT_3D('',#1134,#922,#923);
#745=AXIS2_PLACEMENT_3D('',#1136,#924,#925);
#746=AXIS2_PLACEMENT_3D('',#1137,#926,#927);
#747=AXIS2_PLACEMENT_3D('',#1139,#928,#929);
#748=AXIS2_PLACEMENT_3D('',#1140,#930,#931);
#749=AXIS2_PLACEMENT_3D('',#1141,#932,#933);
#750=AXIS2_PLACEMENT_3D('',#1143,#934,#935);
#751=AXIS2_PLACEMENT_3D('',#1144,#936,#937);
#752=AXIS2_PLACEMENT_3D('',#1145,#938,#939);
#753=AXIS2_PLACEMENT_3D('',#1147,#940,#941);
#754=AXIS2_PLACEMENT_3D('',#1148,#942,#943);
#755=AXIS2_PLACEMENT_3D('',#1149,#944,#945);
#756=AXIS2_PLACEMENT_3D('',#1151,#946,#947);
#757=AXIS2_PLACEMENT_3D('',#1152,#948,#949);
#758=AXIS2_PLACEMENT_3D('',#1153,#950,#951);
#759=AXIS2_PLACEMENT_3D('',#1155,#952,#953);
#760=AXIS2_PLACEMENT_3D('',#1156,#954,#955);
#761=AXIS2_PLACEMENT_3D('',#1157,#956,#957);
#762=AXIS2_PLACEMENT_3D('',#1159,#958,#959);
#763=AXIS2_PLACEMENT_3D('',#1160,#960,#961);
#764=AXIS2_PLACEMENT_3D('',#1161,#962,#963);
#765=AXIS2_PLACEMENT_3D('',#1163,#964,#965);
#766=AXIS2_PLACEMENT_3D('',#1164,#966,#967);
#767=AXIS2_PLACEMENT_3D('',#1165,#968,#969);
#768=AXIS2_PLACEMENT_3D('',#1167,#970,#971);
#769=AXIS2_PLACEMENT_3D('',#1168,#972,#973);
#770=AXIS2_PLACEMENT_3D('',#1169,#974,#975);
#771=AXIS2_PLACEMENT_3D('',#1171,#976,#977);
#772=AXIS2_PLACEMENT_3D('',#1173,#978,#979);
#773=AXIS2_PLACEMENT_3D('',#1174,#980,#981);
#774=AXIS2_PLACEMENT_3D('',#1176,#982,#983);
#775=AXIS2_PLACEMENT_3D('',#1177,#984,#985);
#776=AXIS2_PLACEMENT_3D('',#1178,#986,#987);
#777=AXIS2_PLACEMENT_3D('',#1179,#988,#989);
#778=AXIS2_PLACEMENT_3D('',#1181,#990,#991);
#779=AXIS2_PLACEMENT_3D('',#1183,#992,#993);
#780=AXIS2_PLACEMENT_3D('',#1184,#994,#995);
#781=AXIS2_PLACEMENT_3D('',#1186,#996,#997);
#782=AXIS2_PLACEMENT_3D('',#1187,#998,#999);
#783=AXIS2_PLACEMENT_3D('',#1188,#1000,#1001);
#784=AXIS2_PLACEMENT_3D('',#1189,#1002,#1003);
#785=AXIS2_PLACEMENT_3D('',#1191,#1004,#1005);
#786=AXIS2_PLACEMENT_3D('',#1193,#1006,#1007);
#787=AXIS2_PLACEMENT_3D('',#1194,#1008,#1009);
#788=AXIS2_PLACEMENT_3D('',#1196,#1010,#1011);
#789=AXIS2_PLACEMENT_3D('',#1197,#1012,#1013);
#790=DIRECTION('',(0.,0.,1.));
#791=DIRECTION('',(1.,0.,0.));
#792=DIRECTION('',(0.,0.,1.));
#793=DIRECTION('',(1.,0.,0.));
#794=DIRECTION('',(1.,0.,0.));
#795=DIRECTION('',(0.,-1.,0.));
#796=DIRECTION('',(1.,0.,0.));
#797=DIRECTION('',(0.,-1.,0.));
#798=DIRECTION('',(1.,0.,0.));
#799=DIRECTION('',(0.,-1.,0.));
#800=DIRECTION('',(1.,0.,0.));
#801=DIRECTION('',(0.,-1.,0.));
#802=DIRECTION('',(0.,1.,0.));
#803=DIRECTION('',(0.,0.,1.));
#804=DIRECTION('',(0.,0.,-1.));
#805=DIRECTION('',(1.,0.,0.));
#806=DIRECTION('',(0.,0.,-1.));
#807=DIRECTION('',(1.,0.,0.));
#808=DIRECTION('',(0.,0.,-1.));
#809=DIRECTION('',(0.,0.,-1.));
#810=DIRECTION('',(0.,-1.,0.));
#811=DIRECTION('',(0.,1.,0.));
#812=DIRECTION('',(0.,0.,1.));
#813=DIRECTION('',(0.,0.,-1.));
#814=DIRECTION('',(1.,0.,0.));
#815=DIRECTION('',(1.,0.,0.));
#816=DIRECTION('',(0.,0.,-1.));
#817=DIRECTION('',(0.,-1.,0.));
#818=DIRECTION('',(0.,0.,1.));
#819=DIRECTION('',(1.,0.,0.));
#820=DIRECTION('',(0.,0.,1.));
#821=DIRECTION('',(1.,0.,0.));
#822=DIRECTION('',(0.,0.,1.));
#823=DIRECTION('',(1.,0.,0.));
#824=DIRECTION('',(0.,0.,1.));
#825=DIRECTION('',(1.,0.,0.));
#826=DIRECTION('',(0.,0.,1.));
#827=DIRECTION('',(1.,0.,0.));
#828=DIRECTION('',(0.,0.,1.));
#829=DIRECTION('',(1.,0.,0.));
#830=DIRECTION('',(0.,0.,1.));
#831=DIRECTION('',(1.,0.,0.));
#832=DIRECTION('',(0.,0.,1.));
#833=DIRECTION('',(1.,0.,0.));
#834=DIRECTION('',(0.,0.,1.));
#835=DIRECTION('',(1.,0.,0.));
#836=DIRECTION('',(0.,0.,-1.));
#837=DIRECTION('',(-1.,0.,0.));
#838=DIRECTION('',(0.,0.,1.));
#839=DIRECTION('',(1.,0.,0.));
#840=DIRECTION('',(0.,0.,1.));
#841=DIRECTION('',(1.,0.,0.));
#842=DIRECTION('',(0.,0.,-1.));
#843=DIRECTION('',(-1.,0.,0.));
#844=DIRECTION('',(0.,0.,1.));
#845=DIRECTION('',(1.,0.,0.));
#846=DIRECTION('',(0.,0.,1.));
#847=DIRECTION('',(1.,0.,0.));
#848=DIRECTION('',(0.,0.,-1.));
#849=DIRECTION('',(-1.,0.,0.));
#850=DIRECTION('',(0.,0.,1.));
#851=DIRECTION('',(1.,0.,0.));
#852=DIRECTION('',(0.,0.,1.));
#853=DIRECTION('',(1.,0.,0.));
#854=DIRECTION('',(0.,0.,-1.));
#855=DIRECTION('',(-1.,0.,0.));
#856=DIRECTION('',(0.,0.,1.));
#857=DIRECTION('',(1.,0.,0.));
#858=DIRECTION('',(0.,0.,1.));
#859=DIRECTION('',(1.,0.,0.));
#860=DIRECTION('',(0.,0.,-1.));
#861=DIRECTION('',(-1.,0.,0.));
#862=DIRECTION('',(0.,0.,1.));
#863=DIRECTION('',(1.,0.,0.));
#864=DIRECTION('',(0.,0.,1.));
#865=DIRECTION('',(1.,0.,0.));
#866=DIRECTION('',(0.,0.,-1.));
#867=DIRECTION('',(-1.,0.,0.));
#868=DIRECTION('',(0.,0.,1.));
#869=DIRECTION('',(1.,0.,0.));
#870=DIRECTION('',(0.,0.,1.));
#871=DIRECTION('',(1.,0.,0.));
#872=DIRECTION('',(0.,0.,-1.));
#873=DIRECTION('',(-1.,0.,0.));
#874=DIRECTION('',(0.,0.,1.));
#875=DIRECTION('',(1.,0.,0.));
#876=DIRECTION('',(0.,0.,1.));
#877=DIRECTION('',(1.,0.,0.));
#878=DIRECTION('',(0.,0.,-1.));
#879=DIRECTION('',(-1.,0.,0.));
#880=DIRECTION('',(0.,0.,1.));
#881=DIRECTION('',(1.,0.,0.));
#882=DIRECTION('',(0.,0.,1.));
#883=DIRECTION('',(1.,0.,0.));
#884=DIRECTION('',(0.,1.,0.));
#885=DIRECTION('',(0.,0.,1.));
#886=DIRECTION('',(0.,0.,-1.));
#887=DIRECTION('',(1.,0.,0.));
#888=DIRECTION('',(0.,0.,-1.));
#889=DIRECTION('',(1.,0.,0.));
#890=DIRECTION('',(0.,0.,-1.));
#891=DIRECTION('',(0.,-1.,0.));
#892=DIRECTION('',(0.,0.,-1.));
#893=DIRECTION('',(0.,1.,0.));
#894=DIRECTION('',(0.,0.,1.));
#895=DIRECTION('',(1.,0.,0.));
#896=DIRECTION('',(0.,0.,-1.));
#897=DIRECTION('',(1.,0.,0.));
#898=DIRECTION('',(0.,0.,-1.));
#899=DIRECTION('',(0.,-1.,0.));
#900=DIRECTION('',(0.,0.,1.));
#901=DIRECTION('',(1.,0.,0.));
#902=DIRECTION('',(0.,0.,1.));
#903=DIRECTION('',(1.,0.,0.));
#904=DIRECTION('',(0.,0.,1.));
#905=DIRECTION('',(1.,0.,0.));
#906=DIRECTION('',(0.,0.,1.));
#907=DIRECTION('',(1.,0.,0.));
#908=DIRECTION('',(0.,0.,1.));
#909=DIRECTION('',(1.,0.,0.));
#910=DIRECTION('',(0.,0.,1.));
#911=DIRECTION('',(1.,0.,0.));
#912=DIRECTION('',(0.,0.,1.));
#913=DIRECTION('',(1.,0.,0.));
#914=DIRECTION('',(0.,0.,1.));
#915=DIRECTION('',(1.,0.,0.));
#916=DIRECTION('',(0.,0.,1.));
#917=DIRECTION('',(1.,0.,0.));
#918=DIRECTION('',(0.,0.,1.));
#919=DIRECTION('',(1.,0.,0.));
#920=DIRECTION('',(0.,0.,1.));
#921=DIRECTION('',(1.,0.,0.));
#922=DIRECTION('',(0.,0.,1.));
#923=DIRECTION('',(1.,0.,0.));
#924=DIRECTION('',(0.,0.,-1.));
#925=DIRECTION('',(-1.,0.,0.));
#926=DIRECTION('',(0.,0.,1.));
#927=DIRECTION('',(1.,0.,0.));
#928=DIRECTION('',(0.,0.,1.));
#929=DIRECTION('',(1.,0.,0.));
#930=DIRECTION('',(0.,0.,-1.));
#931=DIRECTION('',(-1.,0.,0.));
#932=DIRECTION('',(0.,0.,1.));
#933=DIRECTION('',(1.,0.,0.));
#934=DIRECTION('',(0.,0.,1.));
#935=DIRECTION('',(1.,0.,0.));
#936=DIRECTION('',(0.,0.,-1.));
#937=DIRECTION('',(-1.,0.,0.));
#938=DIRECTION('',(0.,0.,1.));
#939=DIRECTION('',(1.,0.,0.));
#940=DIRECTION('',(0.,0.,1.));
#941=DIRECTION('',(1.,0.,0.));
#942=DIRECTION('',(0.,0.,-1.));
#943=DIRECTION('',(-1.,0.,0.));
#944=DIRECTION('',(0.,0.,1.));
#945=DIRECTION('',(1.,0.,0.));
#946=DIRECTION('',(0.,0.,1.));
#947=DIRECTION('',(1.,0.,0.));
#948=DIRECTION('',(0.,0.,-1.));
#949=DIRECTION('',(-1.,0.,0.));
#950=DIRECTION('',(0.,0.,1.));
#951=DIRECTION('',(1.,0.,0.));
#952=DIRECTION('',(0.,0.,1.));
#953=DIRECTION('',(1.,0.,0.));
#954=DIRECTION('',(0.,0.,-1.));
#955=DIRECTION('',(-1.,0.,0.));
#956=DIRECTION('',(0.,0.,1.));
#957=DIRECTION('',(1.,0.,0.));
#958=DIRECTION('',(0.,0.,1.));
#959=DIRECTION('',(1.,0.,0.));
#960=DIRECTION('',(0.,0.,-1.));
#961=DIRECTION('',(-1.,0.,0.));
#962=DIRECTION('',(0.,0.,1.));
#963=DIRECTION('',(1.,0.,0.));
#964=DIRECTION('',(0.,0.,1.));
#965=DIRECTION('',(1.,0.,0.));
#966=DIRECTION('',(0.,0.,-1.));
#967=DIRECTION('',(-1.,0.,0.));
#968=DIRECTION('',(0.,0.,1.));
#969=DIRECTION('',(1.,0.,0.));
#970=DIRECTION('',(0.,0.,1.));
#971=DIRECTION('',(1.,0.,0.));
#972=DIRECTION('',(0.,0.,-1.));
#973=DIRECTION('',(-1.,0.,0.));
#974=DIRECTION('',(0.,0.,1.));
#975=DIRECTION('',(1.,0.,0.));
#976=DIRECTION('',(0.,0.,1.));
#977=DIRECTION('',(1.,0.,0.));
#978=DIRECTION('',(0.,0.,-1.));
#979=DIRECTION('',(-1.,0.,0.));
#980=DIRECTION('',(0.,0.,1.));
#981=DIRECTION('',(1.,0.,0.));
#982=DIRECTION('',(0.,0.,1.));
#983=DIRECTION('',(1.,0.,0.));
#984=DIRECTION('',(0.,0.,1.));
#985=DIRECTION('',(1.,0.,0.));
#986=DIRECTION('',(0.,0.,-1.));
#987=DIRECTION('',(-1.,0.,0.));
#988=DIRECTION('',(0.,0.,1.));
#989=DIRECTION('',(1.,0.,0.));
#990=DIRECTION('',(0.,0.,1.));
#991=DIRECTION('',(1.,0.,0.));
#992=DIRECTION('',(0.,0.,-1.));
#993=DIRECTION('',(-1.,0.,0.));
#994=DIRECTION('',(0.,0.,1.));
#995=DIRECTION('',(1.,0.,0.));
#996=DIRECTION('',(0.,0.,1.));
#997=DIRECTION('',(1.,0.,0.));
#998=DIRECTION('',(0.,0.,1.));
#999=DIRECTION('',(1.,0.,0.));
#1000=DIRECTION('',(0.,0.,-1.));
#1001=DIRECTION('',(-1.,0.,0.));
#1002=DIRECTION('',(0.,0.,1.));
#1003=DIRECTION('',(1.,0.,0.));
#1004=DIRECTION('',(0.,0.,1.));
#1005=DIRECTION('',(1.,0.,0.));
#1006=DIRECTION('',(0.,0.,-1.));
#1007=DIRECTION('',(-1.,0.,0.));
#1008=DIRECTION('',(0.,0.,1.));
#1009=DIRECTION('',(1.,0.,0.));
#1010=DIRECTION('',(0.,0.,1.));
#1011=DIRECTION('',(1.,0.,0.));
#1012=DIRECTION('',(0.,0.,1.));
#1013=DIRECTION('',(1.,0.,0.));
#1014=CARTESIAN_POINT('',(0.,0.,0.));
#1015=CARTESIAN_POINT('',(-3.46944695195361E-18,0.,0.));
#1016=CARTESIAN_POINT('',(0.,0.0079,0.));
#1017=CARTESIAN_POINT('',(-0.0159,0.0079,0.));
#1018=CARTESIAN_POINT('',(0.0159,0.0079,0.));
#1019=CARTESIAN_POINT('',(0.0159,0.,0.));
#1020=CARTESIAN_POINT('',(0.0159,-0.0079,0.));
#1021=CARTESIAN_POINT('',(0.,-0.0079,0.));
#1022=CARTESIAN_POINT('',(-0.0159,-0.0079,0.));
#1023=CARTESIAN_POINT('',(-0.0159,0.,0.));
#1024=CARTESIAN_POINT('',(0.,0.0067,0.));
#1025=CARTESIAN_POINT('',(-0.0147,0.0067,0.));
#1026=CARTESIAN_POINT('',(0.0147,0.0067,0.));
#1027=CARTESIAN_POINT('',(-0.0147,0.,0.));
#1028=CARTESIAN_POINT('',(-0.0147,-0.0067,0.));
#1029=CARTESIAN_POINT('',(0.,-0.0067,0.));
#1030=CARTESIAN_POINT('',(0.0147,-0.0067,0.));
#1031=CARTESIAN_POINT('',(0.0147,0.,0.));
#1032=CARTESIAN_POINT('',(0.,0.0079,0.0096));
#1033=CARTESIAN_POINT('',(-0.0159,0.0079,0.0096));
#1034=CARTESIAN_POINT('',(-0.0159,0.0079,0.0096));
#1035=CARTESIAN_POINT('',(0.,0.0079,0.0096));
#1036=CARTESIAN_POINT('',(0.0159,0.0079,0.0096));
#1037=CARTESIAN_POINT('',(0.0159,0.0079,0.0096));
#1038=CARTESIAN_POINT('',(-0.0159,0.,0.0096));
#1039=CARTESIAN_POINT('',(-0.0159,-0.0079,0.0096));
#1040=CARTESIAN_POINT('',(-0.0159,-0.0079,0.0096));
#1041=CARTESIAN_POINT('',(-0.0159,0.,0.0096));
#1042=CARTESIAN_POINT('',(0.,-0.0079,0.0096));
#1043=CARTESIAN_POINT('',(0.0159,-0.0079,0.0096));
#1044=CARTESIAN_POINT('',(0.0159,-0.0079,0.0096));
#1045=CARTESIAN_POINT('',(0.,-0.0079,0.0096));
#1046=CARTESIAN_POINT('',(0.0159,0.,0.0096));
#1047=CARTESIAN_POINT('',(0.0159,0.,0.0096));
#1048=CARTESIAN_POINT('',(-3.46944695195361E-18,0.,0.0096));
#1049=CARTESIAN_POINT('',(0.004,0.004,0.0096));
#1050=CARTESIAN_POINT('',(0.0064,0.004,0.0096));
#1051=CARTESIAN_POINT('',(-0.004,-0.004,0.0096));
#1052=CARTESIAN_POINT('',(-0.0016,-0.004,0.0096));
#1053=CARTESIAN_POINT('',(-0.004,0.004,0.0096));
#1054=CARTESIAN_POINT('',(-0.0016,0.004,0.0096));
#1055=CARTESIAN_POINT('',(-0.012,-0.004,0.0096));
#1056=CARTESIAN_POINT('',(-0.0096,-0.004,0.0096));
#1057=CARTESIAN_POINT('',(0.012,-0.004,0.0096));
#1058=CARTESIAN_POINT('',(0.0144,-0.004,0.0096));
#1059=CARTESIAN_POINT('',(0.012,0.004,0.0096));
#1060=CARTESIAN_POINT('',(0.0144,0.004,0.0096));
#1061=CARTESIAN_POINT('',(0.004,-0.004,0.0096));
#1062=CARTESIAN_POINT('',(0.0064,-0.004,0.0096));
#1063=CARTESIAN_POINT('',(-0.012,0.004,0.0096));
#1064=CARTESIAN_POINT('',(-0.0096,0.004,0.0096));
#1065=CARTESIAN_POINT('',(-0.012,0.004,0.0114));
#1066=CARTESIAN_POINT('',(-0.012,0.004,0.0114));
#1067=CARTESIAN_POINT('',(-0.0096,0.004,0.0114));
#1068=CARTESIAN_POINT('',(-3.46944695195361E-18,0.,0.0114));
#1069=CARTESIAN_POINT('',(0.004,-0.004,0.0114));
#1070=CARTESIAN_POINT('',(0.004,-0.004,0.0114));
#1071=CARTESIAN_POINT('',(0.0064,-0.004,0.0114));
#1072=CARTESIAN_POINT('',(-3.46944695195361E-18,0.,0.0114));
#1073=CARTESIAN_POINT('',(0.012,0.004,0.0114));
#1074=CARTESIAN_POINT('',(0.012,0.004,0.0114));
#1075=CARTESIAN_POINT('',(0.0144,0.004,0.0114));
#1076=CARTESIAN_POINT('',(-3.46944695195361E-18,0.,0.0114));
#1077=CARTESIAN_POINT('',(0.012,-0.004,0.0114));
#1078=CARTESIAN_POINT('',(0.012,-0.004,0.0114));
#1079=CARTESIAN_POINT('',(0.0144,-0.004,0.0114));
#1080=CARTESIAN_POINT('',(-3.46944695195361E-18,0.,0.0114));
#1081=CARTESIAN_POINT('',(-0.012,-0.004,0.0114));
#1082=CARTESIAN_POINT('',(-0.012,-0.004,0.0114));
#1083=CARTESIAN_POINT('',(-0.0096,-0.004,0.0114));
#1084=CARTESIAN_POINT('',(-3.46944695195361E-18,0.,0.0114));
#1085=CARTESIAN_POINT('',(-0.004,0.004,0.0114));
#1086=CARTESIAN_POINT('',(-0.004,0.004,0.0114));
#1087=CARTESIAN_POINT('',(-0.0016,0.004,0.0114));
#1088=CARTESIAN_POINT('',(-3.46944695195361E-18,0.,0.0114));
#1089=CARTESIAN_POINT('',(-0.004,-0.004,0.0114));
#1090=CARTESIAN_POINT('',(-0.004,-0.004,0.0114));
#1091=CARTESIAN_POINT('',(-0.0016,-0.004,0.0114));
#1092=CARTESIAN_POINT('',(-3.46944695195361E-18,0.,0.0114));
#1093=CARTESIAN_POINT('',(0.004,0.004,0.0114));
#1094=CARTESIAN_POINT('',(0.004,0.004,0.0114));
#1095=CARTESIAN_POINT('',(0.0064,0.004,0.0114));
#1096=CARTESIAN_POINT('',(-3.46944695195361E-18,0.,0.0114));
#1097=CARTESIAN_POINT('',(0.,0.0067,0.0096));
#1098=CARTESIAN_POINT('',(0.0147,0.0067,0.0096));
#1099=CARTESIAN_POINT('',(0.0147,0.0067,0.0084));
#1100=CARTESIAN_POINT('',(0.,0.0067,0.0084));
#1101=CARTESIAN_POINT('',(-0.0147,0.0067,0.0084));
#1102=CARTESIAN_POINT('',(-0.0147,0.0067,0.0096));
#1103=CARTESIAN_POINT('',(-0.0147,0.,0.0096));
#1104=CARTESIAN_POINT('',(-0.0147,0.,0.0084));
#1105=CARTESIAN_POINT('',(-0.0147,-0.0067,0.0084));
#1106=CARTESIAN_POINT('',(-0.0147,-0.0067,0.0096));
#1107=CARTESIAN_POINT('',(0.,-0.0067,0.0096));
#1108=CARTESIAN_POINT('',(0.,-0.0067,0.0084));
#1109=CARTESIAN_POINT('',(0.0147,-0.0067,0.0084));
#1110=CARTESIAN_POINT('',(0.0147,-0.0067,0.0096));
#1111=CARTESIAN_POINT('',(0.0147,0.,0.0096));
#1112=CARTESIAN_POINT('',(0.0147,0.,0.0084));
#1113=CARTESIAN_POINT('',(-3.46944695195361E-18,0.,0.0084));
#1114=CARTESIAN_POINT('',(-0.00812481380270981,-9.02607215708178E-20,0.0084));
#1115=CARTESIAN_POINT('',(-0.00486796380270981,-9.02607215708178E-20,0.0084));
#1116=CARTESIAN_POINT('',(1.86197290186902E-7,-9.02607215708178E-20,0.0084));
#1117=CARTESIAN_POINT('',(0.00325703619729019,-9.02607215708178E-20,0.0084));
#1118=CARTESIAN_POINT('',(0.00812518619729019,-9.02607215708178E-20,0.0084));
#1119=CARTESIAN_POINT('',(0.0113820361972902,-9.02607215708178E-20,0.0084));
#1120=CARTESIAN_POINT('',(0.004,0.004,0.0084));
#1121=CARTESIAN_POINT('',(0.0052,0.004,0.0084));
#1122=CARTESIAN_POINT('',(-0.004,-0.004,0.0084));
#1123=CARTESIAN_POINT('',(-0.0028,-0.004,0.0084));
#1124=CARTESIAN_POINT('',(-0.004,0.004,0.0084));
#1125=CARTESIAN_POINT('',(-0.0028,0.004,0.0084));
#1126=CARTESIAN_POINT('',(-0.012,-0.004,0.0084));
#1127=CARTESIAN_POINT('',(-0.0108,-0.004,0.0084));
#1128=CARTESIAN_POINT('',(0.012,-0.004,0.0084));
#1129=CARTESIAN_POINT('',(0.0132,-0.004,0.0084));
#1130=CARTESIAN_POINT('',(0.012,0.004,0.0084));
#1131=CARTESIAN_POINT('',(0.0132,0.004,0.0084));
#1132=CARTESIAN_POINT('',(0.004,-0.004,0.0084));
#1133=CARTESIAN_POINT('',(0.0052,-0.004,0.0084));
#1134=CARTESIAN_POINT('',(-0.012,0.004,0.0084));
#1135=CARTESIAN_POINT('',(-0.0108,0.004,0.0084));
#1136=CARTESIAN_POINT('',(-0.012,0.004,0.0114));
#1137=CARTESIAN_POINT('',(-0.012,0.004,0.0102));
#1138=CARTESIAN_POINT('',(-0.0108,0.004,0.0102));
#1139=CARTESIAN_POINT('',(-3.46944695195361E-18,0.,0.0102));
#1140=CARTESIAN_POINT('',(0.004,-0.004,0.0114));
#1141=CARTESIAN_POINT('',(0.004,-0.004,0.0102));
#1142=CARTESIAN_POINT('',(0.0052,-0.004,0.0102));
#1143=CARTESIAN_POINT('',(-3.46944695195361E-18,0.,0.0102));
#1144=CARTESIAN_POINT('',(0.012,0.004,0.0114));
#1145=CARTESIAN_POINT('',(0.012,0.004,0.0102));
#1146=CARTESIAN_POINT('',(0.0132,0.004,0.0102));
#1147=CARTESIAN_POINT('',(-3.46944695195361E-18,0.,0.0102));
#1148=CARTESIAN_POINT('',(0.012,-0.004,0.0114));
#1149=CARTESIAN_POINT('',(0.012,-0.004,0.0102));
#1150=CARTESIAN_POINT('',(0.0132,-0.004,0.0102));
#1151=CARTESIAN_POINT('',(-3.46944695195361E-18,0.,0.0102));
#1152=CARTESIAN_POINT('',(-0.012,-0.004,0.0114));
#1153=CARTESIAN_POINT('',(-0.012,-0.004,0.0102));
#1154=CARTESIAN_POINT('',(-0.0108,-0.004,0.0102));
#1155=CARTESIAN_POINT('',(-3.46944695195361E-18,0.,0.0102));
#1156=CARTESIAN_POINT('',(-0.004,0.004,0.0114));
#1157=CARTESIAN_POINT('',(-0.004,0.004,0.0102));
#1158=CARTESIAN_POINT('',(-0.0028,0.004,0.0102));
#1159=CARTESIAN_POINT('',(-3.46944695195361E-18,0.,0.0102));
#1160=CARTESIAN_POINT('',(-0.004,-0.004,0.0114));
#1161=CARTESIAN_POINT('',(-0.004,-0.004,0.0102));
#1162=CARTESIAN_POINT('',(-0.0028,-0.004,0.0102));
#1163=CARTESIAN_POINT('',(-3.46944695195361E-18,0.,0.0102));
#1164=CARTESIAN_POINT('',(0.004,0.004,0.0114));
#1165=CARTESIAN_POINT('',(0.004,0.004,0.0102));
#1166=CARTESIAN_POINT('',(0.0052,0.004,0.0102));
#1167=CARTESIAN_POINT('',(-3.46944695195361E-18,0.,0.0102));
#1168=CARTESIAN_POINT('',(0.00812518619729019,-1.42727652063288E-19,0.0084));
#1169=CARTESIAN_POINT('',(0.00812518619729019,-1.42727652063288E-19,0.0084));
#1170=CARTESIAN_POINT('',(0.0105251861972902,-1.42727652063288E-19,0.0084));
#1171=CARTESIAN_POINT('',(0.00812518619729019,-1.42727652063288E-19,0.));
#1172=CARTESIAN_POINT('',(0.0105251861972902,-1.42727652063288E-19,0.));
#1173=CARTESIAN_POINT('',(0.00812518619729019,-9.02607215708178E-20,0.0084));
#1174=CARTESIAN_POINT('',(0.00812518619729019,-9.02607215708178E-20,0.));
#1175=CARTESIAN_POINT('',(0.0113820361972902,-9.02607215708178E-20,0.));
#1176=CARTESIAN_POINT('',(-3.46944695195361E-18,0.,0.));
#1177=CARTESIAN_POINT('',(-3.46944695195361E-18,0.,0.0084));
#1178=CARTESIAN_POINT('',(1.86197290186902E-7,-1.42727652063288E-19,0.0084));
#1179=CARTESIAN_POINT('',(1.86197290186902E-7,-1.42727652063288E-19,0.0084));
#1180=CARTESIAN_POINT('',(0.00240018619729019,-1.42727652063288E-19,0.0084));
#1181=CARTESIAN_POINT('',(1.86197290186902E-7,-1.42727652063288E-19,0.));
#1182=CARTESIAN_POINT('',(0.00240018619729019,-1.42727652063288E-19,0.));
#1183=CARTESIAN_POINT('',(1.86197290186902E-7,-9.02607215708178E-20,0.0084));
#1184=CARTESIAN_POINT('',(1.86197290186902E-7,-9.02607215708178E-20,0.));
#1185=CARTESIAN_POINT('',(0.00325703619729019,-9.02607215708178E-20,0.));
#1186=CARTESIAN_POINT('',(-3.46944695195361E-18,0.,0.));
#1187=CARTESIAN_POINT('',(-3.46944695195361E-18,0.,0.0084));
#1188=CARTESIAN_POINT('',(-0.00812481380270981,-1.42727652063288E-19,0.0084));
#1189=CARTESIAN_POINT('',(-0.00812481380270981,-1.42727652063288E-19,0.0084));
#1190=CARTESIAN_POINT('',(-0.00572481380270981,-1.42727652063288E-19,0.0084));
#1191=CARTESIAN_POINT('',(-0.00812481380270981,-1.42727652063288E-19,0.));
#1192=CARTESIAN_POINT('',(-0.00572481380270981,-1.42727652063288E-19,0.));
#1193=CARTESIAN_POINT('',(-0.00812481380270981,-9.02607215708178E-20,0.0084));
#1194=CARTESIAN_POINT('',(-0.00812481380270981,-9.02607215708178E-20,0.));
#1195=CARTESIAN_POINT('',(-0.00486796380270981,-9.02607215708178E-20,0.));
#1196=CARTESIAN_POINT('',(-3.46944695195361E-18,0.,0.));
#1197=CARTESIAN_POINT('',(-3.46944695195361E-18,0.,0.0084));
#1198=MECHANICAL_DESIGN_GEOMETRIC_PRESENTATION_REPRESENTATION('',(#679),
#1199);
#1199=(
GEOMETRIC_REPRESENTATION_CONTEXT(3)
GLOBAL_UNCERTAINTY_ASSIGNED_CONTEXT((#1200))
GLOBAL_UNIT_ASSIGNED_CONTEXT((#1203,#1202,#1201))
REPRESENTATION_CONTEXT('Part 1','TOP_LEVEL_ASSEMBLY_PART')
);
#1200=UNCERTAINTY_MEASURE_WITH_UNIT(LENGTH_MEASURE(1.E-8),#1203,
'DISTANCE_ACCURACY_VALUE','Maximum Tolerance applied to model');
#1201=(
NAMED_UNIT(*)
SI_UNIT($,.STERADIAN.)
SOLID_ANGLE_UNIT()
);
#1202=(
NAMED_UNIT(*)
PLANE_ANGLE_UNIT()
SI_UNIT($,.RADIAN.)
);
#1203=(
LENGTH_UNIT()
NAMED_UNIT(*)
SI_UNIT($,.METRE.)
);
#1204=PRODUCT_DEFINITION_SHAPE('','',#1205);
#1205=PRODUCT_DEFINITION('','',#1207,#1206);
#1206=PRODUCT_DEFINITION_CONTEXT('',#1213,'design');
#1207=PRODUCT_DEFINITION_FORMATION_WITH_SPECIFIED_SOURCE('','',#1209,
 .NOT_KNOWN.);
#1208=PRODUCT_RELATED_PRODUCT_CATEGORY('','',(#1209));
#1209=PRODUCT('Part 1','Part 1','Part 1',(#1211));
#1210=PRODUCT_CATEGORY('','');
#1211=PRODUCT_CONTEXT('',#1213,'mechanical');
#1212=APPLICATION_PROTOCOL_DEFINITION('international standard',
'ap242_managed_model_based_3d_engineering',2020,#1213);
#1213=APPLICATION_CONTEXT('managed model based 3d engineering');
ENDSEC;
END-ISO-10303-21;
